<svg width="49" height="52" viewBox="0 0 49 52" fill="none" xmlns="http://www.w3.org/2000/svg">
<g>
<path d="M18.5968 42.9275C18.7388 41.2085 18.8808 39.5372 19.0227 37.866C19.1883 35.8843 19.3776 33.9027 19.5669 31.9211C19.6852 30.5841 19.8508 29.2709 19.9691 27.9339C19.9928 27.6713 20.1111 27.5758 20.3713 27.5758C22.1932 27.5758 24.015 27.5758 25.8132 27.5758C26.3573 27.5758 26.4047 27.7191 26.2154 28.2682C25.9078 29.2232 25.6239 30.2021 25.3163 31.1571C24.6302 33.3297 23.9204 35.4785 23.2342 37.6511C22.6664 39.4179 22.1222 41.1846 21.5543 42.9514C21.2468 43.9541 20.9155 44.9569 20.5843 45.9596C20.3004 46.8191 20.466 47.225 21.2941 47.4876C21.9802 47.7264 22.6664 47.9413 23.3525 48.18C23.8021 48.3233 24.2753 48.0845 24.4409 47.607C24.9851 45.9119 25.5292 44.2168 26.0498 42.5216C26.6413 40.6594 27.2564 38.7971 27.8479 36.911C28.4158 35.1442 28.9599 33.3775 29.5278 31.6107C29.9063 30.3931 30.3086 29.1754 30.6871 27.9578C30.7581 27.6952 30.9001 27.5519 31.184 27.5758C32.0594 27.5997 32.9348 27.5997 33.8103 27.5758C34.1415 27.5758 34.2598 27.7191 34.2361 28.0294C34.1178 29.1277 33.9995 30.2498 33.8812 31.3481C33.8339 31.8256 33.7866 32.327 33.7393 32.8045C33.6446 33.8788 33.55 34.9771 33.4317 36.0515C33.2188 38.0809 32.9822 40.1102 32.7692 42.1158C32.6273 43.5721 32.509 45.0524 32.367 46.5088C32.3197 47.1056 32.2487 47.7025 32.1777 48.2755C32.1304 48.7053 31.8701 48.9918 31.4443 49.0395C30.8291 49.1112 30.2139 49.135 29.5988 49.135C25.7658 49.135 21.9566 49.135 18.1236 49.1112C17.9107 49.1112 17.6741 49.1112 17.4612 49.0873C16.7514 49.0395 16.5384 48.8008 16.4674 48.0845C16.3255 46.6759 16.1599 45.2673 16.0179 43.8825C15.8996 42.6171 15.7813 41.3756 15.663 40.1102C15.521 38.7255 15.3554 37.3407 15.2134 35.9321C15.0951 34.619 14.9768 33.3297 14.8585 32.0166C14.7166 30.6796 14.5746 29.3426 14.4327 28.0294C14.3853 27.6474 14.48 27.4803 14.8822 27.5042C15.45 27.5281 16.0415 27.5281 16.6094 27.5042C17.0353 27.4803 17.1536 27.6952 17.1772 28.0533C17.2009 28.4592 17.2482 28.8651 17.2719 29.2471C17.3665 30.5124 17.4612 31.8017 17.5795 33.0671C17.7214 34.6428 17.887 36.1947 18.0527 37.7705C18.171 39.0836 18.2656 40.3729 18.3839 41.686C18.4549 42.1158 18.5259 42.4978 18.5968 42.9275Z"/>
<path d="M34.9933 14.5876C35.1589 14.0384 35.2772 13.5848 35.4428 13.1551C35.4901 13.0118 35.7504 12.8924 35.916 12.8924C37.0754 12.9641 38.1637 14.0862 38.2347 15.2799C38.2584 15.6858 38.2347 16.1156 38.211 16.5214C38.0454 18.2166 37.8798 19.8878 37.7142 21.583C37.5012 23.6124 37.2646 25.6417 37.0517 27.6472C36.9097 29.1036 36.7914 30.5839 36.6495 32.0403C36.5312 33.234 36.3892 34.4039 36.2709 35.5977C36.2236 36.0752 36.1999 36.5765 36.1526 37.0779C35.9633 39.0596 35.774 41.0412 35.5848 43.0228C35.4191 44.7418 35.2299 46.4608 35.0642 48.1798C35.0169 48.7051 34.9696 49.2542 34.875 49.7795C34.6384 51.0926 33.55 51.976 32.1067 51.9999C31.0657 52.0237 30.0483 51.9521 29.0073 51.9521C24.9377 51.9521 20.8919 51.976 16.8223 51.9999C15.7576 51.9999 14.8586 51.6656 14.2197 50.7345C13.7938 50.1137 13.7702 49.3736 13.6992 48.6812C13.4389 46.3176 13.2023 43.9539 12.9657 41.5903C12.8948 40.8741 12.8474 40.1339 12.7765 39.4177C12.6582 38.2 12.5162 37.0063 12.3979 35.7887C12.3506 35.3112 12.3033 34.8337 12.2559 34.3562C12.0667 32.3268 11.8774 30.2974 11.6881 28.268C11.5225 26.5012 11.3332 24.7345 11.1676 22.9916C10.9783 21.2248 10.8127 19.4342 10.6234 17.6674C10.5761 17.1183 10.5051 16.5692 10.4105 16.0201C10.1739 14.5398 11.2622 12.9641 12.8711 12.8686C13.297 12.8447 13.7229 12.8208 14.1487 12.8208C19.4723 12.8208 24.7958 12.8208 30.0956 12.8208C30.2613 12.8208 30.4269 12.8208 30.5925 12.8208C31.0657 12.8447 31.113 12.9163 30.9474 13.3699C30.8528 13.6803 30.7818 14.0146 30.6162 14.3011C30.5452 14.4443 30.3322 14.5637 30.1666 14.6114C30.001 14.6592 29.7881 14.6353 29.5988 14.6353C24.2279 14.6353 18.8808 14.6353 13.5099 14.6353C13.368 14.6353 13.2023 14.6353 13.0604 14.6592C12.4216 14.7308 12.0903 15.0889 12.1613 15.7336C12.3033 17.2616 12.4925 18.8135 12.6345 20.3415C12.7765 21.8217 12.9184 23.302 13.0604 24.7822C13.1787 25.9282 13.297 27.0981 13.4389 28.2441C13.4863 28.7216 13.5336 29.223 13.5809 29.7005C13.7702 31.706 13.9595 33.7354 14.1487 35.7409C14.3144 37.5077 14.5037 39.2983 14.6929 41.0651C14.8586 42.8318 15.0478 44.5986 15.2135 46.3415C15.3081 47.2487 15.3791 48.156 15.4737 49.0393C15.5684 49.8272 15.9233 50.1615 16.7277 50.1615C20.7499 50.1615 24.7958 50.1615 28.818 50.1615C29.8827 50.1615 30.9474 50.1615 32.0121 50.1615C32.7929 50.1376 33.0295 49.8511 33.1005 49.0632C33.2897 47.1293 33.5263 45.1955 33.7156 43.2616C33.8576 41.8052 33.9759 40.3488 34.1178 38.9163C34.3308 36.8392 34.5674 34.7382 34.7803 32.661C34.9223 31.2524 35.0406 29.8438 35.1825 28.4351C35.3008 27.1697 35.4665 25.9282 35.5848 24.6629C35.7267 23.2304 35.845 21.7978 35.987 20.3415C36.1053 19.1477 36.2473 17.9539 36.3892 16.7602C36.4365 16.3782 36.4365 15.9962 36.4365 15.5903C36.4365 15.0412 36.129 14.7069 35.5848 14.6353C35.4428 14.6353 35.2535 14.6114 34.9933 14.5876Z" />
<path d="M21.4834 46.1267C21.72 45.3389 21.9802 44.5271 22.2168 43.7392C22.69 42.2351 23.1869 40.7071 23.6837 39.203C24.3699 37.0303 25.0797 34.8577 25.7658 32.6612C26.2154 31.2287 26.6649 29.7962 27.1145 28.3637C27.8479 26.0478 28.5814 23.708 29.3385 21.3921C30.0956 19.0285 30.8764 16.641 31.6335 14.2773C32.296 12.2241 32.9585 10.1469 33.5737 8.06981C34.2361 5.82555 35.6557 4.41692 37.8325 3.67679C39.9146 2.96054 41.9493 2.17266 44.0077 1.40866C45.2617 0.955029 46.4921 0.501402 47.746 0.0477747C48.0773 -0.0716008 48.3849 0.0238996 48.5268 0.358151C48.6924 0.764028 48.8581 1.19378 48.9764 1.59966C49.071 1.95778 48.9054 2.22041 48.5741 2.33979C46.8706 2.98441 45.1434 3.60517 43.4399 4.22592C41.6181 4.89442 39.7963 5.56293 37.9744 6.2553C36.9097 6.66118 36.3182 7.49681 35.987 8.54731C34.8513 12.1286 33.7156 15.7099 32.5563 19.2911C32.0831 20.7714 31.6335 22.2755 31.1603 23.7558C30.3086 26.4298 29.4331 29.1277 28.5814 31.8017C27.8479 34.1414 27.1145 36.4812 26.3573 38.7971C25.6239 41.1368 24.8667 43.4527 24.1333 45.7925C23.5418 47.6548 23.4708 47.1772 21.9802 46.7475C21.6726 46.6997 21.4597 46.4849 21.4834 46.1267Z" />
<path d="M2.22805e-05 13.8954C-0.0709579 9.04872 2.95753 4.82282 7.26366 3.24707C12.8948 1.16993 18.9991 3.82007 21.3414 9.26359C21.649 9.95597 21.8383 10.72 22.0749 11.4601C22.1695 11.7705 22.0275 11.9137 21.72 11.9137C21.5543 11.9137 21.3887 11.9137 21.2231 11.9137C20.9392 11.9137 20.7972 11.7944 20.7026 11.484C19.9928 8.71447 18.4549 6.56571 15.9706 5.1332C14.0541 4.03494 11.9957 3.62907 9.84261 3.93944C6.36458 4.4647 3.83295 6.35083 2.27139 9.5501C1.49061 11.102 1.23035 12.7732 1.34865 14.54C1.51427 16.9275 2.46067 18.9808 4.04589 20.6998C5.18158 21.9413 6.60118 22.8008 8.21007 23.2783C8.73059 23.4454 9.27477 23.5409 9.79529 23.6364C10.1739 23.6842 10.3158 23.8752 10.3158 24.2094C10.3158 24.3288 10.3158 24.4482 10.3395 24.5675C10.4105 24.9495 10.2685 25.0212 9.88993 24.9734C5.39452 24.3765 2.36603 21.8697 0.662504 17.6915C0.189303 16.45 -0.0472979 15.1369 2.22805e-05 13.8954Z" />
<path d="M10.9783 9.71742C10.9783 10.5769 11.0019 11.4126 10.9546 12.2721C10.9309 12.5108 10.718 12.7496 10.5287 12.9167C10.4577 12.9644 10.1738 12.7973 10.0319 12.6779C8.44664 11.3171 6.88508 9.9323 5.32351 8.57142C4.63737 7.97454 4.63737 7.47316 5.29985 6.87628C6.55384 5.75415 7.9971 5.10952 9.62964 4.79915C10.2448 4.67977 10.6943 5.08565 10.718 5.7064C10.789 7.04341 10.86 8.38042 10.9309 9.71742C10.9309 9.71742 10.9546 9.71742 10.9783 9.71742Z" />
<path d="M3.0758 15.2086C2.57894 15.2086 2.17672 14.8504 2.15306 14.3729C2.03476 12.6539 2.34234 11.0065 3.1941 9.47854C3.549 8.81003 4.09319 8.69066 4.70835 9.12041C6.38821 10.3858 8.09174 11.6273 9.79526 12.8927C9.93722 13.0121 10.1738 13.2747 10.1265 13.3463C10.0082 13.5851 9.81892 13.8954 9.58232 13.9671C8.84886 14.1819 8.09174 14.3013 7.33461 14.4446C6.08063 14.6833 4.82665 14.9221 3.57266 15.1608C3.38338 15.1847 3.21776 15.1847 3.0758 15.2086Z" />
<path d="M11.3095 12.2239C11.3095 11.818 11.2859 11.4121 11.3095 11.0062C11.3805 9.33497 11.4751 7.63984 11.5461 5.96858C11.5934 5.01358 12.0193 4.65545 12.9421 4.84645C14.5036 5.1807 15.8996 5.84921 17.0826 6.92359C17.6268 7.42497 17.6504 7.95022 17.1062 8.4516C15.8759 9.54985 14.6219 10.6242 13.368 11.7225C13.2733 11.818 13.155 11.8896 13.0367 11.9135C12.4925 12.009 11.972 12.1045 11.3095 12.2239Z"/>
<path d="M9.53502 14.373C9.53502 15.1609 9.55868 15.8294 9.51136 16.5218C9.4877 16.7606 9.3694 16.9993 9.2511 17.2142C8.63594 18.4079 7.99712 19.6017 7.3583 20.7955C7.0034 21.464 6.38824 21.6072 5.77307 21.1536C4.42445 20.1508 3.43073 18.8616 2.7919 17.3097C2.5553 16.7367 2.81556 16.2114 3.43073 16.0204C5.06327 15.5668 6.69582 15.1132 8.32836 14.6834C8.73058 14.564 9.1328 14.4685 9.53502 14.373Z"/>
<path d="M15.6866 15.5906C16.633 15.519 17.7924 15.5906 18.9044 16.0204C19.4723 16.2352 19.7325 16.6889 19.5196 17.238C18.8807 18.9092 17.816 20.2224 16.3964 21.2251C15.8759 21.6071 15.3317 21.4639 15.0242 20.8909C14.48 19.912 13.8885 18.9331 13.4626 17.8826C13.226 17.2619 13.2497 16.5456 13.2023 15.8771C13.2023 15.8055 13.4626 15.6145 13.6046 15.6145C14.2197 15.5906 14.8349 15.5906 15.6866 15.5906Z"/>
<path d="M13.9358 23.7799C13.7939 23.3263 14.1961 23.2308 14.5273 23.1353C16.1599 22.5384 17.5085 21.5595 18.6442 20.2464C19.6852 19.0526 20.3477 17.644 20.7262 16.116C20.8445 15.6385 21.1048 15.6146 21.4597 15.6385C22.1695 15.6385 22.2168 15.6624 22.0512 16.3786C21.1285 19.9599 18.9754 22.5623 15.6157 24.1141C15.2844 24.2574 14.9532 24.3768 14.622 24.4961C14.1488 24.6871 14.0068 24.5916 13.9595 24.0903C13.9595 24.0186 13.9595 23.9231 13.9358 23.7799Z" />
<path d="M14.1251 11.7226C14.5747 11.3884 15.0005 11.0541 15.4501 10.7199C16.1362 10.2185 16.8224 9.69323 17.5085 9.19185C18.242 8.6666 18.8098 8.78598 19.1884 9.59773C19.4486 10.1946 19.6852 10.8154 19.8982 11.4122C20.0165 11.6987 19.9455 11.9136 19.5669 11.9136C17.8634 11.9136 16.1362 11.9136 14.4327 11.9136C14.3381 11.9136 14.2671 11.8659 14.1724 11.842C14.1488 11.8181 14.1488 11.7704 14.1251 11.7226Z"/>
<path d="M9.67697 17.9301C9.74795 18.6225 9.84259 19.3388 9.91357 20.0311C9.98455 20.7951 10.0555 21.5353 10.1502 22.2993C10.1975 22.6574 10.1028 22.8723 9.72429 22.7768C9.29841 22.6813 8.89619 22.6096 8.49397 22.4664C8.09174 22.3231 7.8788 21.8695 8.04442 21.4159C8.49396 20.2221 9.01449 19.0761 9.51135 17.9062C9.53501 17.9301 9.60599 17.9301 9.67697 17.9301Z"/>
<path d="M13.5809 20.127C14.3854 20.7477 14.551 22.037 13.8412 22.3951C13.7466 21.6311 13.6756 20.9148 13.5809 20.127Z"/>
</g>
<defs>
<clipPath id="clip0">
<rect width="49" height="52"/>
</clipPath>
</defs>
</svg>
