<svg width="64" height="61" viewBox="0 0 64 61" fill="none" xmlns="http://www.w3.org/2000/svg">
<g>
<path d="M43.079 25.5498C42.4605 26.0248 41.8958 26.4748 41.3311 26.8998C40.7126 27.3748 40.7126 27.3998 39.9059 27.2998C39.6101 27.2748 39.2874 27.2498 38.9916 27.1998C38.2655 27.1248 37.5395 27.0748 36.7865 27.0248C35.3344 26.9248 33.9092 26.8248 32.4571 26.7748C30.7092 26.7248 28.9613 26.6998 27.1865 26.6998C25.1428 26.6998 23.0722 26.7248 21.0285 26.7748C19.4958 26.8248 17.9899 26.9498 16.4571 27.0498C15.6504 27.0998 14.8168 27.1498 14.0101 27.2248C13.2571 27.2998 12.5311 27.3748 11.805 27.4748C10.9176 27.5748 10.0302 27.6998 9.14283 27.8248C8.44368 27.9248 7.74452 28.0748 7.07225 28.2248C5.91594 28.4498 4.78653 28.7248 3.7109 29.1748C3.442 29.2748 3.22687 29.4248 2.98485 29.5748C2.79662 29.6998 2.76973 29.8248 2.98485 29.9248C3.52267 30.1748 4.03359 30.4748 4.5983 30.6498C5.59326 30.9498 6.58821 31.1748 7.61006 31.3998C8.41678 31.5748 9.22351 31.6748 10.0302 31.7748C10.8638 31.8998 11.6975 31.9998 12.5311 32.0748C13.5798 32.1748 14.6285 32.2998 15.6773 32.3748C17.8017 32.5248 19.8991 32.6498 22.0235 32.7498C23.7983 32.8248 25.5731 32.7998 27.3479 32.7748C29.4454 32.7498 31.5428 32.6748 33.6403 32.5998C35.3075 32.5248 36.9748 32.4248 38.642 32.2998C39.7445 32.2248 40.8739 32.1248 41.9764 31.9998C43.2134 31.8498 44.4235 31.6498 45.6336 31.4248C46.7361 31.2248 47.8117 30.9498 48.8874 30.6498C49.479 30.4998 50.0706 30.2998 50.5546 29.9248C50.7697 29.7748 50.7966 29.6998 50.5546 29.5498C50.0706 29.2998 49.5596 29.0748 49.0487 28.8498C48.6722 28.6998 48.2958 28.6248 47.8655 28.4998C47.9193 28.4498 47.9462 28.3998 47.9731 28.3748C48.726 27.9498 49.479 27.4998 50.2319 27.0748C50.2857 27.0498 50.4201 27.0498 50.4739 27.0748C51.1462 27.3248 51.8185 27.6248 52.3563 28.0748C52.7596 28.4248 53.0554 28.8248 53.1092 29.3498C53.163 29.8998 53.3243 30.4498 53.3781 30.9998C53.4857 32.0998 53.5933 33.1748 53.4588 34.2748C53.3512 34.9498 53.3243 35.6498 53.2168 36.3248C53.0285 37.3748 52.7327 38.4248 52.3294 39.4248C51.8185 40.7748 51.1462 42.0748 50.3395 43.2998C49.5327 44.5248 48.6453 45.6748 47.5697 46.6998C46.7899 47.4248 46.0101 48.1748 45.1764 48.8498C43.563 50.1498 41.7882 51.2498 39.879 52.1748C38.6151 52.7998 37.2975 53.3248 35.9529 53.7498C34.9042 54.0748 33.8554 54.3498 32.7798 54.5748C31.8386 54.7748 30.8706 54.8998 29.9025 55.0248C27.9664 55.2998 26.0302 55.2748 24.0941 55.0748C22.9916 54.9748 21.9159 54.7498 20.8403 54.5748C19.4689 54.3498 18.1512 53.9498 16.8605 53.4748C15.3815 52.9498 13.9563 52.3498 12.6117 51.5748C11.5899 50.9748 10.5412 50.3998 9.59998 49.7248C8.0941 48.6748 6.72267 47.4748 5.48569 46.1498C4.03359 44.5748 2.82351 42.8498 1.90922 40.9498C1.3983 39.8748 0.968046 38.7998 0.672248 37.6498C0.37645 36.5248 0.215105 35.3998 0.107542 34.2498C-2.06679e-05 33.0748 0.107542 31.9248 0.215105 30.7748C0.268887 30.1998 0.37645 29.6248 0.484013 29.0748C0.618467 28.4998 1.04872 28.0998 1.55964 27.7748C2.31258 27.2748 3.17309 26.9748 4.03359 26.7248C4.81342 26.4998 5.59326 26.2998 6.39998 26.1498C7.36805 25.9498 8.363 25.7998 9.33107 25.6498C10.3798 25.4998 11.4285 25.3498 12.4773 25.2248C13.1496 25.1498 13.8218 25.0998 14.521 25.0498C15.3277 24.9748 16.1344 24.8998 16.968 24.8498C17.3983 24.8248 17.8285 24.7748 18.2588 24.7748C20.1143 24.7248 21.9697 24.6498 23.8252 24.5998C25.1159 24.5748 26.4067 24.5248 27.6975 24.5498C29.7143 24.5748 31.7311 24.6248 33.7748 24.6998C35.3344 24.7498 36.8941 24.8748 38.4538 24.9998C39.5025 25.0748 40.5512 25.1998 41.6269 25.2998C42.0302 25.3498 42.4336 25.3998 42.8638 25.4498C42.8638 25.4748 42.9445 25.4998 43.079 25.5498Z" />
<path d="M32.2151 60.9499C29.6605 60.9749 27.1059 61.0249 24.5513 61.0249C23.3412 61.0249 22.1311 60.9499 20.9479 60.8749C19.7916 60.7999 18.6084 60.6999 17.4521 60.5749C16.6185 60.4749 15.7849 60.3499 14.9513 60.2249C14.3866 60.1499 13.795 60.0999 13.2303 59.9749C12.1815 59.7749 11.1059 59.5749 10.0572 59.2999C8.82018 58.9749 7.55631 58.6249 6.34623 58.2249C4.49077 57.5999 2.74287 56.7749 1.34455 55.4749C0.941186 55.0999 0.618497 54.6749 0.322699 54.2249C-0.242007 53.3499 -0.107553 52.4499 0.672278 51.6249C1.23698 51.0249 1.96303 50.6749 2.74287 50.3999C3.73782 50.0499 4.75967 49.8499 5.80841 49.7749C6.45379 49.7249 7.09917 49.6749 7.74455 49.6249C7.82522 49.6249 7.93278 49.5999 8.01345 49.6249C8.09413 49.6499 8.14791 49.6999 8.22858 49.7499C8.1748 49.7999 8.12102 49.8749 8.06724 49.8999C7.5832 50.0249 7.09917 50.1249 6.64203 50.2499C5.88909 50.4499 5.16303 50.6999 4.51766 51.1499C4.00673 51.4999 3.79161 51.9999 4.06051 52.3749C4.27564 52.6999 4.57144 52.9999 4.89413 53.1999C5.53951 53.5999 6.23866 53.9499 6.93782 54.2249C7.69077 54.5499 8.4706 54.7999 9.25043 55.0499C10.1109 55.3249 10.9714 55.5499 11.8588 55.7749C12.4235 55.9249 13.0151 56.0249 13.6067 56.1499C14.6017 56.3499 15.5966 56.5249 16.6185 56.6999C17.2639 56.7999 17.9361 56.8749 18.5815 56.9249C19.7647 57.0499 20.9479 57.1999 22.1311 57.2749C23.0723 57.3499 24.0135 57.3499 24.9546 57.3999C26.7832 57.4999 28.6118 57.3999 30.4403 57.2999C31.3546 57.2499 32.2689 57.1999 33.1832 57.1249C33.9361 57.0499 34.6891 56.9499 35.4151 56.8749C36.2219 56.7749 37.0286 56.6749 37.8353 56.5249C38.5345 56.3999 39.2336 56.2749 39.9328 56.1249C41.2773 55.8249 42.6219 55.5249 43.9395 55.1499C45.3647 54.7499 46.7899 54.2499 48.0807 53.5249C48.5109 53.2749 48.8874 52.9749 49.2639 52.6499C49.7479 52.2249 49.721 51.7249 49.237 51.2999C48.8605 50.9499 48.3765 50.6999 47.8656 50.5499C47.1126 50.3249 46.3597 50.1499 45.6067 49.9499C45.5798 49.9499 45.5261 49.9499 45.4992 49.9249C45.4454 49.8749 45.3916 49.7999 45.3378 49.7499C45.4185 49.7249 45.4723 49.6499 45.5529 49.6499C45.9025 49.6499 46.279 49.6499 46.6286 49.6749C47.516 49.7749 48.4303 49.8499 49.3176 49.9999C50.474 50.1999 51.5765 50.5749 52.4908 51.2749C53.163 51.7999 53.5933 52.4499 53.5395 53.2749C53.5126 53.8249 53.1899 54.2999 52.8403 54.7249C52.0874 55.6999 51.0387 56.3999 49.9361 56.9749C48.4571 57.7749 46.8706 58.3749 45.2303 58.7999C44.074 59.0999 42.9445 59.3999 41.7882 59.6499C40.7933 59.8499 39.7983 59.9999 38.8034 60.1499C37.7277 60.2999 36.6252 60.4499 35.5227 60.5749C34.7966 60.6499 34.0437 60.6749 33.3177 60.7499C32.9681 60.7749 32.6185 60.8249 32.2689 60.8749C32.2151 60.9249 32.2151 60.9249 32.2151 60.9499Z" />
<path d="M28.1815 31.7748C28.558 31.5748 28.9076 31.3248 29.284 31.1498C30.3328 30.6748 31.4084 30.3498 32.5916 30.3498C33.6941 30.3498 34.8235 30.3998 35.9261 30.3998C36.6252 30.3998 37.3244 30.3998 38.0235 30.3498C38.4807 30.3248 38.7765 29.9998 39.0992 29.7498C40.5782 28.5498 42.0571 27.3498 43.563 26.1748C45.3378 24.7748 47.1664 23.4248 48.9412 22.0498C50.0975 21.1498 51.2269 20.2248 52.3563 19.3248C53.4588 18.4748 54.6151 17.7248 55.879 17.1248C57.0084 16.5748 58.1109 16.0248 59.2672 15.5748C60.2622 15.1748 61.3109 14.8998 62.3328 14.5748C62.6555 14.4748 63.0051 14.4248 63.3546 14.4248C63.8387 14.4248 64.1614 14.9248 63.9462 15.3248C63.7311 15.7498 63.4353 16.1498 63.1395 16.5248C61.4723 18.6248 59.4824 20.4498 57.2773 22.0498C56.1479 22.8748 54.9109 23.5248 53.7008 24.1998C52.3832 24.9248 51.0656 25.6748 49.7479 26.3998C48.0807 27.3248 46.4135 28.2748 44.7462 29.1998C43.6168 29.8248 42.4874 30.4248 41.358 31.0748C41.0353 31.2748 40.6588 31.2748 40.3092 31.2998C38.9378 31.3998 37.5664 31.4998 36.195 31.5748C34.9311 31.6498 33.6941 31.6998 32.4303 31.7498C31.274 31.7998 30.0908 31.8498 28.9345 31.8998C28.6924 31.8998 28.4773 31.8998 28.2353 31.8998C28.2084 31.8248 28.1815 31.7998 28.1815 31.7748Z" />
<path d="M10.2454 0C10.6488 0.225 11.079 0.45 11.4824 0.7C12.5849 1.425 13.553 2.275 14.279 3.35C14.6824 3.95 14.8975 4.6 15.0589 5.275C15.2202 6.05 15.2202 6.8 15.1664 7.575C15.0858 8.425 14.8168 9.225 14.4942 10C13.9563 11.275 13.3379 12.55 12.8538 13.85C12.4773 14.85 12.3429 15.925 12.4505 17C12.5849 18.45 13.3379 19.575 14.3059 20.65C14.9782 21.4 15.7849 22 16.6723 22.525C16.753 22.575 16.8068 22.625 16.8874 22.7C16.8874 22.725 16.8605 22.75 16.8605 22.775C16.511 22.775 16.1345 22.825 15.8118 22.775C15.1664 22.675 14.4942 22.6 13.9026 22.4C11.8051 21.675 9.94962 20.575 8.8471 18.65C8.20172 17.55 7.93281 16.375 8.17483 15.125C8.41685 13.95 8.82021 12.8 9.33113 11.7C9.68071 10.925 10.0303 10.15 10.353 9.375C10.6757 8.575 11.0253 7.775 11.2673 6.95C11.5362 6.075 11.6706 5.175 11.5631 4.275C11.5093 3.75 11.4555 3.225 11.2942 2.725C11.1328 2.2 10.837 1.7 10.6219 1.175C10.4605 0.825 10.353 0.45 10.2185 0.075C10.1916 0.05 10.2185 0.025 10.2454 0Z" />
<path d="M21.5933 22.2002C21.2168 22.1502 20.8672 22.1252 20.4908 22.0752C18.7429 21.8002 17.5328 20.8502 16.5916 19.5002C16.0807 18.7502 15.6773 17.9752 15.4891 17.1002C15.3277 16.3002 15.3008 15.5002 15.4084 14.6752C15.5429 13.6002 15.8656 12.6002 16.2689 11.6002C16.5378 10.9002 16.8874 10.2252 17.1563 9.5502C17.5597 8.5252 17.7748 7.4752 17.6941 6.3752C17.6135 5.5752 17.4521 4.8002 17.1563 4.0752C17.1025 3.9252 17.0487 3.7752 17.0487 3.5752C17.2639 3.7002 17.5059 3.7752 17.6941 3.9252C18.716 4.6002 19.6034 5.4002 20.195 6.4502C20.5714 7.1002 20.7597 7.8002 20.7866 8.5252C20.7866 9.2252 20.7597 9.9252 20.6252 10.6002C20.437 11.4752 20.1143 12.3002 19.8723 13.1502C19.6303 14.0252 19.4689 14.9002 19.2807 15.7752C19.2 16.1252 19.2 16.4752 19.2 16.8252C19.2 18.5002 19.7378 20.0002 20.8941 21.3002C21.0286 21.4502 21.1361 21.6002 21.2437 21.7252C21.3513 21.8502 21.4857 21.9752 21.6202 22.1002C21.6202 22.1502 21.6202 22.1752 21.5933 22.2002Z" />
</g>
<defs>
<clipPath id="clip0">
<rect width="64" height="61" />
</clipPath>
</defs>
</svg>
