<svg width="23" height="43" viewBox="0 0 23 43" fill="none" xmlns="http://www.w3.org/2000/svg">
<g>
<path d="M11.4732 43C8.98009 43 6.46827 43 3.9752 43C3.71277 43 3.41285 42.9253 3.16917 42.7946C2.88799 42.6639 2.88799 42.3465 3.16917 42.2345C3.56281 42.0664 3.9752 41.9171 4.38759 41.8797C5.08115 41.805 5.79345 41.8424 6.50576 41.7677C7.53673 41.637 8.60519 41.5996 9.50494 40.9462C9.93608 40.6474 10.236 40.2366 10.3672 39.7325C10.4797 39.2284 10.5734 38.7056 10.5734 38.2015C10.5921 35.6622 10.6109 33.1229 10.5734 30.5836C10.5547 29.538 10.4047 28.4737 10.2173 27.4281C9.97357 26.0278 9.16754 24.9262 8.06159 24.0673C6.88066 23.1524 5.66224 22.3122 4.5188 21.3786C3.18791 20.2957 1.96949 19.0821 1.16346 17.551C0.582369 16.4307 0.263705 15.2171 0.113746 13.9661C-0.073703 12.6778 0.0200216 11.4268 0.188726 10.1759C0.413665 8.53278 0.788563 6.92705 1.3884 5.396C2.04447 3.69692 2.75678 2.03517 3.41285 0.336083C3.52532 0.0746852 3.69402 0 3.95645 0C5.58726 0 7.21807 0 8.86762 0C9.8611 0 10.8358 0.0373426 11.8293 0.0373426C14.1912 0.0373426 16.553 0.0186713 18.9149 0C19.271 0 19.4772 0.0933565 19.6272 0.42944C20.6019 2.57664 21.5017 4.76118 22.139 7.03908C22.6639 8.86887 23.0013 10.736 23.0013 12.6405C23.0013 15.6279 21.9703 18.1672 19.7772 20.2584C18.465 21.5093 17.0217 22.5549 15.5783 23.6005C14.5661 24.3287 13.6476 25.1689 13.1602 26.3639C12.7478 27.3348 12.5416 28.3804 12.5416 29.426C12.5041 32.5254 12.5229 35.6435 12.5229 38.7429C12.5229 40.1059 13.2164 41.0395 14.6036 41.4316C15.8032 41.7677 17.0217 41.749 18.2401 41.861C18.7087 41.8984 19.1773 41.9731 19.6272 42.1038C19.8146 42.1598 19.9459 42.4025 20.0958 42.5519C19.9271 42.6826 19.7772 42.8506 19.5897 42.9253C19.3648 43 19.1023 43 18.8587 43.0187C18.7274 43.0373 18.615 43.0187 18.4838 43.0187C16.1406 43 13.7975 43 11.4732 43ZM7.76167 0.448111V0.466782C6.65572 0.466782 5.54977 0.485454 4.46256 0.466782C4.1439 0.466782 4.01269 0.597481 3.91896 0.840208C3.80649 1.13895 3.71277 1.45636 3.6003 1.7551C2.73803 4.12636 2.00698 6.53495 1.63208 9.03691C1.42589 10.5493 1.35091 12.0803 1.57585 13.63C1.81953 15.4598 2.4756 17.1216 3.69402 18.5219C4.5188 19.4742 5.4373 20.2957 6.61823 20.7812C7.48049 21.1359 8.34276 21.5093 9.24252 21.7334C10.0298 21.9388 10.8546 22.0508 11.6606 22.0321C12.5041 22.0135 13.3477 21.8454 14.1724 21.6214C15.5596 21.2479 16.8529 20.7065 17.9964 19.7916C20.0583 18.1485 21.1643 15.964 21.4829 13.406C21.7266 11.5575 21.5579 9.70907 21.1643 7.89796C20.9206 6.77768 20.6769 5.6574 20.3582 4.57447C19.9833 3.32349 19.496 2.09119 19.0836 0.840208C18.9899 0.560139 18.8399 0.466782 18.5587 0.466782C16.2156 0.466782 13.8725 0.448111 11.5481 0.448111C10.2735 0.448111 9.01758 0.448111 7.76167 0.448111Z" />
<path d="M2.718 12.0992C3.0929 12.5099 3.43031 12.9767 3.84269 13.3315C4.76119 14.097 5.86714 14.1717 6.99184 13.9289C8.6039 13.5929 10.0098 12.79 11.4906 12.1365C12.7278 11.595 13.9837 11.1096 15.2583 10.6615C16.7017 10.1387 18.2013 9.97063 19.7384 9.93328C20.2632 9.91461 20.2632 9.95195 20.3007 10.4561C20.3944 11.7071 20.357 12.9394 20.0758 14.1717C19.5509 16.5429 18.2013 18.3167 16.0644 19.4556C15.1084 19.9784 14.0774 20.3892 12.9715 20.5199C12.1279 20.6133 11.2657 20.6879 10.4409 20.6133C9.6911 20.5386 8.9788 20.2398 8.24775 20.0158C6.86062 19.605 5.67969 18.8395 4.7237 17.7752C3.56152 16.4869 2.90545 14.9559 2.73674 13.2381C2.69925 12.8647 2.64302 12.4726 2.60553 12.0992C2.64302 12.0992 2.68051 12.0992 2.718 12.0992Z" />
</g>
<defs>
<clipPath id="clip0">
<rect width="23" height="43" />
</clipPath>
</defs>
</svg>
