<svg width="29" height="29" viewBox="0 0 29 29" fill="none" xmlns="http://www.w3.org/2000/svg">
<circle cx="14.5" cy="14.5" r="13" fill="black"  stroke-width="3"/>
<g>
<path d="M16.287 14.4989L20.7127 10.0732C21.2044 9.58147 21.2044 8.7768 20.7127 8.28506C20.2209 7.79332 19.4163 7.79332 18.9245 8.28506L14.4989 12.7107L10.0732 8.28506C9.58147 7.79332 8.7768 7.79332 8.28506 8.28506C7.79332 8.7768 7.79332 9.58147 8.28506 10.0732L12.7107 14.4989L8.28506 18.9245C7.79332 19.4163 7.79332 20.2209 8.28506 20.7127C8.55329 20.9809 8.86621 21.0703 9.17914 21.0703C9.49206 21.0703 9.84969 20.9362 10.0732 20.7127L14.4989 16.287L18.9245 20.7127C19.1927 20.9809 19.5057 21.0703 19.8186 21.0703C20.1315 21.0703 20.4891 20.9362 20.7127 20.7127C21.2044 20.2209 21.2044 19.4163 20.7127 18.9245L16.287 14.4989Z"/>
</g>
<defs>
<clipPath id="clip0">
<rect width="13.1429" height="13.1429" transform="translate(7.92847 7.92847)"/>
</clipPath>
</defs>
</svg>
