<svg width="44" height="28" viewBox="0 0 44 28" fill="none" xmlns="http://www.w3.org/2000/svg">
<g>
<path d="M21.185 28C19.3791 27.8909 17.7322 27.8573 16.1019 27.6811C14.9064 27.5552 13.7276 27.2614 12.5405 27.018C11.7379 26.8585 10.9353 26.6907 10.1578 26.4557C9.27159 26.1955 8.39377 25.8933 7.5243 25.5744C6.83876 25.3226 6.16994 25.0204 5.49276 24.7434C4.04644 24.1391 2.89272 23.1739 1.9731 21.9233C0.994946 20.5804 0.451529 19.0947 0.1422 17.458C-0.17549 15.7794 0.0585975 14.1847 0.518411 12.6235C1.24575 10.1307 2.7088 8.08275 4.58985 6.31176C5.89405 5.09474 7.29857 4.00361 8.82014 3.10553C9.89861 2.46764 11.069 1.98083 12.2311 1.50241C13.134 1.13311 14.0704 0.80577 15.0234 0.587544C15.9932 0.360926 16.9965 0.260206 17.9913 0.1427C18.1669 0.125914 18.3592 0.302173 18.5431 0.369319C18.702 0.419679 18.911 0.537185 19.0196 0.478432C20.073 -0.134278 21.1933 -0.0251656 22.3136 0.134307C24.3869 0.419679 26.4603 0.663084 28.5503 0.512005C29.4449 0.444858 30.3394 0.461645 31.1838 0.797376C32.0198 1.13311 32.8391 1.51081 33.6752 1.84654C35.3305 2.50961 36.5177 3.73503 37.5794 5.10313C38.8836 6.78179 40.2296 8.41848 41.4836 10.1307C42.0187 10.8609 42.4534 11.6835 42.8213 12.5144C43.2142 13.3957 43.5821 14.3106 43.7743 15.259C43.9666 16.2074 44.0168 17.1979 43.975 18.1715C43.9416 19.1871 43.6406 20.1607 43.1473 21.0672C42.5705 22.1247 41.8097 23.0312 40.8148 23.6775C39.8367 24.3154 38.7916 24.8777 37.7383 25.3897C37.1363 25.6835 36.4508 25.8178 35.7987 25.9856C34.9041 26.2122 33.9929 26.4137 33.09 26.5983C32.3459 26.7494 31.5935 26.8669 30.841 26.9928C30.1053 27.1187 29.3613 27.2698 28.6256 27.3621C27.4301 27.5132 26.2262 27.6307 25.0223 27.7398C23.693 27.8405 22.3554 27.9161 21.185 28ZM38.1563 7.29378C38.081 7.19306 38.0392 7.11752 37.9807 7.07555C37.2784 6.53838 36.5678 6.00961 35.8739 5.45565C35.1215 4.85133 34.3356 4.35613 33.3408 4.21344C32.4462 4.07915 31.6436 4.2638 30.8578 4.67507C30.7574 4.72543 30.5819 4.75901 30.5066 4.70025C30.1555 4.45685 29.8127 4.19666 29.495 3.91129C29.1355 3.59234 28.8262 3.23143 28.4667 2.91248C27.2461 1.82975 26.1927 1.82136 25.0307 2.43407C24.3368 2.79498 24.3535 2.82016 23.8602 2.24102C23.8268 2.19906 23.8017 2.1487 23.7683 2.10673C22.8486 1.06596 21.7702 0.402892 20.3155 0.537185C19.4878 0.612724 19.329 0.830949 19.3624 1.62831C19.3875 2.10673 19.3206 2.63551 19.1367 3.08035C18.7354 4.04558 17.799 4.37292 16.8878 4.5156C15.7006 4.70865 14.48 4.71704 13.2762 4.81776C12.6826 4.86812 12.0806 4.91848 11.4954 5.0192C10.9687 5.11153 10.835 5.5144 11.1777 5.95085C11.4536 6.29498 11.7462 6.6475 12.0974 6.91608C12.8163 7.47843 12.9167 7.512 12.1559 8.33455C10.4169 10.2314 8.1764 11.3393 5.86897 12.3465C5.58472 12.4724 5.29211 12.6067 5.00787 12.7326C5.02459 12.7662 5.03295 12.7998 5.04967 12.825C5.26703 12.7578 5.4844 12.6823 5.70177 12.6151C6.67156 12.3298 7.65807 12.1199 8.60277 11.759C10.2079 11.1463 11.7379 10.3657 13.1675 9.40049C13.7192 9.03119 14.3295 8.67028 15.0318 8.84654C15.5585 8.98083 16.0936 9.17387 16.5701 9.45085C17.473 9.96284 18.2923 10.5839 18.9862 11.3729C19.2036 11.6247 19.5463 11.7506 19.8055 11.9688C20.2737 12.3633 20.7335 12.783 21.185 13.1859C21.9625 13.8825 22.7232 14.5959 23.5175 15.2674C24.1278 15.7878 24.7715 16.2662 25.4236 16.7446C25.5574 16.8453 25.7915 16.8621 25.9587 16.8202C26.0255 16.8034 26.0841 16.518 26.0506 16.3753C25.9169 15.813 25.7747 15.2422 25.5824 14.6967C25.2313 13.723 24.8718 12.741 24.4454 11.801C23.8101 10.3993 23.1413 9.00601 22.439 7.6379C22.0711 6.91608 22.4975 6.16908 23.1413 6.018C24.086 5.79138 25.039 5.58994 25.9921 5.46404C26.3767 5.41368 26.8365 5.49762 27.1793 5.68227C27.7394 5.96764 28.2912 6.32855 28.751 6.75661C30.4816 8.38491 32.1703 10.0468 33.8758 11.7003C33.9761 11.801 34.0932 11.8849 34.3022 12.0612C34.3022 11.7926 34.3189 11.6499 34.3022 11.524C34.2353 11.1127 34.1601 10.7015 34.0848 10.2902C33.834 8.98083 33.5916 7.67148 32.9395 6.47963C32.8809 6.37052 32.9227 6.06836 33.0063 6.02639C33.3157 5.86692 33.6584 5.69066 33.9929 5.67387C34.461 5.6487 34.9292 5.78299 35.3974 5.81656C35.7485 5.84174 36.0578 5.85853 36.2 6.2614C36.2418 6.37052 36.3588 6.47124 36.4591 6.5216C37.0025 6.765 37.5543 7.00841 38.1563 7.29378ZM7.5661 24.2734C9.42208 25.1127 11.3951 25.5324 13.3681 25.9437C15.3746 26.3633 17.3978 26.6487 19.446 26.6823C21.5026 26.7158 23.5593 26.6235 25.6159 26.5228C27.6558 26.4221 29.6539 26.0024 31.6269 25.4736C34.3189 24.7602 37.0109 23.8286 37.3035 23.4509C35.9993 23.8118 34.7035 24.1307 33.4327 24.5252C32.371 24.8609 30.0886 25.3142 29.3613 25.205C31.5517 24.458 33.6417 23.753 35.5144 22.5444C34.1099 23.0312 32.7137 23.5516 31.3092 24.0468C29.8963 24.5504 28.4333 24.8609 26.9702 25.1547C26.9452 25.0792 26.9201 25.0036 26.9034 24.9281C27.8063 24.5839 28.7008 24.2314 29.6121 23.8957C30.3394 23.6271 31.9697 22.729 32.1954 22.4101C24.1863 26.1031 15.9849 26.6067 7.5661 24.2734Z" />
</g>
<defs>
<clipPath id="clip0">
<rect width="44" height="28" />
</clipPath>
</defs>
</svg>
