<svg width="27" height="31" viewBox="0 0 27 31" fill="none" xmlns="http://www.w3.org/2000/svg">
<g >
<path d="M27 19.0062C26.8074 19.3872 26.6422 19.7399 26.4633 20.0786C24.8395 23.1828 23.2156 26.2729 21.5918 29.3771C21.3716 29.7863 21.1652 30.2096 20.9587 30.6188C20.8349 30.8869 20.656 31.0139 20.3395 31.0139C15.7844 30.9998 11.2294 30.9998 6.67433 31.0139C6.3303 31.0139 6.13764 30.8869 5.98626 30.5906C4.51378 27.7686 3.04131 24.9466 1.55507 22.1245C1.07342 21.2074 0.591764 20.2902 0.110113 19.3731C-0.082548 19.0062 -0.0412636 18.9497 0.357819 18.9639C0.963324 18.9921 1.59635 18.9498 2.18809 19.0909C3.24773 19.3448 3.83947 20.135 4.18351 21.165C4.58259 22.308 5.03672 23.4509 5.44956 24.5938C5.9725 26.033 6.48167 27.4723 6.97709 28.9115C7.15598 29.4336 7.23855 29.5041 7.74773 29.4618C7.95415 29.4477 8.02296 29.363 7.95415 29.1514C7.73397 28.5023 7.52754 27.8532 7.30736 27.2183C6.9358 26.1318 6.55048 25.0453 6.17892 23.9588C5.88993 23.0981 5.6147 22.2374 5.31195 21.3908C4.95415 20.3749 5.39452 19.3589 6.34406 19.0626C7.27984 18.7663 8.2569 19.3872 8.47709 20.4172C8.64222 21.1792 8.76608 21.927 8.90369 22.6889C9.08259 23.6766 9.26149 24.6644 9.45415 25.6662C9.67433 26.8232 9.88076 27.9802 10.1009 29.1373C10.1697 29.4618 10.3349 29.5465 10.7477 29.4759C11.0505 29.4195 10.9679 29.1796 10.9404 28.9962C10.6652 27.176 10.3762 25.3699 10.0872 23.5497C9.94956 22.6466 9.78442 21.7436 9.63305 20.8264C9.53672 20.2197 9.89452 19.4436 10.6239 19.1332C11.3119 18.851 12.0964 19.0485 12.5092 19.6129C12.7844 19.9939 12.8945 20.389 12.9083 20.8546C12.9358 23.5779 12.9908 26.287 13.0321 29.0103C13.0321 29.2784 13.0459 29.49 13.4175 29.4759C13.8716 29.4477 13.8991 29.4477 13.8991 28.9821C13.9404 26.2165 14.023 23.465 14.0092 20.6994C14.0092 19.5847 15.3028 18.597 16.4037 19.1755C17.023 19.5 17.3945 20.262 17.2707 20.9675C17.078 22.054 16.9266 23.1405 16.7615 24.2128C16.5275 25.6097 16.2936 27.0207 16.0597 28.4177C16.0321 28.6152 16.0046 28.8127 15.9908 29.0244C15.9771 29.2078 15.8945 29.4195 16.1835 29.4759C16.5826 29.5465 16.7615 29.4759 16.8165 29.1796C16.9679 28.3612 17.1193 27.5569 17.2707 26.7385C17.5597 25.1864 17.8624 23.6343 18.1514 22.0822C18.2752 21.419 18.3578 20.7417 18.5505 20.1068C18.8395 19.2178 19.8303 18.7663 20.656 19.0909C21.5367 19.4436 21.9496 20.4172 21.633 21.3203C21 23.1546 20.3808 25.003 19.7615 26.8373C19.5275 27.5287 19.2798 28.2342 19.0459 28.9256C18.9908 29.0808 18.8257 29.2925 19.0459 29.4336C19.2798 29.5747 19.7477 29.4336 19.8303 29.1937C20.078 28.5588 20.2982 27.9238 20.5321 27.2747C21.0963 25.7085 21.6743 24.1423 22.2386 22.5902C22.445 22.0117 22.6652 21.4331 22.8716 20.8687C23.3119 19.6976 24.2752 19.0062 25.4863 18.978C25.8853 18.9639 26.2707 18.978 26.6697 18.978C26.7798 18.9356 26.8624 18.9639 27 19.0062Z"/>
<path d="M1.27985 14.6181C1.38994 13.9126 1.62388 13.3623 1.9404 12.8402C2.62847 11.7114 3.63306 10.9072 4.73397 10.2581C5.91746 9.55258 7.12847 8.91762 8.31196 8.22622C9.15141 7.73237 9.93581 7.16796 10.4863 6.32135C11.0505 5.43241 11.1881 4.45881 10.9542 3.42877C10.734 2.42695 10.3211 1.55212 9.83948 0.691404C9.64682 0.35276 9.66058 0.282209 10.0459 0.197548C11.078 -0.0141038 12.1239 -0.0564342 13.1698 0.0846673C14.1331 0.211659 15.0551 0.465641 15.922 0.903056C17.4358 1.665 18.3853 2.9067 19.0046 4.50114C19.4587 5.65818 19.4587 6.8011 19.0597 7.94402C18.6331 9.1716 17.711 9.91944 16.5964 10.4556C15.4817 10.9777 14.312 11.274 13.1147 11.4857C11.656 11.7397 10.1835 11.9795 8.7248 12.2476C7.34865 12.5016 5.97251 12.7697 4.62388 13.1083C3.52297 13.3764 2.47709 13.7856 1.54131 14.477C1.50003 14.5194 1.41746 14.5476 1.27985 14.6181Z"/>
<path d="M25.7752 16.4949C25.7752 16.5231 25.7752 16.5372 25.7752 16.5654C25.7615 17.3274 25.7615 17.285 25.0321 17.3556C24.4954 17.412 23.945 17.5108 23.4358 17.7083C22.7752 17.9482 22.1697 17.9764 21.5229 17.6801C20.6284 17.2709 19.7202 17.2568 18.8257 17.666C18.1789 17.9623 17.5321 17.9341 16.8853 17.6519C16.211 17.3697 15.5092 17.285 14.7798 17.4826C14.4771 17.5672 14.2156 17.6942 13.9266 17.7789C13.4037 17.9482 12.9358 17.8494 12.4541 17.6519C11.5872 17.2709 10.7339 17.285 9.88073 17.666C9.24771 17.9482 8.62844 17.9482 8.00917 17.666C7.10092 17.2568 6.1789 17.2568 5.27064 17.6801C4.65138 17.9623 4.0734 17.9482 3.42661 17.7224C2.84862 17.5249 2.24312 17.4402 1.63762 17.3415C1.26606 17.285 1.16973 17.2004 1.29358 16.8194C1.55505 16.0292 2.14679 15.5918 2.84862 15.2814C3.92202 14.7875 5.07798 14.5759 6.24771 14.4489C7.36239 14.336 8.4633 14.209 9.57798 14.0961C10.445 14.0115 11.3257 13.955 12.1927 13.8422C14.4771 13.5458 16.7477 13.1931 18.7982 12.0502C19.5826 11.6128 20.2706 11.0483 20.8349 10.3287C20.9312 10.2017 21.0138 10.0465 21.2202 10.2017C21.9358 10.6956 22.6927 11.1189 23.3945 11.641C25.0321 12.8827 25.7615 14.4207 25.7752 16.4949Z"/>
</g>
<defs>
<clipPath id="clip0">
<rect width="27" height="31"/>
</clipPath>
</defs>
</svg>
