<svg width="77" height="57" viewBox="0 0 77 57" fill="none" xmlns="http://www.w3.org/2000/svg">
<g>
<path d="M19.7823 11.7224C19.1893 11.7224 19.0815 11.5074 19.1085 10.9965C19.1354 10.2974 19.6206 10.0555 20.0787 9.75971C20.3482 9.59839 20.5639 9.67905 20.6986 9.92103C20.9412 10.2974 21.049 10.7007 20.8064 11.1578C20.5908 11.6418 20.1057 11.6149 19.7823 11.7224ZM19.9979 10.2437C19.8362 10.405 19.7284 10.5394 19.5936 10.7007C19.8092 10.7007 19.944 10.7007 20.0787 10.7007C20.0787 10.5663 20.0518 10.4319 19.9979 10.2437Z" />
<path d="M1.80572 17.5034C1.88657 17.8798 1.96742 18.2562 2.04828 18.6327C2.37169 20.7029 2.80292 22.7195 3.61146 24.6553C3.74621 25.0048 3.85402 25.3813 3.93487 25.7577C3.96182 25.8652 3.88097 25.9728 3.85402 26.0803C3.74621 26.0265 3.58451 25.9728 3.5306 25.8921C3.28804 25.435 3.09938 24.9511 2.88377 24.494C1.88657 22.3699 1.59011 20.1652 1.64401 17.8798C1.64401 17.7992 1.64401 17.7185 1.67096 17.611C1.67096 17.5841 1.69791 17.5572 1.72486 17.5034C1.72486 17.5034 1.77876 17.5034 1.80572 17.5034Z" />
<path d="M4.90519 29.0381C4.68958 28.7424 4.47397 28.4735 4.28531 28.1777C4.15055 27.9627 4.04274 27.7207 3.96189 27.4787C3.93494 27.398 4.01579 27.2636 4.09665 27.1829C4.1236 27.156 4.31226 27.2098 4.33921 27.2636C4.58177 27.7744 4.82433 28.2853 5.03995 28.7961C5.0669 28.8499 5.03995 28.9037 5.03995 28.9843C4.98604 28.9843 4.93214 29.0112 4.90519 29.0381Z" />
<path d="M7.19596 26.5105C7.14206 26.4568 7.03425 26.403 7.0073 26.3492C6.89949 25.9997 6.76474 25.6502 6.68388 25.3006C6.65693 25.22 6.79169 25.1124 6.84559 25.0049C6.92645 25.0855 7.03425 25.1393 7.03425 25.22C7.14206 25.6233 7.22291 26.0535 7.30376 26.4568C7.27681 26.4837 7.22291 26.4837 7.19596 26.5105Z" />
<path d="M6.52223 27.3168C6.22576 27.1017 5.95625 26.8597 5.90234 26.4564C5.90234 26.3757 5.95625 26.2682 6.01015 26.1606C6.091 26.2144 6.22576 26.2413 6.25271 26.322C6.41442 26.6177 6.52223 26.9404 6.65698 27.2361C6.60308 27.263 6.57613 27.2899 6.52223 27.3168Z" />
<path d="M6.76478 30.7588C6.27965 30.7588 6.11795 30.5168 6.03709 30.221C6.01014 30.1673 6.09099 30.0597 6.1449 30.0059C6.1988 29.9791 6.33356 29.9791 6.36051 30.0328C6.49526 30.2479 6.60307 30.463 6.76478 30.7588Z" />
<path d="M6.84567 28.7422C6.89957 28.9035 6.95347 29.0917 7.00738 29.2531C6.95347 29.28 6.92652 29.3068 6.87262 29.3337C6.79177 29.2262 6.68396 29.1186 6.63006 29.0111C6.60311 28.9304 6.68396 28.8229 6.71091 28.7153C6.76481 28.7153 6.79177 28.7153 6.84567 28.7422Z" />
<path d="M45.5477 11.2387C45.6825 11.2118 45.7903 11.158 45.9251 11.1311C46.8145 10.9698 47.6769 10.8085 48.5663 10.6472C48.8089 10.5934 49.0514 10.4858 49.294 10.459C49.4018 10.4321 49.5365 10.5127 49.6713 10.5665C49.5905 10.674 49.5365 10.8354 49.4287 10.8623C48.7011 11.1042 47.9734 11.3462 47.2187 11.5075C46.8145 11.5882 46.3563 11.5613 45.9251 11.5344C45.7903 11.5344 45.6825 11.4269 45.5477 11.3731C45.5208 11.3193 45.5208 11.2656 45.5477 11.2387Z" />
<path d="M48.0812 9.67935C48.3238 9.62558 48.5663 9.57181 48.782 9.54492C48.8359 9.54492 48.9706 9.67935 48.9706 9.76001C48.9706 9.84067 48.8628 9.97511 48.782 9.97511C48.5394 10.002 48.2968 9.94822 48.0543 9.94822C48.0812 9.84067 48.0812 9.76001 48.0812 9.67935Z" />
<path d="M71.3941 14.3845C71.2324 14.4652 71.0437 14.5459 70.8551 14.6534C71.1515 14.6803 71.448 14.7072 71.6906 14.761C71.8792 14.8147 72.0679 14.9223 72.2026 15.0567C72.58 15.4331 72.9303 15.5676 73.4155 15.3256C73.658 15.218 73.7658 15.2449 73.9006 15.4331C73.9545 15.5138 74.0353 15.5407 74.1162 15.5945C74.7361 15.9978 75.3829 16.3473 75.9489 16.7775C76.8113 17.4228 77.2156 19.0628 76.8652 20.0845C76.7574 20.3534 76.6496 20.6223 76.5957 20.8912C76.5688 21.0525 76.5957 21.2676 76.6766 21.4289C76.973 21.9128 76.9461 22.3699 76.7035 22.8539C76.3262 23.5529 75.895 24.252 75.5177 24.9511C75.329 25.3006 75.1673 25.677 75.0056 26.0534C74.4935 27.2633 73.9545 28.5001 73.4963 29.7369C72.553 32.1836 71.1246 34.3077 69.5075 36.3242C68.9415 37.0232 68.3486 37.7223 67.6748 38.26C67.0549 38.744 66.3003 39.0666 65.5726 39.3355C64.7102 39.6581 63.7938 39.7926 62.9583 40.1152C62.042 40.4916 61.1526 40.9756 60.2632 41.4327C59.4547 41.836 58.6731 42.2393 57.7298 42.2662C57.3794 42.2662 57.029 42.3737 56.6787 42.3468C56.4631 42.3468 56.2205 42.2124 55.924 42.1048C55.6545 42.3468 55.3041 42.293 54.9538 41.9973C54.8999 41.9704 54.819 41.9973 54.7382 41.9704C54.5226 41.8897 54.253 41.8897 54.1452 41.7284C53.8757 41.352 53.5254 41.352 53.1211 41.352C52.1778 41.3251 51.2614 41.3251 50.3181 41.2445C49.7522 41.1907 49.1862 41.0831 48.6472 40.7605C48.2159 40.4916 47.65 40.411 47.1648 40.2228C46.5719 40.0077 45.952 39.8463 45.3861 39.5775C44.3349 39.0935 43.3378 38.502 42.1788 38.2062C41.559 38.0449 41.1547 37.561 40.8313 37.0232C40.6426 36.7006 39.9958 36.2973 39.6185 36.2435C39.322 36.1897 39.0255 36.0284 38.6752 35.894C37.9205 36.2973 30.6167 37.6416 30.2933 37.3996C30.455 37.0232 30.8323 37.0501 31.1288 36.9695C32.5842 36.6199 34.0126 36.2704 35.468 35.9746C36.4113 35.7864 37.3815 35.6789 38.2979 35.5445C37.8936 35.0336 37.4354 34.8723 36.8155 35.168C36.0609 35.5445 35.2524 35.5176 34.4708 35.6789C33.8239 35.8133 33.204 36.0015 32.5842 36.1628C32.5033 36.1897 32.3955 36.2166 32.3416 36.2166C31.6948 36.0553 31.1018 36.3511 30.5359 36.5124C29.7004 36.7544 28.8918 37.0232 27.9755 36.8081C27.6251 36.7275 27.2478 36.7275 26.8705 36.6737C26.8166 36.6737 26.7627 36.6737 26.7088 36.6737C25.9272 36.7812 25.1725 36.9157 24.391 36.9963C23.5824 37.1039 22.8008 37.2114 21.9923 37.2383C20.6178 37.2652 19.2702 37.2652 17.8957 37.2114C17.4375 37.1845 16.9793 36.9963 16.5212 36.8888C16.3325 36.835 16.1708 36.8081 15.9821 36.7812C14.6346 36.7275 13.4218 36.2973 12.2359 35.652C12.1281 35.5982 12.0472 35.5176 11.9394 35.5176C11.5082 35.5445 11.1578 35.3562 10.8614 35.0874C10.4571 34.711 9.97199 34.5765 9.48687 34.4152C8.89394 34.2001 8.40881 33.9044 8.03149 33.3935C7.92369 33.2322 7.65417 33.1784 7.46552 33.0978C6.98039 32.8827 6.44136 32.7482 6.01014 32.4525C4.90514 31.7265 3.93489 30.8662 3.0994 29.8176C2.21 28.6883 1.75183 27.4246 1.50927 26.0265C1.32061 24.8704 0.94329 23.7412 0.700728 22.585C0.485117 21.5902 0.323409 20.5954 0.188653 19.5737C0.0538959 18.7402 -0.0808608 17.9067 -0.107812 17.0732C-0.134763 16.3204 -0.0539095 15.5407 0.0808473 14.7879C0.188653 14.1157 0.485117 13.4973 0.592923 12.8251C0.673777 12.2605 1.13195 12.0185 1.40146 11.6152C1.94049 10.7817 2.85684 10.4591 3.71928 10.0827C3.93489 9.97511 4.23135 10.0558 4.50087 10.0558C4.47392 9.92134 4.44696 9.76002 4.42001 9.5987C4.31221 9.62559 4.23135 9.62559 4.12355 9.62559C4.0966 9.5987 4.06965 9.57181 4.04269 9.54493C4.2044 9.38361 4.33916 9.1954 4.52782 9.11474C5.28246 8.7921 6.01014 8.41568 6.79173 8.20059C7.81588 7.90483 8.86698 7.74351 9.91809 7.50153C11.2657 7.17889 12.5863 6.69493 13.826 6.10342C14.0686 5.99587 14.3112 5.91521 14.5537 5.83455C14.9041 5.75389 15.1197 5.91521 15.2275 6.21096C15.497 6.29162 15.7396 6.3454 15.9552 6.42606C16.2517 6.26474 16.602 6.02276 16.9524 5.86143C17.0602 5.80766 17.2758 5.91521 17.4106 5.9421C17.3567 6.07653 17.3297 6.26474 17.2219 6.37228C16.7098 6.85625 16.1438 7.28643 15.6587 7.79728C15.2814 8.20059 15.0388 8.71144 14.7154 9.11474C14.1225 9.84068 13.5296 10.5397 12.8827 11.2119C12.6941 11.427 12.4246 11.5614 12.209 11.7228C12.0472 11.8572 11.8855 11.9916 11.6699 12.1798C12.182 12.3412 12.5593 12.5294 12.9905 12.61C14.4729 12.8789 15.9552 13.1209 17.4106 13.3897C18.0304 13.4973 18.6234 13.6048 19.2163 13.3897C19.3511 13.336 19.5128 13.2822 19.5936 13.1746C21.2916 11.5077 22.9895 9.84068 24.6874 8.1737C24.7683 8.09304 24.8491 7.98549 24.9569 7.87794C22.9086 7.63596 20.9142 7.25955 19.0546 6.3454C19.2702 5.99587 19.5397 6.10342 19.7553 6.1303C20.1866 6.18408 20.6178 6.29162 21.022 6.37228C21.1837 6.39917 21.3455 6.39917 21.5341 6.42606C20.8603 6.1303 20.1057 6.15719 19.5128 5.75389C19.9979 5.59257 20.483 5.70011 20.9412 5.80766C21.9653 6.02276 22.9895 6.23785 24.0136 6.39917C25.1186 6.58738 26.008 6.18408 26.8435 5.29681C23.7441 4.94728 20.7525 5.29681 17.7879 5.91521C17.7879 5.86143 17.7609 5.80766 17.7609 5.75389C18.1382 5.64634 18.4886 5.48502 18.8659 5.43125C19.9979 5.21615 21.1029 4.97417 22.2348 4.89351C23.4477 4.78596 24.6874 4.81285 25.9272 4.81285C26.3045 4.81285 26.6549 4.9204 27.0322 4.94728C27.3287 4.97417 27.4904 5.16238 27.5173 5.48502C27.9216 5.48502 28.4876 5.02794 28.6223 5.91521C28.9996 4.94728 29.7273 4.97417 30.482 5.02794C31.3983 5.08172 32.2877 5.13549 33.204 5.18926C33.3388 5.18926 33.4736 5.18926 33.6083 5.21615C33.6083 5.26993 33.6353 5.29681 33.6353 5.35059C33.5005 5.40436 33.3658 5.45813 33.231 5.48502C32.3686 5.48502 31.5061 5.48502 30.6706 5.48502C30.5089 5.48502 30.3472 5.48502 30.1855 5.48502C29.7004 5.51191 29.2961 5.61945 29.0535 6.15719C28.811 6.66804 28.4067 7.12511 28.0563 7.66285C28.3528 7.71662 28.5954 7.7704 28.8649 7.7704C29.8082 7.74351 30.7515 7.71662 31.6948 7.68974C31.8834 7.68974 32.0451 7.71662 32.2338 7.74351C32.2607 7.7704 32.2607 7.79728 32.2877 7.85106C33.7161 6.18408 35.1445 4.49021 36.573 2.82323C37.1659 2.15106 37.7588 1.50577 38.6213 1.12936C39.349 0.806718 40.0766 0.430302 40.8313 0.188321C42.2867 -0.241867 43.769 -0.0267731 45.1704 0.510963C45.5747 0.672284 46.0059 0.860491 46.4102 1.0487C46.8953 1.26379 47.3265 1.55955 47.623 2.04351C47.7578 2.2586 47.8925 2.41993 48.2159 2.33926C48.3777 2.31238 48.5933 2.50059 48.7819 2.63502C49.1323 2.877 49.4557 3.2803 49.833 3.33408C50.3721 3.41474 50.5877 3.76427 50.8841 4.11379C51.7735 5.21615 52.7438 6.23785 53.8488 7.12511C54.3339 7.50153 54.7382 7.93172 54.7921 8.60389C54.819 9.1954 55.1963 9.46427 55.7893 9.5987C56.3013 9.70625 56.8404 9.84068 57.3525 10.0289C58.9156 10.5935 60.4788 11.1581 62.042 11.7228C62.7697 11.9916 63.4974 12.2874 64.225 12.5562C64.3059 12.5831 64.4407 12.5562 64.5215 12.61C64.6293 12.6638 64.7641 12.7713 64.791 12.852C64.8988 13.2822 65.1953 13.5511 65.5726 13.3629C66.1655 13.094 66.6776 13.336 67.2166 13.3897C68.0521 13.4973 68.8876 13.6586 69.7231 13.8199C70.2621 13.9275 70.8012 14.0619 71.3402 14.1695C71.3941 14.277 71.3941 14.3308 71.3941 14.3845ZM29.0266 30.5704C29.0266 30.4629 29.0266 30.3822 28.9996 30.2746C28.7032 29.1992 28.3798 28.0968 28.0563 27.0213C28.245 28.2581 28.5684 29.4412 29.0266 30.5704C29.1344 31.6728 29.7273 33.2591 30.1316 33.3935C30.0507 33.2053 29.9699 33.044 29.916 32.8827C29.6195 32.1298 29.3231 31.3501 29.0266 30.5704ZM45.6286 4.62464C45.6556 4.62464 45.6825 4.62464 45.7095 4.59776C46.3563 4.00625 47.0301 3.38785 47.6769 2.79634C47.7308 2.74257 47.7039 2.55436 47.65 2.4737C47.3535 1.96285 46.9492 1.58643 46.4372 1.31757C45.5747 0.887378 44.6853 0.510963 43.742 0.403416C42.9874 0.322755 42.1788 0.403416 41.4242 0.53785C40.427 0.726057 39.4568 1.0487 38.8638 1.90908C38.8369 2.15106 38.8099 2.36615 38.756 2.66191C38.8099 2.71568 38.9177 2.85011 39.0255 2.95766C39.1064 3.03832 39.2142 3.0921 39.2951 3.14587C40.4809 3.97936 41.8015 4.57087 43.1491 5.00106C43.9846 5.29681 44.874 5.26993 45.6286 4.62464ZM55.7084 25.1393C56.0857 24.8435 56.5439 24.6015 56.6248 24.0638C55.385 23.9025 54.2261 23.768 53.0402 23.5798C52.5012 23.4992 51.9622 23.311 51.3962 23.2303C50.3721 23.069 49.3479 22.827 48.4585 22.2624C48.1351 22.0473 47.7578 21.886 47.4074 21.6978C47.4074 21.6709 47.4344 21.644 47.4344 21.644C47.5152 21.644 47.5961 21.6709 47.7308 21.6709C47.1109 21.2676 46.545 20.918 46.0059 20.5416C45.7095 20.3534 45.5478 20.0577 45.5478 19.6812C45.5478 19.5737 45.5208 19.4393 45.44 19.4124C45.3591 19.3855 45.2243 19.4393 45.1435 19.493C45.0626 19.5468 44.9818 19.6275 44.874 19.735C45.0896 19.6812 45.1974 19.6544 45.3321 19.6275C45.3591 20.1114 45.0626 20.2728 44.4428 20.1652C44.4428 20.2459 44.4428 20.3265 44.4428 20.4341C44.4158 20.8643 43.8768 21.4289 43.4456 21.4558C43.2569 21.4558 43.0682 21.3482 42.9065 21.2676C42.7987 21.1869 42.7179 21.0525 42.6101 20.918C42.5831 20.9449 42.5292 20.9718 42.5023 20.9718C42.6909 21.2945 42.8796 21.644 43.0952 22.0204C42.8257 22.1548 42.5292 22.2893 42.1519 22.4775C42.3136 22.4775 42.4214 22.5044 42.5023 22.4506C43.3108 21.9666 44.0924 21.5095 44.874 20.9987C45.4669 20.5954 45.5478 20.5954 45.979 21.2138C44.9548 21.7246 43.9307 22.2355 42.9065 22.7195C42.6101 22.8539 42.6101 22.9614 42.8257 23.1765C43.2299 23.6067 43.6073 24.0638 44.0385 24.494C44.1463 24.6015 44.3619 24.6553 44.5236 24.6553C44.9548 24.6553 45.3591 24.6015 45.7903 24.6284C46.8684 24.6553 47.9464 24.6284 48.9975 24.2789C49.0784 24.252 49.1592 24.252 49.294 24.2251C49.2131 24.3327 49.1862 24.4133 49.1323 24.4133C47.7578 25.0048 46.3024 25.0586 44.7931 25.1662C44.9548 25.3812 45.1165 25.5963 45.2782 25.7845C45.2243 25.8383 45.1974 25.8921 45.1435 25.919C44.7931 25.677 44.4158 25.4619 44.0385 25.2199C43.742 25.9996 44.1193 26.8869 43.6612 27.6666C43.5803 27.5591 43.5264 27.4784 43.4995 27.3709C43.4186 27.0751 43.3647 26.7794 43.2569 26.4836C43.1221 26.1072 42.9604 25.7308 42.8257 25.3544C42.664 24.8973 42.5023 24.4133 42.1519 24.0369C41.9093 23.768 41.6937 23.4454 41.4781 23.1496C41.1816 22.6926 40.8852 22.2086 40.5348 21.6709C40.454 22.4237 40.3731 23.0959 40.2923 23.7412C40.2383 24.0907 40.1575 24.4402 40.0766 24.7897C40.0497 24.8704 39.9149 24.9242 39.8341 24.9779C39.7802 24.8973 39.6993 24.8166 39.6993 24.736C39.6454 24.4402 39.5915 24.1445 39.5646 23.8487C39.4568 23.069 39.4029 22.2893 39.2681 21.5364C39.1333 20.8105 38.9177 20.1114 38.756 19.4124C38.6213 18.8478 38.4596 18.2562 38.2979 17.6378C38.2439 17.7185 38.19 17.7454 38.19 17.7723C37.9475 18.794 37.7319 19.7888 37.4893 20.8105C37.4354 20.9718 37.3276 21.1331 37.2467 21.2945C37.1928 21.2945 37.1659 21.2676 37.112 21.2676C37.085 21.0525 37.0581 20.8643 37.0581 20.6492C37.085 20.2728 37.1928 19.8963 37.2198 19.5199C37.3007 18.6327 37.3815 17.7185 37.4624 16.8312C37.5163 16.3204 37.4893 15.7827 37.5971 15.2718C37.651 15.0029 37.651 14.8147 37.4624 14.5996C37.112 15.4869 37.112 16.4817 36.546 17.3152C36.4382 17.1539 36.3843 17.0195 36.3843 16.8581C36.4652 15.9709 36.5191 15.1105 36.6269 14.2232C36.7077 13.7393 36.5999 13.3629 36.3304 12.9327C36.2495 13.1478 36.1687 13.336 36.1148 13.5242C35.7914 14.7341 35.468 15.9709 35.1176 17.1808C35.0906 17.2883 34.9828 17.369 34.9289 17.4765C34.902 17.4496 34.8481 17.4496 34.8211 17.4228C34.875 16.9388 34.9289 16.4817 35.0098 15.9978C35.1445 15.1374 35.2793 14.277 35.441 13.3897C35.5488 12.7445 35.6566 12.1261 35.7375 11.4808C35.7914 11.1581 35.8722 10.8086 35.8453 10.486C35.8183 10.0827 35.7375 9.65247 35.6566 9.24917C35.441 9.94823 35.2254 10.6742 34.9559 11.3732C34.902 11.5345 34.7403 11.6421 34.6325 11.7765C34.6055 11.6152 34.5247 11.4539 34.5786 11.3195C34.7403 10.7279 34.9559 10.1633 35.1176 9.5987C35.2523 9.1954 35.3332 8.76521 35.468 8.36191C35.441 8.36191 35.3871 8.33502 35.3602 8.33502C35.2793 8.44257 35.1984 8.55011 35.1445 8.68455C34.902 9.1954 34.6864 9.70625 34.4438 10.2171C33.9317 11.2926 33.4466 12.368 33.3388 13.5779C33.3388 13.7124 33.1501 13.8468 33.0693 13.9812C32.9884 13.8468 32.9076 13.7124 32.8267 13.5779C32.7998 13.5511 32.7998 13.4973 32.7998 13.4704C32.5033 13.5779 32.4764 13.4435 32.5572 13.2284C32.7459 12.6638 32.9076 12.1261 33.0962 11.5614C33.2849 11.0506 33.4736 10.5397 33.6353 10.0289C33.5814 10.0289 33.5544 10.002 33.5544 10.0289C32.3955 11.1044 31.8026 12.4756 31.4253 13.9544C31.2366 14.6265 31.1288 15.3256 30.9671 16.0246C30.9401 16.1053 30.8593 16.186 30.8054 16.2935C30.5359 14.6265 30.8054 13.0671 31.56 11.6421C32.1799 10.486 33.0154 9.43738 33.7431 8.33502C34.0395 7.87794 34.336 7.44776 34.6325 6.99068C34.4977 7.01757 34.4438 7.07134 34.3899 7.12511C33.5005 8.1737 32.6111 9.1954 31.7756 10.2709C31.4792 10.6473 31.1557 11.0775 30.994 11.5345C30.7515 12.3412 30.6167 13.1746 30.455 14.0081C30.2933 14.9223 30.1585 15.8095 30.0507 16.7237C29.916 17.9605 30.2663 19.1435 30.5089 20.3265C30.5628 20.6223 30.7245 20.8912 30.8054 21.16C30.8593 19.3317 31.1018 17.5572 31.7487 15.8633C31.2905 18.794 31.3983 21.6709 32.0721 24.6015C32.099 24.5209 32.126 24.5209 32.126 24.494C32.1799 22.8808 32.2068 21.2676 32.2607 19.6544C32.2877 18.9553 32.3955 18.2562 32.4764 17.5572C32.5033 17.4228 32.5842 17.2883 32.6381 17.1539C32.665 17.1539 32.692 17.1808 32.7459 17.1808C32.7459 17.4228 32.7459 17.6378 32.7459 17.8798C32.7459 18.5789 32.692 19.2779 32.7189 19.977C32.7998 21.9935 32.8806 24.01 32.9884 26.0534C33.0154 26.4836 33.1771 26.9138 33.2849 27.3709C33.3927 26.1341 33.4736 24.9779 33.6083 23.8218C33.7431 22.6657 33.8778 21.5364 34.2551 20.4072C34.336 20.4879 34.336 20.5685 34.336 20.6492C34.2551 21.4289 34.1743 22.2086 34.1204 22.9883C34.0665 24.0907 33.9856 25.1662 34.0395 26.2685C34.0934 27.1558 34.2821 28.0162 34.4977 28.8765C34.7403 29.8176 35.1176 30.7048 35.3063 31.6459C35.468 32.4794 35.98 32.9633 36.5191 33.4204C36.3574 32.6407 36.1687 31.861 36.0878 31.0812C35.98 30.2746 35.9531 29.468 35.9531 28.6614C35.9531 27.8548 36.0878 27.0213 36.1417 26.2147C36.1956 25.5426 36.6538 24.1176 36.9503 23.9562C36.8964 24.3864 36.8155 24.736 36.7886 25.0855C36.7347 26.2954 36.7077 27.5053 36.6808 28.7421C36.6808 29.1723 36.7347 29.6025 36.8155 30.0327C37.085 31.2963 37.3815 32.5331 37.678 33.7968C37.7319 34.0388 37.8936 34.3077 38.0553 34.4421C38.2709 34.6303 38.5674 34.6841 38.7021 34.7647C38.4596 33.985 38.1631 33.1246 37.9744 32.2643C37.8127 31.5652 37.7588 30.8393 37.7049 30.1402C37.678 29.9789 37.8127 29.7907 37.8666 29.6025C38.217 30.7048 38.5135 31.7265 38.8638 32.7213C39.2142 33.7162 39.6454 34.711 40.2653 35.5982C40.2653 35.41 40.2114 35.2487 40.1575 35.0874C39.9688 34.0926 39.7802 33.0709 39.5915 32.0761C39.349 30.7317 39.349 29.3605 39.5107 27.9893C39.5376 27.7742 39.6724 27.5322 39.7263 27.3171C39.7802 27.344 39.8341 27.344 39.888 27.3709C39.888 27.5591 39.888 27.7473 39.888 27.9086C39.888 28.3388 39.861 28.769 39.9419 29.1723C40.1036 30.0595 40.2923 30.9199 40.5079 31.7803C40.6696 32.4794 40.8313 33.1784 41.0199 33.8775C41.1547 34.3345 41.3434 34.7916 41.4512 35.2487C41.6937 36.1897 41.9632 37.1039 42.9604 37.561C43.0682 37.6147 43.176 37.7223 43.2839 37.8029C43.6073 38.018 43.9307 38.2062 44.2541 38.4213C44.308 38.3945 44.3349 38.3676 44.3889 38.3407C44.3349 37.8298 44.281 37.319 44.2002 36.8081C44.0924 36.0822 44.0115 35.3562 43.8498 34.6572C43.5534 33.286 43.3647 31.9147 43.4456 30.5166C43.4456 30.3553 43.5264 30.2209 43.5803 30.0595C43.8768 31.2695 44.0924 32.4794 44.3619 33.6624C44.6045 34.8454 44.6045 36.1091 45.2243 37.2921C45.2243 36.9695 45.2513 36.7006 45.2243 36.4586C45.0357 35.3294 44.7931 34.227 44.6314 33.0978C44.4967 32.318 44.4428 31.5114 44.3619 30.7317C44.335 30.5973 44.4158 30.436 44.4697 30.2746C44.5236 30.2746 44.5775 30.2746 44.6314 30.2746C45.1435 32.3449 45.6825 34.3883 46.1946 36.4586C46.1676 36.0015 46.0868 35.5713 46.0059 35.1412C45.8712 34.3345 45.7364 33.5548 45.6825 32.7482C45.6017 31.5652 45.6017 30.4091 45.5747 29.2261C45.5747 29.1454 45.6286 29.0378 45.6825 28.9572C45.7903 28.769 45.9251 28.769 46.0059 28.9572C46.0868 29.1723 46.1676 29.3874 46.1946 29.6294C46.2485 30.4091 46.3024 31.2157 46.3563 31.9954C46.3833 32.318 46.4102 32.6676 46.4641 32.9902C46.6528 34.1195 46.8414 35.2487 47.0301 36.3511C47.1379 36.9695 47.2726 37.6147 47.3805 38.2331C47.4344 38.1525 47.4613 38.0718 47.4344 37.9912C47.3805 37.3728 47.3535 36.7812 47.2996 36.1628C47.2457 35.5713 47.1648 34.9798 47.1109 34.3883C47.057 33.7162 46.9762 33.0709 46.9492 32.3987C46.9492 32.2105 47.0301 32.0223 47.084 31.8341C47.1379 31.8341 47.2187 31.8341 47.2726 31.8341C47.3265 32.1298 47.4074 32.3987 47.4613 32.6945C47.5691 33.3935 47.4613 34.1463 47.8117 34.7916C47.8386 34.5228 47.8656 34.227 47.9195 33.9581C47.9195 33.9044 48.0273 33.8506 48.0812 33.7968C48.1351 33.8506 48.189 33.9312 48.2159 33.985C48.3237 35.0874 48.4316 36.1629 48.5663 37.2652C48.6472 37.9374 48.7819 38.6095 48.8897 39.3086C48.9167 39.3086 48.9436 39.3086 48.9975 39.3086C48.9167 37.561 48.8628 35.8133 48.7819 34.0657C48.8358 34.0657 48.8897 34.0388 48.9436 34.0388C49.1053 34.8454 49.2401 35.652 49.4018 36.4855C49.4827 36.136 49.5096 35.7864 49.5096 35.4369C49.5366 34.7916 49.5366 34.1463 49.5635 33.5011C49.5635 33.286 49.5905 33.044 49.9408 32.9902C49.9947 33.1784 50.0486 33.3666 50.0486 33.5279C50.1025 34.2808 50.1564 35.0605 50.1834 35.8133C50.1834 37.0501 50.5068 38.2062 51.0189 39.3086C51.0728 38.9053 51.1267 38.502 51.1267 38.0987C51.1267 36.4317 51.1267 34.7379 51.1267 33.0709C51.1267 32.8558 51.2075 32.6407 51.2345 32.4256C51.2884 32.4256 51.3423 32.4256 51.3962 32.4256C51.6657 32.9095 51.531 33.5011 51.5849 34.0119C51.6388 34.5765 51.6927 35.1143 51.7735 35.6789C51.8005 35.3562 51.7735 35.0067 51.8274 34.6841C51.9083 33.8775 51.9352 33.8775 52.1239 33.743C52.2586 35.3562 52.3934 36.9426 52.5282 38.502C52.609 38.3407 52.6629 38.1794 52.6629 38.018C52.6899 37.0232 52.6899 36.0553 52.7168 35.0605C52.7168 33.3666 52.636 31.6996 52.0969 30.0595C52.0161 29.8176 51.9352 29.6562 51.6118 29.6562C51.6118 30.0327 51.6118 30.3822 51.6118 30.7048C51.6118 31.0544 51.6118 31.4308 51.2614 31.6996C51.2075 31.619 51.1267 31.5652 51.1267 31.4845C50.965 30.8393 50.8302 30.194 50.6955 29.5218C50.6685 29.3605 50.6685 29.1723 50.6955 29.011C50.7494 28.6614 51.0458 28.5001 51.3693 28.5808C51.504 28.6077 51.7196 28.5808 51.8274 28.5001C53.175 27.3171 54.4417 26.2147 55.7084 25.1393ZM40.427 12.0723C40.454 12.0185 40.4809 11.9647 40.5079 11.9379C40.6426 12.0185 40.7774 12.0723 40.9391 12.1529C41.559 12.5025 42.1519 12.9058 42.7987 13.1746C43.769 13.5779 44.7931 13.9275 45.8173 14.2501C46.5989 14.519 47.3805 14.8147 48.2429 14.7072C48.6202 14.6534 48.9706 14.5728 49.3479 14.5459C49.5096 14.519 49.6713 14.5996 49.8869 14.6265C49.5366 15.2987 49.5096 15.4331 49.7252 15.8095C49.9678 16.2129 50.1025 16.2129 50.3721 15.7827C50.2912 15.7289 50.1834 15.702 50.1295 15.6482C50.0756 15.5945 50.0486 15.4869 50.0217 15.4062C50.1295 15.4062 50.2373 15.3794 50.2912 15.4062C50.399 15.46 50.4799 15.5676 50.5877 15.6751C51.0458 15.1643 51.5579 15.1374 52.2047 15.3794C52.8516 15.6213 53.5523 15.7827 54.2261 15.8364C55.2502 15.944 56.3013 15.9171 57.3255 15.944C57.5681 15.944 57.8106 15.9978 58.0801 15.9978C59.0773 16.0246 60.1015 16.0784 61.0987 16.0784C61.5299 16.0784 61.9611 15.9709 62.3924 15.9171C62.581 15.8902 62.7966 15.9709 62.7158 16.186C62.581 16.5624 62.3654 16.9119 62.1767 17.2614C62.1228 17.2345 62.0959 17.2077 62.042 17.2077C62.1767 16.9119 62.3384 16.6162 62.5271 16.2129C62.2306 16.2397 62.015 16.2397 61.8264 16.2397C61.3682 16.2666 60.91 16.3204 60.4519 16.3204C58.5114 16.2397 56.5709 16.186 54.6573 16.0515C53.8218 15.9978 53.0133 15.8364 52.2047 15.6482C51.5849 15.4869 51.0728 15.46 50.5877 16.0246C50.1295 16.5624 49.4827 16.9119 49.2401 17.611C49.2401 17.6378 49.1592 17.6916 49.1053 17.6916C48.8089 17.7723 48.5394 17.8529 48.5394 18.2562C48.5394 18.31 48.3777 18.3638 48.2698 18.4176C48.162 18.4713 48.0273 18.5251 47.9464 18.6058C47.5691 18.9822 47.1918 19.3855 46.8145 19.7888C47.8925 20.5954 49.4827 21.3482 50.8572 21.7515C50.965 21.7784 51.0728 21.7784 51.1806 21.7515C51.9622 21.5902 52.7707 21.4289 53.5523 21.2676C54.1183 21.1331 54.6843 20.9987 55.2502 20.8374C55.6815 20.7298 56.0857 20.5685 56.517 20.4341C56.517 20.461 56.5439 20.4879 56.5439 20.5416C55.385 21.3482 54.0105 21.6709 52.7168 22.1548C53.3906 22.2624 54.0374 22.343 54.7112 22.3699C55.2772 22.3968 55.8432 22.4237 56.3822 22.3162C57.056 22.2086 57.6759 21.9397 58.3497 21.7784C58.727 21.6709 59.0234 21.5095 59.239 21.16C59.2929 21.0794 59.4008 21.0256 59.5086 20.9718C59.5355 20.9987 59.5355 20.9987 59.5625 21.0256C59.4008 21.2945 59.239 21.5364 59.1043 21.8053C59.1582 21.8053 59.2121 21.8322 59.266 21.8322C59.266 21.9397 59.3469 22.0742 59.2929 22.1279C59.1582 22.2893 58.9965 22.4506 58.8348 22.5581C58.5114 22.7463 58.1879 22.9077 57.8106 23.069C58.4036 23.0959 58.9695 22.8001 59.6433 23.2034C59.4008 23.3379 59.266 23.4185 59.1043 23.4723C58.7539 23.5798 58.3227 23.5798 58.1071 23.7949C57.595 24.2789 57.1907 24.8435 56.7326 25.3812C56.7595 25.4081 56.7865 25.4619 56.7865 25.4888C56.9212 25.5157 57.029 25.5426 57.1638 25.5426C57.595 25.5157 57.8106 25.193 58.0801 24.8973C58.1879 24.7897 58.2957 24.5746 58.3766 24.6015C58.8617 24.6553 58.9695 24.2251 59.239 24.01C59.4008 23.8756 59.5355 23.6874 59.7242 23.6874C60.2093 23.6605 60.7214 23.6605 61.2065 23.7143C61.6647 23.7412 62.1498 23.8756 62.608 23.8756C63.4704 23.9025 64.3328 23.9025 65.1953 23.8756C66.1116 23.8487 66.9471 23.6067 67.7557 23.2034C67.8096 23.1765 67.8635 23.0959 67.9713 22.9614C67.4323 23.0959 66.9471 23.2034 66.5159 23.3647C65.6804 23.6605 64.8449 23.7143 63.9825 23.5798C63.2817 23.4723 62.608 23.311 61.9072 23.2034C61.3682 23.1228 60.8022 22.8539 60.3171 23.3379C60.2901 23.3647 60.1554 23.3647 60.1554 23.3379C60.1284 23.2841 60.1284 23.2034 60.1284 23.1496C60.1284 23.0152 60.1284 22.8808 60.1554 22.7732C60.1823 22.585 60.1554 22.3699 60.2362 22.2086C60.3171 21.9935 60.5058 21.8322 60.6405 21.6171C61.476 20.4072 62.3115 19.1973 63.12 17.9605C63.4435 17.4765 63.713 16.9388 64.0094 16.4279C64.1711 16.1591 64.3598 15.9709 64.7371 16.186C64.9258 16.2935 65.2222 16.2935 65.4648 16.2666C66.3003 16.2129 67.1627 16.1591 67.9982 16.1053C68.6181 16.0515 69.2649 16.0515 69.8848 15.9709C70.5856 15.8902 71.2593 15.7289 71.9062 15.3525C71.6636 15.2718 71.448 15.2449 71.2054 15.1912C70.5047 15.0567 69.804 14.8147 69.1032 14.8147C68.133 14.8147 67.1897 15.0029 66.2194 15.1105C65.9499 15.1374 65.6804 15.0836 65.4379 15.0298C65.357 15.0029 65.33 14.8147 65.2761 14.7072C65.3839 14.6803 65.4918 14.6265 65.6265 14.6534C65.923 14.6803 66.2464 14.7341 66.5429 14.7341C66.7585 14.7341 66.9471 14.6265 67.1627 14.5996C68.0791 14.5728 68.9954 14.5459 69.9118 14.519C70.0196 14.519 70.1004 14.4921 70.2082 14.4921C70.1543 14.3845 70.0735 14.3577 70.0196 14.3577C68.9146 14.1426 67.7826 13.9006 66.6776 13.7124C66.5698 13.6855 66.4081 13.7393 66.3003 13.8199C66.0577 13.9544 65.8421 14.1695 65.5996 14.1963C65.3031 14.2232 65.1414 14.3577 65.0066 14.5459C64.8719 14.7341 64.7371 14.9223 64.5754 15.1105C64.4407 15.2449 64.3059 15.3525 64.1711 15.4869C64.1442 15.46 64.0903 15.4331 64.0633 15.4331C64.0903 15.2987 64.0633 15.1643 64.1172 15.0298C64.1442 14.8954 64.225 14.761 64.3328 14.5728C64.0094 14.761 63.7669 14.9223 63.4974 15.0298C62.5541 15.3794 61.6108 15.6482 60.5866 15.7558C59.1851 15.8902 57.8106 15.8902 56.4361 15.6482C55.6815 15.5138 54.9268 15.3794 54.1722 15.218C53.6062 15.1105 53.0402 14.9492 52.4743 14.8147C52.2856 14.761 52.1239 14.5728 51.9352 14.5996C51.5849 14.6265 51.3693 14.4383 51.1806 14.1963C51.1267 14.1157 51.0458 14.035 50.965 13.9544C50.9111 14.0888 50.8841 14.2232 50.938 14.3308C51.0189 14.519 51.1536 14.7072 51.2614 14.9223C51.2884 14.9761 51.3153 15.1105 51.2614 15.1643C51.2075 15.218 51.0728 15.2449 51.0458 15.218C50.6955 14.8954 50.3451 14.5728 49.9408 14.1695C49.9947 14.1695 49.9139 14.1695 49.86 14.1695C49.1053 14.4921 48.2968 14.4652 47.5152 14.3039C46.5719 14.0888 45.6556 13.793 44.7392 13.4973C43.3108 13.0402 41.8554 12.61 40.5887 11.7228C40.5079 11.669 40.3192 11.6959 40.2653 11.7496C39.6454 12.368 39.0255 13.0133 38.4326 13.6586C38.3518 13.7662 38.2979 13.9812 38.3248 14.1157C38.5404 15.1643 38.783 16.2129 38.9986 17.1808C39.0525 17.1001 39.1603 16.9926 39.2411 16.885C39.322 16.9926 39.4568 17.1001 39.5107 17.2345C39.6185 17.4765 39.7532 17.5841 39.9958 17.5303C39.9688 17.4496 39.9419 17.369 39.9419 17.369C41.8015 17.5572 43.6073 17.3152 45.3861 16.7506C44.308 17.5034 43.0952 17.8529 41.8285 18.1218C41.8285 18.1487 41.8285 18.2025 41.8285 18.2294C42.8526 18.4982 43.8768 18.7402 44.9009 19.0091C44.847 18.6058 45.1435 18.5251 45.3861 18.3638C45.5747 18.2562 45.7903 18.2025 45.952 18.068C46.8414 17.2614 47.7308 16.4279 48.6202 15.6213C48.755 15.4869 48.8628 15.3525 48.9706 15.218C45.7634 14.7072 42.9335 13.8468 40.427 12.0723ZM1.105 14.8954C1.0511 14.8954 0.997193 14.8954 0.94329 14.9223C0.916339 15.9171 0.889387 16.9119 0.916339 17.9336C0.94329 18.5251 1.0511 19.1435 1.1589 19.735C1.32061 20.7298 1.50927 21.7246 1.72488 22.7195C1.96744 23.8218 2.29086 24.9242 2.47952 26.0534C2.74903 27.5322 3.26111 28.9034 4.28526 30.0058C4.98599 30.7586 5.71368 31.4577 6.49527 32.1029C6.73783 32.318 7.1421 32.3987 7.46552 32.5331C7.46552 32.2643 7.35771 32.1029 7.35771 31.9416C7.35771 31.8072 7.41161 31.619 7.51942 31.5383C7.60027 31.4846 7.81588 31.5383 7.92369 31.619C8.11235 31.7534 8.2471 31.9685 8.40881 32.1298C8.70528 32.4525 9.00174 32.7751 9.29821 33.0709C9.32516 33.044 9.35211 33.0171 9.37906 32.9902C8.81308 31.9147 8.1932 30.8662 7.92369 29.6831C7.95064 29.6562 7.97759 29.6562 8.03149 29.6294C8.89394 30.8124 9.78333 31.9954 10.6458 33.2053C10.511 32.4794 10.2685 31.8072 10.0798 31.135C9.89114 30.4629 9.59467 29.8176 9.70248 29.1185C9.91809 29.5218 10.0798 29.952 10.2415 30.3553C10.7266 31.6459 11.2926 32.9095 12.1281 34.0119C12.3437 34.3077 12.6132 34.5496 13.0175 34.6572C12.748 33.9312 12.4785 33.286 12.2629 32.5869C11.9125 31.5652 11.5891 30.5166 11.2387 29.4949C11.0231 28.7959 10.7805 28.0968 10.5919 27.3709C10.511 27.102 10.5919 26.8062 10.5919 26.5105C10.6997 26.5374 10.7266 26.5912 10.7266 26.618C11.0231 27.9086 11.616 29.0647 12.2359 30.194C12.8558 31.3232 13.5565 32.4256 14.2034 33.5548C14.4459 33.9581 14.6885 34.3883 14.931 34.7916C14.9849 34.7647 15.0119 34.7379 15.0658 34.711C14.7154 33.8506 14.3381 32.9902 13.9877 32.1298C13.7991 31.6459 13.5835 31.1619 13.4218 30.6779C13.3679 30.5435 13.4757 30.3822 13.5026 30.2478C13.6104 30.3284 13.7452 30.436 13.853 30.5166C13.8799 30.5435 13.8799 30.5973 13.9069 30.6242C14.1225 30.9737 14.3381 31.3232 14.5268 31.6996C14.5807 31.6728 14.6346 31.6728 14.6615 31.6459C14.6346 31.5383 14.6615 31.4308 14.6076 31.3232C13.9608 29.7907 13.5296 28.2044 13.2331 26.5912C13.0983 25.8921 12.9636 25.2199 12.8019 24.5209C12.6941 24.0907 12.4515 23.7143 12.2898 23.2841C12.0203 22.6119 11.7508 21.9128 11.4813 21.2407C11.4543 21.644 11.5082 22.0473 11.5891 22.4237C11.6969 23.0959 11.7508 23.768 11.9394 24.3864C12.2898 25.4888 12.721 26.5643 13.0983 27.6397C13.1792 27.8817 13.2062 28.1775 13.2601 28.4195C13.2062 28.4463 13.1792 28.4463 13.1253 28.4732C13.0444 28.3657 12.9366 28.2581 12.8827 28.1237C12.3976 27.0751 11.8855 26.0803 11.4813 25.0048C11.0231 23.8218 10.6727 22.6119 10.2685 21.4289C10.1606 21.1331 10.0798 20.8374 10.2415 20.5416C10.3493 20.3534 10.1876 20.2996 10.0259 20.2459C9.45991 20.0308 8.92089 19.8426 8.35491 19.6275C8.16625 19.5468 8.00454 19.493 7.78893 19.3855C7.89674 19.7888 7.97759 20.1652 8.03149 20.5147C8.1393 21.2407 8.27406 21.9666 8.35491 22.6657C8.40881 23.069 8.51662 23.5261 8.1393 24.01C7.60027 23.0959 7.60027 22.1011 7.27686 21.1869C6.95344 20.2728 6.60307 19.3855 6.22575 18.4176C6.36051 19.3855 6.52222 20.2996 6.60307 21.2407C6.68393 22.1548 6.95344 23.069 6.71088 24.0369C6.57612 23.9294 6.46832 23.7949 6.44136 23.6336C6.2527 22.9077 6.091 22.1817 5.95624 21.4558C5.74063 20.3803 5.49807 19.3048 5.36331 18.2025C5.30941 17.7185 5.01294 17.5841 4.74343 17.3421C4.93209 18.6327 5.12075 19.9232 5.25551 21.2138C5.39026 22.5044 5.82148 23.7412 5.71368 25.0317C5.12075 23.9294 4.87819 22.7195 4.60867 21.5095C4.33916 20.2728 4.0966 19.036 3.82708 17.8261C3.71928 17.8798 3.58452 17.9067 3.44976 17.9605C3.47672 18.3907 3.47672 18.8478 3.58452 19.2511C3.82708 20.4879 4.06965 21.6978 4.36611 22.9077C4.77038 24.4402 5.25551 25.9459 5.68673 27.4784C5.79453 27.8279 5.79453 28.1775 5.84843 28.527C5.79453 28.527 5.74063 28.5539 5.71368 28.5539C5.65978 28.4732 5.57892 28.3926 5.55197 28.285C5.33636 27.7204 5.0938 27.1558 4.87819 26.5912C4.44697 25.4619 4.01574 24.3595 3.61147 23.2303C3.18025 22.0204 2.85684 20.7836 2.82988 19.4662C2.80293 18.8209 2.69513 18.1487 2.53342 17.5303C2.31781 16.5893 2.56037 15.8633 3.28806 15.4062C4.47392 14.7072 5.65978 14.0081 6.84563 13.2822C7.43856 12.9327 8.03149 12.5294 8.73223 12.1261C8.51662 12.0185 8.40881 11.9378 8.27406 11.911C7.0882 11.4808 5.90234 11.0775 4.68953 10.6742C4.36611 10.5666 4.06965 10.2978 3.69233 10.5128C3.12635 10.8355 2.58732 11.1581 2.0483 11.5077C1.69793 11.7228 1.50927 12.0454 1.53622 12.5025C1.56317 12.7713 1.40146 13.0671 1.40146 13.336C1.40146 13.7124 1.34756 14.1157 1.48232 14.4383C1.69793 14.9761 2.07525 15.4331 2.37171 15.9171C2.31781 16.0515 2.29086 16.2397 2.21 16.3742C2.1022 16.5355 1.94049 16.6699 1.83268 16.8044C1.61707 16.6968 1.48232 16.5624 1.42841 16.4011C1.37451 16.2666 1.37451 16.0515 1.42841 15.9171C1.61707 15.46 1.23976 15.218 1.105 14.8954ZM22.72 26.0803C22.7469 26.0803 22.7739 26.0534 22.8008 26.0534C22.7739 25.8383 22.72 25.6501 22.72 25.435C22.72 25.1124 22.6122 24.8973 22.2618 24.7897C22.1809 24.7628 22.127 24.6553 22.0462 24.6015C22.154 24.5746 22.2618 24.494 22.3696 24.5209C23.286 24.5478 24.2023 24.6822 25.1186 24.6015C26.1428 24.5209 27.1669 24.3058 28.1911 24.0907C28.8379 23.9562 29.4309 23.6605 30.0507 23.4185C30.1316 23.3916 30.1585 23.2303 30.2124 23.1496C30.1316 23.1228 30.0507 23.0421 29.9699 23.0421C29.377 23.2034 28.7571 23.3379 28.1641 23.5261C26.8705 23.9294 25.5229 24.1176 24.1753 24.1176C24.0675 24.1176 23.9597 24.0369 23.825 24.01C23.825 23.9562 23.825 23.9025 23.825 23.8487C24.8761 23.6605 25.9002 23.4723 26.9513 23.2841C28.272 23.0421 29.7004 22.5044 29.8621 22.1279C29.8351 22.1279 29.7812 22.1279 29.7543 22.1548C28.8649 22.4237 28.0024 22.7195 27.113 22.9345C26.4662 23.069 25.8194 23.069 25.1456 23.0959C25.0378 23.0959 24.93 22.9883 24.7144 22.9077C25.4421 22.4506 26.2506 22.6388 26.9783 22.2355C26.6818 22.2624 26.4932 22.3162 26.2776 22.3162C26.1158 22.3162 25.9272 22.3162 25.7655 22.2893C25.7116 22.2893 25.6577 22.1817 25.6038 22.1279C25.6577 22.0742 25.7116 21.9935 25.7924 21.9935C26.2506 21.886 26.7088 21.7784 27.1669 21.6709C27.2208 21.644 27.2748 21.6171 27.3287 21.5902C27.1669 21.5364 27.0322 21.5633 26.8974 21.5633C26.7357 21.5902 26.5471 21.6171 26.3854 21.6171C26.3045 21.6171 26.2236 21.5364 26.1428 21.4827C26.2236 21.4289 26.2776 21.3213 26.3584 21.2945C26.6549 21.2138 26.9513 21.16 27.2478 21.0794C27.8677 20.918 28.4606 20.7567 29.0805 20.5685C29.2152 20.5147 29.3231 20.3803 29.4309 20.2728C29.4039 20.2459 29.377 20.219 29.35 20.1921C29.0266 20.2996 28.7032 20.4341 28.3798 20.4878C28.0294 20.5685 27.679 20.5954 27.3287 20.6761C27.0591 20.7298 26.8705 20.6492 26.7357 20.3803C26.8705 20.3265 26.9513 20.2459 27.0861 20.219C27.5982 20.0845 28.1102 20.0308 28.5954 19.8695C29.2692 19.6275 29.3231 19.6544 29.2422 19.1704C29.0805 17.9336 29.1613 16.6968 29.4309 15.4869C29.7273 14.1963 30.0507 12.8789 30.4011 11.5883C30.5628 10.9699 30.8054 10.3515 31.0479 9.73313C31.1557 9.49115 31.3444 9.27606 31.5061 9.03408C31.4792 9.00719 31.4522 8.9803 31.4522 8.95342C31.1018 9.00719 30.7784 9.06096 30.4281 9.08785C29.7543 9.11474 29.0535 9.14162 28.3798 9.08785C27.706 9.03408 27.2478 9.22229 26.7627 9.78691C25.8733 10.7548 24.7952 11.6959 23.798 12.6638C23.5555 12.9058 23.286 13.094 23.0434 13.3091C22.6661 13.7124 22.2888 14.1157 21.8845 14.5728C24.391 14.0619 26.7627 13.2015 29.0805 12.2605C29.0266 12.368 28.9727 12.4756 28.8918 12.5294C27.0591 13.7662 25.1456 14.761 22.8278 14.9223C23.3129 15.1374 23.7172 15.2987 24.1484 14.9492C24.2023 14.9223 24.2562 14.9223 24.3371 14.8954C24.93 14.7072 25.5499 14.519 26.1428 14.3577C26.9244 14.1426 27.679 13.9275 28.4606 13.7124C28.4876 13.7393 28.4876 13.7662 28.5145 13.8199C28.0563 14.3845 27.3826 14.6803 26.6818 14.8685C25.9811 15.0836 25.2534 15.218 24.4988 15.3794C24.7413 15.4331 24.903 15.5138 25.0647 15.5407C25.3612 15.5676 25.7116 15.6751 25.9811 15.5676C26.8705 15.2718 27.706 14.8954 28.5684 14.5459C28.7032 14.4921 28.8379 14.4921 28.9727 14.4383C28.9996 14.4921 28.9996 14.519 29.0266 14.5728C28.3528 15.1643 27.4904 15.3525 26.601 15.6751C27.0052 15.7289 27.3826 15.7289 27.7599 15.8095C27.9755 15.8364 28.3528 15.9709 28.3528 16.0246C28.2989 16.3473 28.0024 16.2666 27.7599 16.2935C26.0889 16.4011 24.5527 15.9171 22.9895 15.4331C22.8547 15.3794 22.6661 15.3256 22.5583 15.3525C22.0462 15.5945 21.615 15.3525 21.1837 15.1912C21.022 15.1374 20.8603 15.0029 20.8064 14.8685C20.7525 14.7341 20.7795 14.5459 20.7795 14.3308C20.1057 14.8954 19.4589 15.46 18.812 16.0246C19.0815 16.3742 19.3241 16.3473 19.5936 16.0515C19.8362 15.8095 20.1057 15.5945 20.3752 15.3794C20.483 15.2987 20.6178 15.2449 20.7525 15.1643C20.7795 15.218 20.8064 15.2449 20.8603 15.2987C18.8659 17.3959 16.7368 19.3048 14.2034 20.8105C17.3836 20.1652 20.5369 19.4393 23.6363 18.552C23.3668 18.7671 23.0973 18.9015 22.8008 19.036C21.1029 19.8695 19.2972 20.4072 17.4106 20.6761C16.5481 20.8105 15.7126 20.9718 14.8502 21.1062C14.5537 21.16 14.2034 21.2676 13.9338 21.1869C13.4487 21.0525 13.1253 21.3213 12.721 21.5095C12.8288 21.5633 12.9366 21.5902 13.0175 21.6171C13.5026 21.6978 14.0147 21.7246 14.4729 21.8591C15.2006 22.0742 15.9282 22.4237 16.6559 22.6388C17.0602 22.7732 17.5184 22.7463 17.9496 22.827C18.4078 22.9077 18.839 22.9883 19.2972 23.069C19.7284 23.1496 20.1596 23.2034 20.51 22.827H20.5369C20.9412 22.6119 21.3994 22.4506 21.7497 22.1548C22.7469 21.3213 23.7441 20.4879 24.7144 19.6006C25.5229 18.8478 26.2776 18.068 27.14 17.2077C26.9513 17.2077 26.8705 17.2077 26.7896 17.2345C26.1158 17.4765 25.469 17.2883 24.8491 17.1001C23.7441 16.7506 22.6661 16.3742 21.588 15.9978C21.5072 15.9709 21.4263 15.8902 21.3455 15.8364C21.4533 15.7289 21.5611 15.702 21.6419 15.7289C22.2349 15.8902 22.8008 16.0515 23.3938 16.2397C24.2562 16.5086 25.0917 16.8044 26.008 16.7506C26.4662 16.7237 26.8974 16.7506 27.3556 16.7506C27.5982 16.7506 27.8407 16.8312 28.1641 16.885C27.8138 17.1808 27.5712 17.4228 27.3017 17.6647C27.7329 17.8529 27.7329 17.9336 27.4365 18.2294C26.7896 18.9015 26.1428 19.5737 25.469 20.2459C25.496 20.2728 25.5229 20.2996 25.5499 20.3265C25.8733 20.0039 26.1967 19.7081 26.5201 19.3855C26.574 19.4124 26.601 19.4662 26.6549 19.493C26.3584 19.8695 26.1158 20.2728 25.7924 20.6223C24.6066 21.8322 23.4207 23.0152 22.2348 24.1982C22.0192 24.3864 21.9114 24.6015 22.0462 24.8435C22.2349 25.2468 22.5044 25.6501 22.72 26.0803ZM19.1085 13.9275C18.839 13.9275 18.5695 13.9812 18.3269 13.9544C17.6531 13.8737 17.0063 13.7393 16.3595 13.6048C15.1197 13.3629 13.853 13.094 12.6132 12.8251C12.2898 12.7713 11.9933 12.6907 11.6699 12.5831C11.2657 12.4487 11.1578 12.1798 11.4543 11.8572C11.6969 11.5883 11.9394 11.3463 12.209 11.1581C13.4218 10.3246 14.2842 9.1954 15.2275 8.09304C15.2814 8.03926 15.2545 7.93172 15.2814 7.7704C14.8771 8.09304 14.6076 8.46945 14.2573 8.577C13.826 8.68455 13.6374 8.9803 13.3948 9.27606C13.1253 9.57181 12.9097 9.86757 12.6402 10.1633C12.3168 10.486 11.9664 10.7548 11.643 11.0506C11.5082 11.1581 11.3196 11.2388 11.2118 11.3732C10.8614 11.7765 10.6997 11.7765 10.4032 11.3195C10.3493 11.2388 10.1876 11.2119 10.0798 11.1581C10.0528 11.2657 9.97199 11.3732 9.99894 11.4808C10.0259 11.6421 10.1067 11.7765 10.1606 11.9379C10.1876 11.9916 10.1606 12.1261 10.1337 12.1261C10.0528 12.1529 9.97199 12.1529 9.89114 12.1261C9.81028 12.0992 9.75638 12.0185 9.72943 11.9916C9.64857 12.1529 9.62162 12.4218 9.45991 12.4756C8.89394 12.7445 8.84003 13.1746 9.05564 13.7124C9.08259 13.7662 9.00174 13.9006 8.97479 13.9812C8.86698 13.9544 8.75918 13.9544 8.67833 13.8737C8.54357 13.7393 8.43576 13.5779 8.32796 13.4166C8.00454 13.7124 8.00454 14.0081 8.38186 14.4921C9.27126 14.0619 10.0259 13.3629 10.9961 13.094C10.2146 13.9812 9.21735 14.5996 8.27406 15.2449C7.30381 15.9171 6.27966 16.5086 5.17465 17.2077C5.74063 16.9926 5.84843 17.3152 5.95624 17.6647C5.98319 17.7454 6.091 17.7992 6.17185 17.8798C7.06124 18.5789 7.97759 19.1973 9.05564 19.5199C9.83723 19.7619 10.5919 20.219 11.4543 19.9232C11.5352 19.8963 11.6699 19.8963 11.7508 19.9232C12.1011 20.0577 12.3437 19.8963 12.5863 19.7081C12.8288 19.5199 13.0175 19.3317 13.2601 19.1704C13.4757 19.036 13.7721 18.9822 13.9877 18.8478C14.958 18.1487 15.9282 17.4496 16.8715 16.6968C17.4106 16.2666 17.8957 15.7289 18.4886 15.1912C17.4914 15.2449 16.6559 15.0029 15.8204 14.6803C15.1466 14.4114 14.4459 14.1695 13.7721 13.9275C13.5296 13.8468 13.287 13.8199 13.0444 13.7662C13.0444 13.7124 13.0444 13.6586 13.0444 13.5779C13.3409 13.5511 13.6374 13.4704 13.9069 13.5242C14.392 13.6048 14.8771 13.7393 15.3353 13.8737C16.602 14.2232 17.8687 14.3039 19.1624 14.2501C19.1893 14.0888 19.1354 14.0081 19.1085 13.9275ZM46.9492 9.94823C46.9492 10.002 46.9762 10.0827 46.9762 10.1364C45.3591 10.7548 43.7959 11.5883 41.9093 11.427C42.3136 11.669 42.7448 11.8572 43.176 11.9916C44.308 12.3412 45.44 12.7176 46.5989 13.0133C47.5152 13.2553 48.4585 13.4166 49.4018 13.6317C49.4827 13.6586 49.6174 13.6317 49.6713 13.5779C50.1295 13.1746 50.5877 12.7445 51.0458 12.3412C52.043 11.427 53.0402 10.5397 54.0644 9.62559C54.1452 9.54493 54.3069 9.54493 54.4417 9.51804C54.4148 9.65247 54.4148 9.78691 54.3609 9.89445C54.2261 10.1095 54.0105 10.2978 53.9027 10.5128C53.8218 10.6473 53.8488 10.8086 53.8488 10.9699C53.8757 11.1312 53.9296 11.2657 53.9566 11.427C53.9296 11.4539 53.8757 11.4808 53.8488 11.5077C53.6871 11.4001 53.5254 11.2657 53.3906 11.1581C53.2558 11.4539 53.3097 11.6152 53.6871 11.9916C54.2261 11.4001 54.7651 10.7817 55.2233 10.2709C54.7382 9.35672 54.0374 9.27606 53.175 9.27606C52.2317 9.27606 51.2884 9.06096 50.3451 8.87276C49.6444 8.73832 48.9436 8.49634 48.2698 8.25436C47.5152 7.98549 46.7875 7.58219 46.0329 7.31332C45.4669 7.09823 45.1435 6.77559 45.0087 6.18408C44.9279 5.86143 44.8201 5.91521 44.5775 6.1303C44.847 6.50672 45.1435 6.88313 45.44 7.31332C45.413 7.34021 45.3052 7.47464 45.2513 7.44776C45.0087 7.39398 44.7662 7.31332 44.5236 7.20577C44.3889 7.34021 44.2002 7.44776 44.0654 7.63596C43.7151 8.14681 43.4456 8.1737 43.0682 7.63596C42.5562 8.06615 43.0682 8.44257 43.1491 8.84587C43.0952 8.87276 43.0682 8.89964 43.0413 8.89964C42.7448 8.9803 42.5831 8.76521 42.4214 8.577C42.3675 8.49634 42.2327 8.49634 42.1249 8.46945C42.1249 8.577 42.071 8.68455 42.098 8.76521C42.1249 9.00719 42.2058 9.22228 42.2327 9.43738C42.2327 9.51804 42.2058 9.67936 42.1249 9.70625C42.0441 9.73313 41.8824 9.67936 41.8554 9.5987C41.7207 9.41049 41.6129 9.16851 41.5051 8.95342C41.4781 8.95342 41.4512 8.9803 41.4242 8.9803C41.559 9.32983 41.6937 9.67936 41.8554 10.0558C41.6129 10.3246 41.559 10.2978 40.9391 9.51804C40.6426 9.89445 41.2355 10.0289 41.1816 10.3515C41.1816 10.4053 41.2625 10.4591 41.3164 10.5128C41.2355 10.5397 41.1547 10.5935 41.0738 10.6204C40.966 10.6473 40.8582 10.6742 40.7504 10.7011C40.7504 10.7279 40.7774 10.7817 40.7774 10.8086C42.8257 10.5666 44.9279 10.6742 46.9492 9.94823ZM13.1253 22.9345C13.1253 22.9883 13.1522 23.0421 13.1522 23.0959C13.4487 24.0907 13.7182 25.0855 14.0147 26.0803C14.2034 26.7794 14.3112 27.4784 14.5807 28.1506C15.1736 29.6831 15.7935 31.1888 16.4942 32.6676C17.1141 33.9312 17.8687 35.1412 18.5695 36.3779C18.6503 36.5124 18.7851 36.593 18.8929 36.7006C18.812 36.4855 18.6234 36.3242 18.5695 36.136C18.3539 35.41 18.1652 34.6841 17.9765 33.9581C17.9496 33.8237 17.9496 33.6893 17.8957 33.5548C17.6801 32.9902 17.4645 32.4525 17.2758 31.8878C17.2219 31.7265 17.2219 31.5383 17.2219 31.377C17.2489 31.377 17.3028 31.377 17.3297 31.377C17.5723 31.861 17.8148 32.3449 18.0574 32.8289C18.4886 33.6624 18.9198 34.4959 19.378 35.3294C19.4858 35.5176 19.7014 35.6251 19.8631 35.7864C19.8901 35.7596 19.917 35.7327 19.944 35.7058C18.9468 33.743 18.1652 31.7265 18.0843 29.4949C18.1921 29.6025 18.2461 29.71 18.3 29.8445C18.6503 30.7586 18.9468 31.7265 19.3511 32.6138C19.7553 33.5279 20.2674 34.4152 20.7256 35.3294C21.022 35.9209 21.3724 36.0822 22.0731 35.9746C22.0192 35.9209 21.9923 35.8671 21.9653 35.8402C21.5611 35.2487 21.049 34.6841 20.7525 34.0119C20.2674 32.9364 19.8631 31.8072 19.4858 30.6779C19.2163 29.8176 19.0546 28.9034 18.839 28.0162C18.812 27.9086 18.9198 27.8011 18.9468 27.6935C19.0276 27.7473 19.1354 27.8011 19.1893 27.8817C19.3511 28.2581 19.4589 28.6346 19.6206 28.9841C20.0518 30.0327 20.4561 31.0812 20.9142 32.1029C21.3455 33.044 21.8575 33.9312 22.3696 34.8185C22.6661 35.3294 23.0703 35.7327 23.7172 35.7864C23.5824 35.4638 23.3668 35.1949 23.2051 34.8992C22.7469 34.0388 22.3427 33.1515 21.8575 32.318C20.8873 30.6242 20.1057 28.8496 19.7553 26.9138C19.6745 26.4836 19.5128 26.0534 19.3511 25.6501C19.1894 25.2199 19.0276 24.7897 18.839 24.3864C18.7851 24.2789 18.6503 24.1713 18.5695 24.0907C18.5425 24.1176 18.4886 24.1445 18.4617 24.1713C18.5156 24.3864 18.5425 24.6015 18.5964 24.8166C18.7042 25.3275 18.839 25.8383 18.9198 26.3492C18.9468 26.4567 18.812 26.5912 18.7312 26.7256C18.6234 26.6449 18.4886 26.5912 18.3808 26.5105C18.3269 26.4836 18.3269 26.4029 18.3 26.3492C17.9765 25.6501 17.6262 24.9511 17.3028 24.2251C17.2219 24.0369 17.0871 23.9831 16.8985 24.1176C16.8985 24.1982 16.8985 24.252 16.8985 24.3058C17.1141 25.1662 17.3028 25.9996 17.5184 26.86C17.5723 27.0482 17.6531 27.2364 17.6801 27.4246C17.707 27.5053 17.6262 27.6129 17.5992 27.7204C17.4914 27.6935 17.3567 27.6666 17.3297 27.6129C17.168 27.344 17.0063 27.0482 16.8985 26.7525C16.5751 25.8383 16.2786 24.9242 15.9552 24.01C15.7665 23.4992 15.2006 23.0959 14.6615 23.0152C15.2814 24.1713 15.497 25.4619 15.7396 26.6987C15.8474 27.2633 15.8204 27.8548 16.1169 28.3926C16.1978 28.527 16.1978 28.7152 16.2517 28.8765C16.2247 28.9034 16.1978 28.9034 16.1708 28.9303C16.063 28.8228 15.9013 28.7421 15.8474 28.6077C15.6587 28.2312 15.4701 27.8548 15.3353 27.4515C15.0658 26.5374 14.9041 25.5695 14.4459 24.7091C14.0955 24.0369 13.7452 23.3916 13.1253 22.9345ZM61.6916 22.5044C63.713 21.4558 65.8152 20.5685 67.6748 19.2242C66.5429 20.7029 64.818 21.4827 63.3626 22.5312C63.6591 22.7195 63.9286 22.6657 64.1711 22.4775C64.3328 22.3699 64.4946 22.2624 64.6293 22.1817C65.896 21.3751 67.1627 20.5416 68.4564 19.735C68.5912 19.6544 68.7529 19.6275 68.8876 19.5737C68.9146 19.6275 68.9415 19.6812 68.9685 19.7081C68.4025 20.3803 67.6479 20.8105 66.9741 21.3482C66.3003 21.886 65.4648 22.2355 64.6832 22.7195C65.5457 22.5581 66.3542 22.3968 67.1627 22.2624C67.8635 22.1279 68.4295 21.6978 68.8876 21.2407C69.4536 20.6761 69.8848 19.977 70.2621 19.2779C70.8281 18.2025 71.3132 17.1001 71.8253 15.9978C71.8792 15.8902 71.8792 15.7558 71.9062 15.6751C71.0707 15.8095 70.2621 15.9709 69.4267 16.0515C67.8635 16.186 66.3003 16.2935 64.7371 16.4011C64.6024 16.4011 64.4676 16.4548 64.3867 16.5355C64.1711 16.7506 63.9825 16.9657 63.8208 17.2077C62.9314 18.4445 62.015 19.7081 61.1526 20.9718C60.8831 21.3751 60.7753 21.8591 60.5327 22.3968C60.7753 22.343 60.937 22.3162 61.0448 22.2624C62.2037 21.5633 63.3356 20.8374 64.4946 20.1114C64.8719 19.8695 65.2222 19.6544 65.5996 19.4124C65.6265 19.4662 65.6535 19.493 65.6804 19.5468C64.4946 20.7298 63.0392 21.5364 61.6916 22.5044ZM60.6136 26.0534C59.1851 27.3978 57.4333 28.285 55.7623 29.2529C55.951 29.3067 56.1127 29.3067 56.2744 29.3067C56.5439 29.2798 56.8673 29.3067 57.1099 29.1992C57.8376 28.8765 58.5383 28.4463 59.266 28.1237C60.3979 27.6129 61.5299 27.0482 62.5271 26.2685C62.7966 26.0534 63.0931 25.8652 63.3895 25.677C63.4165 25.7039 63.4435 25.7308 63.4974 25.7845C63.3626 25.9459 63.2548 26.1341 63.0931 26.2416C62.2037 26.8062 61.2873 27.3978 60.371 27.9086C59.4008 28.4463 58.4305 28.9572 57.4333 29.468C57.4333 29.5218 57.4603 29.5756 57.4603 29.6294C57.622 29.6831 57.8106 29.7638 57.9723 29.7638C58.8617 29.7638 59.7781 29.8176 60.6675 29.7369C61.4221 29.6831 62.1767 29.4949 62.9044 29.3067C63.2009 29.2261 63.4435 28.9841 63.7399 28.9034C64.0364 28.8228 64.1711 28.6614 64.3059 28.4195C64.4946 28.043 64.6832 27.6397 64.9258 27.2902C65.4648 26.5374 66.0847 25.8114 66.6237 25.0317C66.9202 24.6284 67.1627 24.1713 67.4862 23.6874C67.0549 23.8218 66.6776 23.9831 66.3272 24.01C64.8719 24.0638 63.4165 24.0638 61.9611 24.0638C61.3682 24.0638 60.7483 23.9562 60.1554 23.9025C59.8589 23.8756 59.6164 23.9562 59.4007 24.2251C58.2957 25.5426 57.1638 26.8062 56.0318 28.0968C55.951 28.1775 55.8971 28.285 55.8162 28.3926C55.8432 28.4195 55.8432 28.4463 55.8701 28.4732C56.6787 28.1237 57.5142 27.7742 58.2957 27.3709C59.0773 26.9407 59.832 26.4836 60.6136 26.0534ZM52.0161 13.8468C52.5551 13.9812 52.9863 14.1426 53.3906 14.1963C55.0346 14.4383 56.6787 14.7072 58.3497 14.6534C59.7781 14.5996 61.2065 14.519 62.6349 14.4383C63.12 14.4114 63.5513 14.2232 63.7399 13.7124C63.8208 13.5242 63.8747 13.3091 63.9555 13.1209C64.0633 12.9058 64.0094 12.7713 63.7669 12.6907C63.1739 12.4756 62.581 12.2605 61.9881 12.0454C60.5866 11.5345 59.2121 10.9968 57.7837 10.5397C57.1907 10.3515 56.6248 9.86757 55.924 10.244C55.8971 10.2709 55.8432 10.244 55.8162 10.244C55.5737 10.1902 55.412 10.3246 55.2502 10.486C54.4417 11.3463 53.6062 12.2067 52.7977 13.0671C52.609 13.336 52.3395 13.5511 52.0161 13.8468ZM65.923 28.769C66.1655 28.8228 66.4081 28.9841 66.6237 28.9572C67.2166 28.8765 67.7826 28.7421 68.3755 28.6345C68.5912 28.5808 68.7798 28.527 68.9685 28.4463C69.6962 28.0968 70.4239 27.7204 71.1515 27.344C71.6367 27.102 72.1757 26.9407 72.6069 26.6449C73.7928 25.8652 74.5205 24.7091 75.1942 23.4992C75.3829 23.1765 75.4907 22.8001 75.6524 22.4237C75.0325 22.6119 74.5474 22.8001 74.0353 22.8808C72.7147 23.0959 71.3671 23.2572 70.0196 23.4454C69.5884 23.4992 69.238 23.6336 69.0224 24.1445C68.699 24.8704 68.3216 25.5963 67.8635 26.2416C67.2975 27.102 66.6237 27.9086 65.923 28.769ZM73.119 16.1053C72.8495 16.0515 72.553 15.9978 72.2296 15.9171C71.8792 16.643 71.5289 17.369 71.1785 18.0949C71.1515 18.1487 71.2054 18.2294 71.1785 18.31C71.1246 18.6058 71.1515 18.9553 71.0168 19.1973C70.4508 20.2459 69.804 21.2676 69.211 22.2893C69.9926 22.1817 70.1004 22.1279 70.6664 21.7515C71.7714 20.9987 72.8764 20.2459 73.9814 19.493C74.1162 19.4124 74.2779 19.3586 74.4127 19.3048C74.4396 19.3317 74.4666 19.3855 74.4666 19.4124C73.4424 20.5147 72.3104 21.4289 70.9359 22.1011C71.7714 22.0742 72.58 21.9666 73.3885 21.886C73.6041 21.8591 73.8197 21.886 74.0084 21.8053C75.0595 21.3482 75.7333 20.5685 75.9758 19.4393C76.0297 19.1435 76.1375 18.8209 76.0836 18.5251C75.895 17.6647 75.329 17.0463 74.6822 16.4817C74.4127 16.2397 74.1431 16.0515 73.8736 15.8364C73.4424 16.7506 73.0381 17.7454 72.4991 18.6595C71.9601 19.5737 71.2863 20.4072 70.6664 21.2676C70.6395 21.2407 70.5856 21.2138 70.5586 21.1869C71.4211 19.5468 72.7417 18.068 73.119 16.1053ZM40.966 7.63596C40.993 7.68974 40.993 7.7704 41.0199 7.82417C40.6157 7.9586 40.2383 8.14681 39.8071 8.20059C39.0255 8.33502 38.217 8.36191 37.4085 8.44257C37.112 8.46945 36.7886 8.52323 36.4921 8.55011C36.8964 8.89964 37.2737 9.1954 37.7049 9.38361C38.0553 9.54493 38.4326 9.67936 38.8369 9.70625C39.7263 9.81379 40.4001 9.27606 41.0738 8.87276C41.6668 8.49634 42.1519 7.9586 42.664 7.47464C42.9065 7.23266 43.0952 6.96379 43.3647 6.64115C42.6101 6.37228 41.9363 6.18408 41.2894 5.86143C40.1575 5.29681 39.0794 4.65153 38.0014 4.00625C37.7319 3.84493 37.4893 3.81804 37.2737 4.00625C37.085 4.16757 36.9233 4.35577 36.8155 4.57087C36.3843 5.59257 36.4113 6.64115 36.4382 7.71662C36.4382 7.79728 36.5999 7.93172 36.7077 7.93172C37.085 7.90483 37.4354 7.85106 37.8127 7.82417C38.6213 7.7704 39.4568 7.74351 40.2653 7.71662C40.5079 7.71662 40.7235 7.66285 40.966 7.63596ZM14.8771 6.39917C14.8502 6.37228 14.8232 6.31851 14.7963 6.29162C14.5268 6.37228 14.2303 6.42606 13.9877 6.56049C12.3976 7.31332 10.7266 7.82417 8.97479 8.22747C7.81588 8.49634 6.65697 8.81898 5.49807 9.14162C5.30941 9.1954 5.17465 9.24917 5.28246 9.49115C5.36331 9.49115 5.41721 9.43738 5.49807 9.46427C6.01014 9.5987 6.54917 9.73313 7.06125 9.89445C7.81588 10.1633 8.59747 10.2171 9.40601 10.244C10.9692 10.2978 10.5649 10.486 11.8316 9.32983C12.8827 8.36191 13.8799 7.36709 14.8771 6.39917ZM53.9835 7.87794C53.9566 7.85106 53.9027 7.7704 53.8218 7.71662C53.0402 6.96379 52.2586 6.21096 51.504 5.45813C51.0458 5.00106 50.5877 4.54398 50.1025 4.11379C50.0217 4.03313 49.86 4.03313 49.7252 4.00625C49.6983 4.11379 49.6444 4.19445 49.6444 4.302C49.6444 4.54398 49.5366 4.7053 49.294 4.62464C49.0514 4.54398 48.9167 4.65153 48.755 4.78596C48.6202 4.89351 48.4855 4.94728 48.3507 5.02794C47.8117 5.29681 47.2457 5.59257 46.7067 5.86143C49.0514 6.91002 51.4501 7.68974 53.9835 7.87794ZM54.5765 30.8393C54.6034 32.3449 54.6843 33.8506 54.6304 35.3294C54.5765 35.3294 54.4956 35.3562 54.4417 35.3562C53.9027 34.1732 54.1183 32.7751 53.5254 31.619C53.4715 32.8827 53.4445 34.1463 53.4984 35.41C53.5523 36.6468 53.6601 37.9105 53.7679 39.1473C53.7949 39.1473 53.8218 39.1473 53.8218 39.1473C53.9835 37.9374 54.1722 36.7275 54.3339 35.5176C54.3878 35.5176 54.4417 35.5176 54.5226 35.5176C54.8999 36.2166 54.7382 36.9695 54.7382 37.7223C54.7651 38.4751 54.7382 39.2279 54.7382 40.0077C54.9538 38.8784 55.1424 37.7492 55.3041 36.593C55.385 36.0553 55.4928 35.5176 55.4659 34.9798C55.412 34.1463 55.2502 33.3397 55.1155 32.5331C55.0077 31.9416 54.8999 31.3501 54.5765 30.8393ZM68.1599 29.1992C67.8096 29.1185 67.6479 29.2798 67.567 29.5218C67.2705 30.4091 67.001 31.2695 66.7315 32.1567C66.4351 33.1515 66.1925 34.1732 65.6265 35.0605C65.1414 35.8133 64.6293 36.5124 64.1442 37.2114C65.7343 35.9478 66.8932 34.2539 67.8365 32.4256C68.3486 31.4577 68.7798 30.436 69.238 29.4412C69.2919 29.3067 69.3727 29.1723 69.4806 28.9572C68.9954 29.2529 68.7259 29.6025 68.5103 30.0058C68.2138 30.6242 67.9174 31.2157 67.6209 31.8341C67.567 31.9685 67.4323 32.0492 67.3514 32.1567C67.2975 32.1298 67.2705 32.1029 67.2166 32.0761C67.4323 31.1619 67.7287 30.194 68.1599 29.1992ZM59.7511 30.1671C60.0745 30.9468 60.0476 31.6996 59.9398 32.4256C59.7511 33.5279 59.5086 34.6303 59.266 35.7327C59.1043 36.4317 58.8887 37.1039 58.6731 37.8029C58.4575 38.5289 58.2149 39.2279 57.9993 39.927C58.0262 39.9539 58.0532 39.9539 58.0801 39.9808C58.3227 39.4699 58.6192 38.9591 58.8348 38.4482C59.5086 36.9426 59.805 35.3294 60.1554 33.743C60.398 32.5331 60.5597 31.3232 60.7483 30.1133C60.4788 30.1133 60.1554 30.1402 59.7511 30.1671ZM71.5019 28.1506C70.5856 28.7152 69.9118 29.4412 69.6692 30.4091C69.1841 32.2643 68.3486 33.9581 67.4323 35.6251C67.028 36.3511 66.5968 37.0501 66.1655 37.7761C66.1925 37.8029 66.2194 37.8298 66.2464 37.8298C66.5429 37.4265 66.8932 37.0232 67.1627 36.593C68.4295 34.4421 69.6692 32.2643 70.6125 29.9251C70.8551 29.3336 71.1785 28.7959 71.5019 28.1506ZM59.6703 38.502C60.9909 35.8402 61.6108 32.9902 62.3385 30.1133C61.9072 30.0864 61.4221 30.5435 61.3682 30.9468C61.3143 31.3232 61.2334 31.7265 61.1526 32.1029C60.8292 33.6086 60.5327 35.0874 60.1823 36.593C60.0206 37.2383 59.832 37.8567 59.6703 38.502ZM55.6545 30.8662C55.6545 30.9468 55.6815 31.0275 55.6815 31.1081C55.7623 31.9954 55.8971 32.8827 55.924 33.7699C55.951 34.5765 55.8971 35.41 55.8701 36.2166C55.8432 36.7275 55.8162 37.2383 55.7893 37.7492C55.7623 38.4213 55.7354 39.0666 55.6815 39.7388C55.8162 39.5237 55.8701 39.3086 55.8971 39.0666C56.0318 38.3407 56.1935 37.6416 56.3013 36.9157C56.4092 36.2435 56.517 35.5445 56.517 34.8454C56.517 34.1195 56.4361 33.4204 56.3283 32.6945C56.2474 32.0492 56.0857 31.4308 55.6545 30.8662ZM26.035 34.9261C25.9002 34.711 25.7655 34.4959 25.6577 34.2539C24.903 32.4256 24.1484 30.5704 23.3668 28.7421C23.1781 28.285 22.8547 27.8817 22.6122 27.4515C22.5852 27.4784 22.5313 27.4784 22.5044 27.5053C22.693 28.1237 22.8547 28.769 23.0703 29.3605C23.4477 30.3822 23.9058 31.377 24.2562 32.3987C24.6066 33.4204 25.3343 34.1463 26.035 34.9261ZM28.6762 34.8454C28.245 33.9312 27.7868 33.0171 27.3826 32.1029C27.1669 31.6459 27.0591 31.135 26.8705 30.6779C26.7627 30.4091 26.5471 30.194 26.4123 29.9251C25.8733 28.769 25.3343 27.6129 24.7952 26.4836C24.7683 26.4836 24.7413 26.5105 24.7144 26.5105C24.8761 26.9138 25.0378 27.3171 25.1725 27.7204C25.8463 29.5487 26.3584 31.4039 27.2478 33.1515C27.5982 33.8506 28.0833 34.4152 28.6762 34.8454ZM24.2562 34.711C24.3101 34.6841 24.364 34.6303 24.4179 34.6034C22.9086 32.5331 22.2888 30.0595 21.1029 27.8279C21.1568 28.1775 21.2377 28.527 21.3724 28.8496C21.9114 30.3284 22.4235 31.8341 23.2051 33.2053C23.5016 33.743 23.9058 34.2001 24.2562 34.711ZM42.4484 20.1921C41.9093 19.8963 41.4242 19.6544 40.9121 19.3855C40.6965 19.2779 40.5887 19.1704 40.8582 18.9553C40.5618 18.8478 40.2923 18.7133 40.0227 18.6058C39.9958 18.6327 39.9419 18.6864 39.9149 18.7133C40.3192 19.493 40.7235 20.2728 41.1547 21.0525C41.6129 20.7567 42.0171 20.4879 42.4484 20.1921ZM63.8477 29.71C63.8208 29.6831 63.7669 29.6831 63.7399 29.6562C63.4704 30.1402 63.12 30.5973 62.9583 31.135C62.6619 31.9954 62.5002 32.9095 62.2576 33.7699C62.1498 34.1463 62.042 34.4959 61.9342 34.8723C62.4193 34.0657 62.7697 33.2053 63.2009 32.3987C63.6591 31.5652 63.5782 30.5973 63.8477 29.71ZM64.6293 33.3129C64.6563 33.3129 64.6832 33.3397 64.6832 33.3129C65.3031 32.1836 66.2194 31.1888 66.6776 29.952C66.2194 30.436 65.923 31.0275 65.4648 31.4845C65.4109 31.4577 65.357 31.4308 65.3031 31.4039C65.4109 31.0812 65.5187 30.7855 65.6265 30.4629C65.7343 30.1402 65.8421 29.8445 65.923 29.5218C65.4109 30.0595 64.9797 31.2695 64.6293 33.3129ZM29.5117 28.2044C29.5387 28.3119 29.5926 28.4195 29.6195 28.5001C29.9429 29.6562 30.2933 30.7855 30.6167 31.9416C30.6437 32.0761 30.6976 32.2105 30.8054 32.2912C30.994 32.4525 31.2366 32.5331 31.4792 32.6945C30.7515 31.2157 30.455 29.5756 29.5117 28.2044ZM58.4305 35.0067H58.4575C58.6461 34.1732 58.8617 33.3397 58.9965 32.5062C59.0773 31.9954 59.0234 31.4308 59.0234 30.9199C59.0234 30.8393 58.8887 30.7586 58.8078 30.6779C58.727 30.7586 58.6192 30.8393 58.5653 30.9468C58.5383 31.0006 58.5653 31.1081 58.5653 31.2157C58.5114 32.1836 58.4844 33.1784 58.4305 34.1463C58.4305 34.4421 58.4305 34.7379 58.4305 35.0067ZM26.2776 7.98549C26.1428 7.9586 26.035 7.9586 25.9541 7.90483C25.6577 7.66285 25.496 7.82417 25.2804 8.06615C24.6066 8.84587 23.9328 9.5987 23.259 10.3515C23.1512 10.4591 23.0703 10.5666 22.9895 10.6742C23.0973 10.7011 23.1242 10.6742 23.1781 10.6473C23.9058 9.86757 24.6335 9.08785 25.3882 8.33502C25.496 8.22747 25.6307 8.14681 25.7655 8.03926C25.7924 8.06615 25.8194 8.09304 25.8463 8.11993C25.7924 8.28125 25.7116 8.41568 25.6577 8.55011C25.8733 8.71143 26.0619 8.87276 26.3045 9.06096C26.4393 8.89964 26.5471 8.76521 26.6549 8.60389C26.1697 8.49634 26.1428 8.44257 26.2776 7.98549ZM50.0217 8.36191C51.504 8.76521 52.8785 9.08785 54.3609 8.9803C54.1722 8.22747 54.1722 8.22747 53.148 8.22747C53.3367 8.36191 53.5254 8.49634 53.741 8.63077C53.714 8.68455 53.714 8.73832 53.6871 8.76521C52.4473 8.87276 51.3153 8.41568 50.0217 8.36191ZM45.7634 5.29681C45.7364 5.29681 45.6825 5.29681 45.6556 5.29681C45.6556 5.70011 45.6556 6.10342 45.6556 6.50672C45.6556 6.56049 45.7364 6.64115 45.7903 6.66804C46.6528 7.07134 47.4883 7.50153 48.3507 7.90483C48.3777 7.87794 48.3777 7.85106 48.4046 7.79728C47.7308 7.42087 47.057 7.04445 46.3833 6.66804C46.0329 6.47983 46.0329 6.3454 46.2485 6.02276C46.1676 5.91521 46.0598 5.80766 45.979 5.67323C45.8712 5.56568 45.8442 5.43125 45.7634 5.29681ZM6.89954 14.6803C6.73783 14.9223 6.60307 15.1643 6.44136 15.4062C6.1988 15.7289 5.95624 15.2449 5.63282 15.4062C5.76758 15.5945 5.87539 15.7289 6.03709 15.9171C6.73783 15.5138 7.43856 15.1105 8.11235 14.7341C7.97759 14.5728 7.81588 14.4652 7.73503 14.3039C7.57332 14.0081 7.46552 14.0888 7.30381 14.3039C7.41161 14.4383 7.51942 14.5459 7.62722 14.6534C7.38466 15.0567 7.1421 14.6534 6.89954 14.6803ZM57.3794 36.5124C57.4333 36.5124 57.4872 36.5124 57.5411 36.5393C57.5411 35.3562 57.5681 34.1732 57.5411 33.0171C57.5142 32.3718 57.4333 31.7265 57.3255 31.1081C57.2716 30.8393 57.056 30.5973 56.9212 30.3284C56.8943 30.3553 56.8404 30.3553 56.8134 30.3822C57.2177 31.3501 57.3524 32.3718 57.3794 33.3935C57.3794 34.4421 57.3794 35.4638 57.3794 36.5124ZM38.8369 11.669C38.3518 11.4808 37.8936 11.3195 37.4893 11.1581C37.4893 11.6152 37.4893 12.0723 37.4893 12.5562C37.9475 12.2605 38.4057 11.9379 38.8369 11.669ZM31.1288 29.6025C31.1557 29.5756 31.2096 29.5756 31.2366 29.5487C30.7245 28.2044 30.3742 26.7794 29.5926 25.5426C30.1316 26.8869 30.6437 28.2312 31.1288 29.6025ZM61.5569 38.2331C62.2306 37.2114 62.7966 36.136 63.0122 34.8723C62.5541 36.0015 62.042 37.1308 61.5569 38.2331ZM24.8761 10.2978C24.903 10.2709 24.93 10.244 24.9569 10.244C24.93 10.1902 24.93 10.1364 24.903 10.0827C24.903 9.94823 24.903 9.81379 24.8761 9.67936C25.0108 9.70625 25.1456 9.67936 25.2534 9.73313C25.5499 9.86757 25.7116 9.78691 25.8463 9.38361C25.6846 9.24917 25.496 9.14162 25.3343 9.00719C25.0378 9.35672 24.7683 9.70625 24.4718 10.0827C24.6335 10.1364 24.7683 10.2171 24.8761 10.2978ZM18.1113 17.1539C17.5992 17.5572 16.8176 17.5303 16.4673 18.2025C16.7368 18.3369 17.4106 17.9336 18.1113 17.1539ZM68.6181 23.4992C68.5373 23.8218 68.4295 24.2251 68.3216 24.6284C68.5373 24.3864 68.7259 24.1445 68.8607 23.8756C68.9954 23.5798 69.1841 23.3916 69.5075 23.3379C69.6962 23.311 69.8848 23.2841 70.0735 23.2303C69.8309 23.1765 69.5884 23.1496 69.3727 23.1765C69.1302 23.2303 68.9146 23.3647 68.6181 23.4992ZM9.56772 11.6959C9.45991 11.3732 9.43296 10.9699 8.94784 11.0775C8.84003 11.1044 8.75918 11.185 8.65137 11.2657C8.73223 11.3732 8.78613 11.5614 8.92089 11.5883C9.08259 11.6421 9.32516 11.6421 9.56772 11.6959ZM67.5401 25.9459C67.5131 25.919 67.4862 25.8921 67.4323 25.8652C66.8124 26.6718 66.2194 27.4784 65.5996 28.285C65.6265 28.3119 65.6535 28.3388 65.7074 28.3657C66.3272 27.5591 66.9471 26.7525 67.5401 25.9459ZM29.5117 8.71144C30.1585 8.68455 31.1557 8.73832 32.0451 8.20059C31.1018 8.38879 30.1585 8.577 29.5117 8.71144ZM5.79453 15.9978C5.68673 15.944 5.57892 15.8902 5.49807 15.8633C5.39026 15.8095 5.30941 15.7558 5.2016 15.6751C5.06685 15.7558 4.93209 15.8633 4.77038 15.944C5.0938 16.3742 5.0938 16.3742 5.79453 15.9978ZM48.1081 16.9388C47.7308 17.3152 47.7039 17.4496 47.9734 17.7723C48.4855 17.4228 48.4855 17.369 48.1081 16.9388ZM47.0031 5.1086C47.5691 5.08172 47.4883 4.89351 47.057 4.16757C47.0301 4.46332 47.0031 4.78596 47.0031 5.1086ZM56.5439 26.3492C56.1935 26.3492 55.8162 26.1072 55.7084 26.618C56.0857 26.8869 56.1396 26.86 56.5439 26.3492ZM49.4827 22.3699C49.4557 22.4237 49.4557 22.5044 49.4288 22.5581C50.0217 22.6926 50.6146 22.8539 51.1806 22.9883C51.1806 22.9614 51.2075 22.9345 51.2075 22.8808C50.6416 22.7195 50.0756 22.5312 49.4827 22.3699ZM26.8974 8.28125C26.8974 8.33502 26.8705 8.38879 26.8705 8.44257C27.3826 8.52323 27.8946 8.60389 28.3798 8.68455C28.3798 8.65766 28.3798 8.60389 28.4067 8.577C27.9216 8.49634 27.4095 8.33502 26.8974 8.28125ZM22.3966 13.0671C22.4505 13.094 22.5044 13.094 22.5583 13.1209C22.6122 12.9327 22.693 12.7713 22.7469 12.5831C22.6122 12.5562 22.4505 12.4487 22.3696 12.4756C22.1001 12.6638 22.3157 12.8789 22.3966 13.0671ZM39.6185 11.1312C40.0766 10.9699 40.1036 10.9162 39.9688 10.4322C39.5376 10.6473 39.5376 10.6473 39.6185 11.1312ZM53.3367 12.2067C53.1211 12.0185 52.9594 11.8841 52.8246 11.7765C52.7707 11.8034 52.7438 11.8303 52.6899 11.8572C52.7707 12.0454 52.8516 12.2605 52.9324 12.4487C53.0402 12.368 53.148 12.3143 53.3367 12.2067ZM41.9902 21.1331C42.071 21.7784 42.3136 22.0473 42.6909 22.0204C42.4484 21.7246 42.2058 21.4289 41.9902 21.1331ZM23.8789 10.7011C24.0945 10.7548 24.3101 11.1581 24.5527 10.7279C24.4449 10.5935 24.3371 10.4591 24.2023 10.3246C24.1214 10.4322 24.0136 10.5397 23.8789 10.7011ZM49.1862 15.7289C49.1592 15.7289 49.1323 15.7289 49.1053 15.7558C49.1592 15.9709 49.2131 16.2129 49.294 16.4011C49.3209 16.4548 49.4827 16.4548 49.5905 16.4817C49.5905 16.4011 49.6444 16.2666 49.6174 16.2129C49.4827 16.0246 49.3209 15.8633 49.1862 15.7289ZM15.524 19.036C15.1466 18.8478 14.9849 19.1704 14.6615 19.3317C15.1466 19.5737 15.3084 19.1973 15.524 19.036ZM51.4232 13.7662C51.8005 13.4973 51.8274 13.3897 51.504 13.094C51.0997 13.2553 51.3962 13.5242 51.4232 13.7662ZM55.6545 27.2902C55.6545 27.2633 55.6276 27.2095 55.6276 27.1827C55.5198 27.1289 55.4389 27.0751 55.2502 26.9676C55.1694 27.1827 55.1155 27.344 55.0616 27.5322C55.2772 27.4515 55.4659 27.3709 55.6545 27.2902ZM52.2047 12.4487C52.1778 12.4487 52.1239 12.4756 52.0969 12.4756C52.1239 12.6638 52.1508 12.8789 52.1778 13.1478C52.3665 12.9864 52.4473 12.9327 52.5551 12.8251C52.4204 12.6907 52.3125 12.5562 52.2047 12.4487ZM48.6741 16.3473C48.6202 16.3473 48.5663 16.3742 48.5124 16.3742C48.5933 16.6162 48.6472 16.8581 48.728 17.1001C49.1862 16.7506 48.6741 16.6162 48.6741 16.3473ZM44.1193 6.18408C43.8498 6.21096 43.742 6.23785 43.6073 6.23785C43.6881 6.45294 43.742 6.58738 43.8229 6.85625C43.9576 6.61426 44.0115 6.45294 44.1193 6.18408ZM23.5824 11.0237C23.5555 11.0237 23.5016 10.9968 23.4746 10.9968C23.4746 11.1312 23.3938 11.2926 23.4477 11.3732C23.5016 11.4808 23.6633 11.5077 23.798 11.5614C23.825 11.5345 23.825 11.4808 23.8519 11.4539C23.7711 11.3195 23.6902 11.1581 23.5824 11.0237ZM69.1302 31.0812C69.1032 31.0812 69.0763 31.0544 69.0493 31.0544C68.8607 31.5114 68.6451 31.9416 68.4564 32.3987C68.4834 32.3987 68.5103 32.4256 68.5103 32.4256C68.7259 31.9685 68.9146 31.5114 69.1302 31.0812ZM21.5072 13.5779C21.5072 13.6048 21.5072 13.6586 21.5341 13.6586C21.6419 13.6855 21.7767 13.7393 21.8575 13.7124C21.9384 13.6586 21.9923 13.4973 22.0462 13.3897C21.9384 13.4166 21.8306 13.4435 21.6958 13.4704C21.615 13.4973 21.5611 13.5511 21.5072 13.5779ZM46.6528 18.4176C46.6258 18.4445 46.5719 18.4713 46.545 18.4713C46.5719 18.6058 46.5719 18.7671 46.5989 18.9822C46.7606 18.8478 46.8684 18.7671 46.9762 18.6864C46.8414 18.5789 46.7336 18.4982 46.6528 18.4176ZM47.65 18.068C47.4883 17.9874 47.3535 17.9336 47.2457 17.8798C47.2187 18.0143 47.1918 18.1487 47.1648 18.2831C47.2187 18.31 47.2457 18.31 47.2996 18.3369C47.4074 18.2831 47.4883 18.2025 47.65 18.068ZM43.8768 19.5199C44.0654 19.3855 44.2002 19.3048 44.308 19.1973C44.1193 19.1973 43.9307 19.1973 43.6881 19.1973C43.769 19.3317 43.8229 19.4393 43.8768 19.5199ZM13.826 20.1652C13.7991 20.1114 13.7721 20.0577 13.7721 20.0039C13.5835 20.1114 13.3948 20.1921 13.2062 20.2996C13.2331 20.3534 13.2601 20.3803 13.2601 20.4341C13.4487 20.3534 13.6374 20.2728 13.826 20.1652ZM26.3045 25.5695C26.2776 25.5695 26.2236 25.5695 26.1967 25.5695C26.1967 25.8114 26.1967 26.0534 26.1967 26.2685C26.2236 26.2685 26.2236 26.2685 26.2506 26.2685C26.2506 26.0534 26.2776 25.8114 26.3045 25.5695Z" />
<path d="M31.7218 46.2724C30.4281 46.4874 29.1075 46.4874 27.8138 46.9714C26.4662 47.4823 25.0648 47.9124 23.6633 48.2889C21.8845 48.7728 20.1057 49.1761 18.3269 49.5794C17.4375 49.7676 16.5212 49.8752 15.6049 49.9558C15.2545 49.9827 14.8502 49.9021 14.4998 49.8214C14.0956 49.7139 13.9608 49.3374 14.1495 48.9341C14.419 48.2889 14.958 47.9124 15.5509 47.6436C16.5212 47.2134 17.5184 46.837 18.5156 46.4874C19.1624 46.2723 19.8362 46.1379 20.5369 45.9497C19.7284 45.869 18.9468 45.8422 18.1922 45.7346C17.195 45.5733 16.1978 45.3582 15.2275 45.1162C15.0119 45.0624 14.7963 44.8742 14.6346 44.7129C14.3381 44.4172 14.3651 43.9332 14.6885 43.6912C14.958 43.4761 15.2814 43.261 15.5779 43.2073C16.3056 43.0997 17.0333 43.0997 17.761 43.0459C17.9766 43.0191 18.1922 42.9922 18.4078 42.9922C18.3539 42.7771 18.3 42.5889 18.273 42.4007C18.2461 41.594 18.8929 40.8681 19.7284 40.7337C20.6987 40.5992 21.588 40.8681 22.4505 41.2445C24.4179 42.078 26.4123 42.9115 28.4606 43.5299C29.1883 43.745 29.916 43.9063 30.5898 44.0945C30.3742 43.6643 30.1586 43.2341 29.916 42.804C29.8621 42.7233 29.7813 42.6695 29.7004 42.6157C28.272 41.9436 27.14 40.895 26.1159 39.7657C25.9272 39.5507 25.7655 39.2818 25.9272 39.0667C26.0889 38.8785 26.3854 38.6634 26.6279 38.6634C27.2209 38.6903 27.8138 38.7441 28.3798 38.9323C29.5387 39.2818 30.6976 39.6851 31.8026 40.1422C33.2849 40.7337 34.7133 41.3521 36.2226 41.9974C36.0609 41.7554 35.8992 41.5672 35.7375 41.3521C35.2524 40.653 35.1715 39.8464 35.7375 39.0936C36.1418 38.5558 36.5191 38.045 37.2468 37.9106C37.8397 37.803 38.2709 38.045 38.217 38.6365C38.1631 39.1474 38.0284 39.6851 37.8667 40.1959C37.5971 41.0832 37.7589 41.5672 38.5404 42.0511C39.7263 42.7502 40.9661 43.261 42.3136 43.4761C43.0952 43.6106 43.9038 43.6912 44.7123 43.8525C44.9818 43.9063 45.2244 44.0676 45.4939 44.1752C45.6556 44.229 45.8173 44.3634 45.979 44.3634C47.0571 44.3634 48.1082 44.3365 49.1862 44.3096C49.3479 44.3096 49.5096 44.229 49.6444 44.1752C50.2643 43.9332 50.5068 44.0676 50.6416 44.7129C50.7224 45.1162 50.1565 45.9497 49.7522 46.0035C48.9976 46.111 48.2429 46.1917 47.5152 46.3261C46.2755 46.5681 45.0357 46.837 43.8229 47.1865C42.9066 47.4554 41.9902 47.8318 41.1278 48.2082C39.6994 48.8266 38.7291 49.9558 37.9475 51.2464C37.4893 52.0261 36.9503 52.7521 36.1687 53.2629C35.8992 53.4511 35.6027 53.6124 35.3602 53.3974C35.1715 53.2629 35.1176 52.9134 35.0368 52.6445C35.0098 52.537 35.0098 52.4294 35.0098 52.3488C34.5247 52.7521 34.0935 53.1823 33.5814 53.5318C32.5303 54.2846 31.4522 54.9837 30.3742 55.7096C29.8891 56.0323 29.5926 55.844 29.4848 55.2256C29.377 54.6073 29.6195 54.0426 29.9699 53.5856C30.6437 52.7252 31.3714 51.8917 32.126 51.112C33.3119 49.9021 34.6055 48.7728 36.1148 47.9393C36.8964 47.5091 37.7589 47.2403 38.5674 46.9176C39.349 46.595 40.1306 46.3261 40.9122 45.9228C40.4001 45.9766 39.888 46.0035 39.4029 46.0573C38.8639 46.111 38.3248 46.1648 37.8128 46.2724C35.9262 46.6757 34.0396 47.1058 32.4225 48.2889C31.4253 49.0417 30.455 49.8483 29.4309 50.5473C28.0025 51.5153 26.4932 52.3219 24.7683 52.6983C23.4746 52.9672 22.2079 52.9134 20.9412 52.537C20.8604 52.5101 20.7795 52.4832 20.7526 52.4294C20.2674 51.7841 19.5397 51.9723 18.8929 51.8648C18.3539 51.7573 17.8149 51.7573 17.2758 51.6228C16.7638 51.4884 16.656 50.9775 17.1141 50.6818C17.5184 50.4129 17.9766 50.2247 18.4347 50.1172C19.7823 49.7676 21.1568 49.4719 22.5044 49.1223C24.5257 48.6115 26.5471 48.1544 28.5415 47.5629C29.6195 47.2672 30.6437 46.7563 31.6678 46.353C31.7218 46.3261 31.7218 46.2992 31.7218 46.2724ZM32.9885 52.4294C32.8807 52.5101 32.7459 52.5639 32.665 52.6714C32.2608 53.1016 31.8835 53.5318 31.4792 53.962C31.3714 54.0964 31.2366 54.2846 31.0749 53.9889C31.021 54.0695 30.9671 54.1502 30.9402 54.204C31.0749 54.3115 31.1827 54.419 31.2905 54.4997C32.4764 53.8275 35.1176 51.8648 35.4141 51.1389C34.7133 51.7035 34.1204 52.4025 33.3388 52.8327C33.3119 52.779 33.258 52.7521 33.231 52.6983C34.1743 51.8379 35.1446 50.9775 36.0879 50.0903C36.0609 50.0634 36.034 50.0365 36.034 50.0096C34.7134 51.1926 33.4197 52.3757 32.0991 53.5318C32.0721 53.5049 32.0452 53.478 32.0182 53.4511C32.3416 53.1554 32.665 52.779 32.9885 52.4294C33.2849 52.1337 33.5814 51.8648 33.8779 51.569C33.8509 51.5422 33.824 51.5153 33.797 51.4884C33.5275 51.811 33.258 52.1337 32.9885 52.4294ZM36.6538 51.8379C36.573 51.8917 36.5191 51.9992 36.4382 52.0261C36.3035 52.1068 36.1418 52.1606 35.9801 52.2143C35.9801 52.053 35.9801 51.8917 36.007 51.7035C36.007 51.6497 36.0609 51.5959 36.1148 51.5422C36.5191 51.0582 36.9234 50.5473 37.3546 50.0634C38.3787 48.8535 39.5107 47.8318 41.02 47.2672C41.9094 46.9176 42.8527 46.6488 43.769 46.353C43.3647 46.4068 42.9605 46.4606 42.5562 46.595C41.7476 46.837 40.9122 47.0521 40.1306 47.4016C38.2709 48.2351 36.8695 49.6063 35.8453 51.3808C35.5488 51.8917 35.3063 52.4025 35.468 52.9403C35.5488 52.8058 35.6297 52.6445 35.7375 52.4832C35.8723 52.5907 36.007 52.6983 36.1418 52.8058C36.1687 52.8327 36.1957 52.8865 36.1957 52.9134C36.3035 52.7521 36.4652 52.6176 36.546 52.4294C36.5999 52.295 36.5999 52.053 36.6538 51.8379C36.8964 51.5959 37.139 51.3271 37.3815 51.0851C37.3546 51.0582 37.3007 51.0313 37.2737 51.0044C37.0581 51.2733 36.8695 51.569 36.6538 51.8379ZM15.3623 48.7728C15.7666 48.1275 20.2944 46.6488 23.9867 45.9497C23.5555 45.9766 23.1243 46.0035 22.6931 46.0841C21.4802 46.353 20.2405 46.595 19.0277 46.9445C17.8957 47.2672 16.7907 47.6705 15.6857 48.1007C15.2545 48.262 14.9041 48.6115 14.5537 48.9341C14.2842 49.1761 14.3651 49.3912 14.7155 49.4988C14.9041 49.5525 15.0658 49.5794 15.2545 49.6063C15.6857 49.6332 16.063 49.5257 16.4673 49.2837C16.8985 49.0148 17.4914 48.961 18.0035 48.7997C19.1894 48.4771 20.4022 48.1275 21.588 47.8049C21.588 47.778 21.5611 47.7511 21.5611 47.6973C19.9171 48.1275 18.273 48.5308 16.629 48.961C16.629 48.9073 16.6021 48.8535 16.6021 48.7997C18.5425 47.9662 20.6178 47.536 22.6661 47.0252C24.7144 46.5143 26.7897 46.0035 28.838 45.5195C24.2562 46.1379 19.6476 46.8639 15.3623 48.7728ZM27.9486 44.928C27.9486 44.9011 27.9486 44.8742 27.9486 44.8474C27.2748 44.7667 26.574 44.686 25.9003 44.5785C24.7683 44.4172 23.6633 44.2021 22.5313 44.0407C21.5341 43.9063 20.5639 43.7988 19.5667 43.745C18.1652 43.6643 16.7638 43.6106 15.3623 43.9601C15.2275 43.987 15.1197 44.1214 15.0119 44.2021C15.0928 44.3096 15.1467 44.4978 15.2814 44.5247C15.9013 44.7398 16.5212 44.9549 17.1411 45.0893C18.0305 45.2775 18.9199 45.3851 19.8093 45.5195C20.0518 45.5464 20.2944 45.5195 20.5369 45.5195C20.5369 45.4926 20.5369 45.4657 20.5639 45.412C20.1327 45.2775 19.6206 45.412 19.2702 45.0356C20.1327 45.0893 21.0221 45.1162 21.8845 45.17C20.5908 45.0356 19.2972 44.928 18.0305 44.7667C18.0305 44.7129 18.0305 44.686 18.0305 44.6323C18.4886 44.6323 18.9738 44.6323 19.4319 44.6323V44.6054C18.5695 44.5247 17.7071 44.444 16.8716 44.3634C16.8716 44.3096 16.8716 44.229 16.8985 44.1752C17.7879 44.229 18.6773 44.2558 19.5397 44.3365C20.3752 44.4172 21.2107 44.5516 22.0462 44.6591C22.6931 44.7129 23.3668 44.7667 24.0137 44.7936C25.3343 44.8474 26.6279 44.8742 27.9486 44.928ZM30.2394 47.7242C29.5117 48.0738 28.811 48.4233 28.0833 48.7728C27.706 48.961 27.3287 49.203 26.9244 49.3374C25.1726 50.0365 23.4207 50.7087 21.6689 51.3808C21.4263 51.4615 21.2377 51.6228 20.9951 51.7573C21.9654 52.5907 25.9542 52.1606 26.9244 51.1389C25.9811 51.4077 25.1187 51.8648 24.0945 51.7304C24.2293 51.569 24.364 51.4346 24.5527 51.3808C25.3882 51.0313 26.2776 50.7624 27.0861 50.3054C29.1883 49.0955 31.2366 47.8318 33.3119 46.5681C32.7459 46.8101 32.1799 47.079 31.6409 47.4285C29.35 48.8535 27.0592 50.3054 24.5257 51.2733C24.1754 51.4077 23.825 51.4884 23.4746 51.6228C23.4477 51.569 23.4477 51.5422 23.4207 51.4884C25.7925 50.5205 28.0833 49.2837 30.2394 47.7242ZM28.2181 40.169C28.2181 40.1422 28.245 40.1153 28.245 40.0884C30.1586 40.7337 32.0991 41.3521 34.0126 41.9974C33.9857 41.9167 33.9318 41.8629 33.8779 41.836C32.9615 41.4596 32.0721 41.0294 31.1288 40.6799C30.0238 40.2766 28.8919 39.9271 27.7869 39.5775C27.3826 39.4431 26.9514 39.3893 26.5201 39.5238C26.5471 39.6044 26.5471 39.6313 26.574 39.6582C27.4095 40.5992 28.272 41.4865 29.4309 42.0511C29.7543 42.2124 29.9969 42.32 30.2664 41.9974C29.8621 41.8091 29.4578 41.6209 29.0805 41.4327C29.1075 41.379 29.1075 41.3252 29.1344 41.2983C29.8082 41.5403 30.482 41.7554 31.1827 41.9974C30.8054 41.7823 30.4011 41.6478 29.9969 41.4865C29.6195 41.2983 29.1614 41.2445 28.8649 40.9219C28.8919 40.895 28.8919 40.8412 28.9188 40.8143C30.1047 41.2445 31.2636 41.6747 32.4494 42.1049C32.4494 42.078 32.4764 42.0511 32.4764 41.9974C31.0749 41.379 29.6465 40.7874 28.2181 40.169ZM22.5044 43.3148C22.5044 43.2879 22.5044 43.2879 22.5044 43.261C22.0462 43.1266 21.5611 42.9922 21.1029 42.8846C19.971 42.5889 19.9171 42.5889 19.7554 42.2393C20.1866 42.32 20.5908 42.4275 20.9951 42.5082C20.4022 42.2393 20.4022 42.2393 20.3483 41.9974C23.259 42.7502 26.1698 43.503 29.0805 44.229C28.3528 43.9601 27.6251 43.7988 26.8975 43.5568C25.496 43.0728 24.0945 42.562 22.6931 42.0511C21.7498 41.7016 20.8334 41.2714 19.7823 41.3252C19.3511 41.3521 19.0546 41.5134 18.7851 41.836C18.5425 42.1318 18.5695 42.5082 18.7312 42.7771C18.8121 42.9384 19.1355 43.019 19.3511 43.0728C19.7284 43.1266 20.1327 43.1266 20.4561 43.1535C20.3213 43.0728 20.1057 42.9922 19.8901 42.8846C19.9171 42.8308 19.9171 42.7771 19.944 42.7233C20.8334 42.9384 21.6689 43.1266 22.5044 43.3148ZM37.7589 44.9549C36.1687 44.8742 34.6864 44.4172 33.258 43.745C32.4494 43.3686 31.6678 42.9384 30.8593 42.5351C30.7246 42.4813 30.5628 42.5082 30.4281 42.5082C30.455 42.6695 30.4011 42.8577 30.482 42.9653C30.7246 43.261 30.9671 43.5837 31.2636 43.7719C32.153 44.2558 33.0424 44.686 33.9857 45.0356C34.8481 45.3582 35.7645 45.5195 36.7077 45.5195C35.5758 45.2507 34.4438 45.0356 33.4466 44.3634C34.8481 44.8205 36.3035 45.0087 37.7589 44.9549ZM43.4995 44.6323C43.3378 44.6054 43.1761 44.5247 43.0144 44.5247C42.4214 44.4709 41.8016 44.444 41.2086 44.4172C40.9661 44.3903 40.7235 44.3903 40.4809 44.3634C40.3192 44.3365 40.1575 44.229 39.9958 44.2021C38.8639 44.0676 37.7049 43.9063 36.573 43.7988C35.7914 43.7181 35.0368 43.6912 34.2282 43.6374C37.2198 44.9818 40.3731 44.8205 43.4995 44.6323ZM27.6251 48.3426C26.6549 48.6115 25.7116 48.9073 24.7414 49.1492C23.7442 49.3912 22.747 49.5794 21.7767 49.8214C20.8065 50.0365 19.8632 50.2785 18.8929 50.4936C21.9384 50.3323 24.8761 49.7139 27.6251 48.3426ZM37.2198 41.1639C37.3276 40.6799 37.4354 40.1422 37.5432 39.6044C37.5971 39.3356 37.705 39.0936 37.7589 38.8247C37.8128 38.5558 37.705 38.4483 37.4085 38.4483C36.3304 38.4752 35.4949 39.9002 36.034 40.8143C36.0879 40.9219 36.2226 41.0294 36.3574 41.1639C36.5191 40.5724 36.1687 39.954 36.7617 39.47C36.7886 39.6851 36.8156 39.7926 36.8156 39.8733C36.8964 39.7389 37.0042 39.5775 37.112 39.4162C37.139 39.4431 37.1929 39.4431 37.2198 39.47C37.1659 40.0615 36.9773 40.6799 37.2198 41.1639ZM41.8016 45.1969C41.8016 45.2238 41.8016 45.2507 41.7746 45.2775C41.9363 45.3044 42.0711 45.3313 42.2328 45.3313C43.4456 45.2775 44.6314 45.17 45.8443 45.1162C46.8145 45.0893 47.8117 45.1162 48.782 45.0893C49.1323 45.0893 49.5096 45.0624 49.7522 44.6591C47.084 44.8474 44.4428 45.0356 41.8016 45.1969ZM34.7134 49.3374C34.7403 49.3643 34.7403 49.3912 34.7673 49.4181C35.4949 48.9341 36.2226 48.4771 36.9503 47.9931C36.9234 47.9662 36.8964 47.9124 36.8695 47.8856C36.1418 48.3695 35.4141 48.8535 34.7134 49.3374ZM31.3175 52.6176C30.8054 53.1285 30.2933 53.6662 30.0238 54.4728C30.5089 53.7738 30.9132 53.1823 31.3175 52.6176Z" />
<path d="M47.5422 51.7842C47.2996 51.6766 46.9223 51.5153 46.5719 51.3002C46.3294 51.1389 46.2216 50.8431 46.3833 50.6012C46.7337 50.0903 47.084 49.5795 47.5152 49.1493C47.8387 48.7997 48.2429 48.8535 48.6741 49.2299C48.9437 49.445 49.1593 49.687 49.3749 49.929C49.887 50.5474 49.6174 51.4078 48.8359 51.596C48.5124 51.6766 48.1082 51.7035 47.5422 51.7842ZM47.111 50.4936C47.1379 50.5474 47.1379 50.5743 47.1649 50.628C47.8387 50.5743 48.5394 50.4936 49.321 50.4129C49.1593 50.2247 49.0515 50.0634 48.9437 49.9559C48.0812 49.203 48.1082 49.3106 47.4883 50.0365C47.3266 50.171 47.2188 50.3323 47.111 50.4936Z" />
<path d="M42.6101 52.322C41.9363 52.322 41.3434 52.0531 40.8043 51.6767C40.427 51.4078 40.454 51.139 40.6426 50.7357C40.8852 50.2517 41.1547 49.8484 41.559 49.4989C42.098 49.0418 42.5292 49.0956 42.8257 49.7678C42.9874 50.1442 43.0682 50.5744 43.176 50.9777C43.2569 51.2196 43.3108 51.4885 43.3917 51.7305C43.4725 51.9993 43.3917 52.2144 43.1221 52.2951C42.9604 52.322 42.7718 52.2951 42.6101 52.322ZM42.7179 51.2465C42.5562 50.7626 42.4484 50.3861 42.3406 50.0097C42.2328 49.6602 42.0171 49.7409 41.8554 49.9291C41.6398 50.1442 41.4242 50.3861 41.1547 50.7088C41.6668 50.897 42.1249 51.0314 42.7179 51.2465Z" />
<path d="M23.2859 54.5265C26.008 52.8864 28.9188 51.6227 31.7487 50.2246C31.7756 50.2784 31.8295 50.3322 31.8565 50.3859C31.7487 50.4935 31.6678 50.6279 31.5331 50.7086C30.455 51.327 29.377 51.9454 28.2989 52.51C27.0052 53.1822 25.6577 53.8005 24.3371 54.4458C24.0406 54.5803 23.7172 54.6609 23.3938 54.7416C23.3399 54.6609 23.3129 54.6072 23.2859 54.5265Z" />
<path d="M23.5015 56.113C23.4476 55.656 23.6902 55.5484 23.9328 55.414C25.1725 54.7418 26.3853 54.0696 27.6251 53.4244C28.3797 53.0211 29.1613 52.6178 29.9429 52.2413C30.0777 52.1607 30.2663 52.1607 30.455 52.1338C30.4819 52.1876 30.5089 52.2413 30.5358 52.2682C30.3472 52.4295 30.1855 52.6178 29.9699 52.7522C28.1641 53.7201 26.3584 54.688 24.5257 55.656C24.2023 55.8173 23.8519 55.9517 23.5015 56.113Z" />
<path d="M17.4105 40.8409C16.7906 40.4107 16.036 40.7603 15.5239 40.2763C15.2005 39.9537 15.0927 39.7386 15.3622 39.3891C15.6048 39.0395 15.9282 38.7169 16.2516 38.4749C16.575 38.2329 16.8445 38.5018 17.1141 38.7169C17.3027 38.8782 17.4914 39.0126 17.6531 39.174C17.7339 39.2546 17.7878 39.3622 17.8687 39.4159C17.9765 39.5235 18.0843 39.6579 18.1921 39.7386C18.3538 39.8461 18.4886 39.9537 18.3538 40.115C18.0304 40.3839 17.707 40.6258 17.4105 40.8409ZM16.8176 39.2815C16.6289 39.1202 16.4942 38.9857 16.3594 38.8513C16.0899 39.174 15.7934 39.4159 15.7665 39.873C16.1169 39.6848 16.4133 39.5235 16.8176 39.2815ZM16.1169 40.115C16.1169 40.1688 16.1438 40.1957 16.1438 40.2494C16.3864 40.1957 16.6559 40.1957 16.8985 40.115C16.9793 40.0881 16.9793 39.8461 17.0063 39.631C16.6289 39.8192 16.3864 39.9537 16.1169 40.115Z" />
<path d="M39.5645 36.5393C39.4298 36.62 39.295 36.7544 39.1333 36.7813C38.1631 37.0502 37.1659 37.2922 36.1956 37.5342C35.3062 37.7492 34.3899 37.9643 33.4735 38.1525C33.3657 38.1794 33.231 38.2063 33.0962 38.2063C32.9884 38.1794 32.8537 38.1257 32.7458 38.0719C32.8267 37.9643 32.9076 37.8299 33.0154 37.7761C33.4735 37.6148 33.9587 37.4535 34.4168 37.3191C35.6835 36.9964 36.9772 36.7007 38.2439 36.4049C38.6482 36.3242 39.0525 36.3242 39.4837 36.2974C39.5376 36.4049 39.5645 36.4587 39.5645 36.5393Z" />
<path d="M54.0105 49.3371C53.8757 49.9555 53.8757 49.9555 53.3097 50.1437C52.7977 50.305 52.3395 50.1437 51.9352 49.8479C51.504 49.4984 51.504 48.88 51.8543 48.4498C52.4742 47.6701 52.9055 47.6163 53.7409 48.5843C53.8757 48.7725 53.9296 49.0682 54.0105 49.3371ZM52.1508 48.9069C52.4473 48.9876 52.7168 49.0682 53.0133 49.122C53.0941 49.1489 53.2558 49.122 53.2828 49.0682C53.3097 49.0144 53.2828 48.8531 53.2289 48.7994C52.8246 48.3423 52.5281 48.181 52.1508 48.9069Z" />
<path d="M52.2856 51.8916C52.2856 52.6175 51.9083 52.8864 51.2075 52.6444C51.0189 52.5906 50.8033 52.51 50.6146 52.4562C50.3451 52.3487 50.2373 52.1604 50.3451 51.8647C50.399 51.6765 50.399 51.4614 50.4798 51.2732C50.6685 50.8699 51.1536 50.5741 51.4501 50.6279C51.9083 50.7086 52.2856 51.1925 52.3125 51.6765C52.2856 51.7303 52.2856 51.8109 52.2856 51.8916ZM51.8005 51.6496C51.6657 51.4345 51.5579 51.3001 51.477 51.1656C51.3153 51.3001 51.1536 51.4345 50.9919 51.5689C51.0189 51.5958 51.0189 51.6227 51.0458 51.6496C51.2345 51.6496 51.4501 51.6496 51.8005 51.6496Z" />
<path d="M45.979 40.3037C45.8442 40.3843 45.7095 40.5188 45.5478 40.5725C44.2811 41.0296 43.0143 41.4598 41.7746 41.89C41.5859 41.9706 41.3703 41.9975 41.1547 41.9975C41.0739 41.9975 40.966 41.9169 40.8852 41.8631C40.9391 41.7824 40.966 41.648 41.0469 41.5942C41.3164 41.4329 41.5859 41.2985 41.8824 41.1909C42.8796 40.8414 43.9037 40.4919 44.9279 40.1961C45.2513 40.0886 45.6286 40.1424 45.979 40.1424C45.952 40.223 45.952 40.2768 45.979 40.3037Z" />
<path d="M43.176 42.6423C43.1221 42.5885 42.9874 42.5616 42.9335 42.4541C42.9065 42.4003 43.0143 42.239 43.0952 42.2121C43.5534 41.997 44.0385 41.755 44.5236 41.5937C45.413 41.2979 46.3024 41.0559 47.1918 40.7871C47.3265 40.7602 47.4883 40.8409 47.65 40.8946C47.5422 41.0291 47.4613 41.1904 47.3265 41.2442C46.0868 41.7012 44.847 42.1314 43.6342 42.5616C43.4995 42.5885 43.3647 42.6154 43.176 42.6423Z" />
<path d="M44.0924 39.6584C43.9307 39.7391 43.7959 39.8735 43.6072 39.9273C42.2866 40.3843 40.993 40.8145 39.6723 41.2447C39.4837 41.2985 39.2681 41.2716 39.0794 41.2985C39.0525 41.2447 39.0255 41.1909 39.0255 41.1103C39.2142 40.9759 39.3489 40.7876 39.5645 40.7339C40.7504 40.3306 41.9632 39.9541 43.176 39.5777C43.4725 39.4971 43.7689 39.524 44.0924 39.4971C44.0385 39.5508 44.0654 39.6046 44.0924 39.6584Z" />
<path d="M42.4214 39.0399C41.0469 39.4432 39.7532 40.0616 38.2979 40.2498C38.2709 40.196 38.244 40.1423 38.1901 40.0885C38.2979 39.9809 38.3787 39.8465 38.5135 39.7658C39.6185 39.3088 40.7504 38.9055 41.9633 38.7173C42.098 38.6904 42.2597 38.771 42.3945 38.8248C42.3945 38.9055 42.4214 38.9861 42.4214 39.0399Z" />
<path d="M49.1592 41.7555C48.9167 41.863 48.7011 42.0244 48.4316 42.105C47.6769 42.3739 46.9223 42.589 46.1676 42.831C46.0868 42.8578 46.0059 42.8847 45.952 42.8847C45.8442 42.8578 45.6825 42.831 45.6556 42.7503C45.6286 42.6696 45.6825 42.4814 45.7634 42.4277C45.952 42.2932 46.1676 42.1857 46.3833 42.1319C47.1109 41.9168 47.8656 41.7286 48.5933 41.5673C48.755 41.5404 48.9167 41.5673 49.1053 41.5942C49.1323 41.6479 49.1592 41.7017 49.1592 41.7555Z" />
<path d="M26.035 56.1397C25.9811 56.1128 25.8194 56.059 25.7924 55.9784C25.7655 55.8977 25.8194 55.7095 25.9002 55.6557C26.2506 55.4675 26.601 55.3062 26.9513 55.1449C27.3825 54.9567 27.8407 54.7416 28.2989 54.6071C28.4336 54.5534 28.6223 54.6609 28.784 54.6878C28.7032 54.7953 28.6223 54.9567 28.5145 55.0373C27.7868 55.4137 27.0591 55.7364 26.3045 56.0859C26.2506 56.1128 26.1697 56.1128 26.035 56.1397Z" />
<path d="M40.3192 38.2335C40.4001 38.2335 40.5079 38.2066 40.5887 38.2335C40.6696 38.2603 40.7504 38.3141 40.7774 38.3679C40.8043 38.3948 40.7235 38.5292 40.6965 38.5561C40.1036 38.7443 39.5107 38.9325 38.8908 39.0938C38.8369 39.1207 38.6752 38.9863 38.6752 38.9594C38.7021 38.8518 38.756 38.6636 38.8369 38.6368C39.322 38.4754 39.8071 38.341 40.3192 38.1797C40.3192 38.2066 40.3192 38.2335 40.3192 38.2335Z" />
<path d="M48.9706 43.2071C48.8358 43.0995 48.6741 43.0189 48.6471 42.9113C48.6202 42.7769 48.6741 42.5349 48.755 42.508C49.0514 42.4005 49.3479 42.3198 49.6713 42.3198C49.8869 42.3198 50.0217 42.5349 49.8061 42.6962C49.5635 42.9113 49.267 43.0189 48.9706 43.2071Z" />
<path d="M36.007 38.4217C35.8722 38.5023 35.7644 38.583 35.6027 38.6367C35.3062 38.7443 35.0098 38.8249 34.7133 38.9056C34.6325 38.9325 34.4977 38.8518 34.3899 38.8249C34.4168 38.7174 34.4438 38.5561 34.4977 38.5023C34.9559 38.2872 35.414 38.1528 35.9261 38.2872C35.9531 38.341 35.98 38.3948 36.007 38.4217Z" />
<path d="M28.5145 56.0859C28.5684 56.1666 28.784 56.3548 28.7301 56.4086C28.5684 56.6237 28.3798 56.8119 28.1911 57.0001C28.0563 56.8656 27.8407 56.7581 27.7868 56.5968C27.7329 56.3817 28.1103 56.0859 28.5145 56.0859Z" />
<path d="M32.3956 48.7728C33.0694 48.5039 33.6353 48.2889 34.3091 48.0469C34.0666 48.6115 32.7998 49.1223 32.3956 48.7728Z" />
<path d="M38.5673 37.7493C38.5134 37.6955 38.3517 37.6417 38.3248 37.561C38.2978 37.4804 38.4056 37.3191 38.4865 37.2922C38.8369 37.2115 39.2142 37.1846 39.5646 37.1309C39.6185 37.1309 39.6993 37.2115 39.7532 37.2653C39.6993 37.346 39.6724 37.4535 39.5915 37.4804C39.295 37.5879 38.9447 37.6417 38.5673 37.7493Z" />
<path d="M33.6083 49.4988C33.2579 49.6601 32.9884 49.7945 32.7189 49.9021C32.665 49.929 32.5302 49.8752 32.5033 49.8214C32.4763 49.7676 32.5033 49.6601 32.5302 49.6063C32.7189 49.3643 33.204 49.2837 33.6083 49.4988Z" />
<path d="M46.0598 27.344C46.2754 26.86 46.7066 26.6449 47.1648 26.5374C47.9195 26.3492 48.6741 26.2685 49.4287 26.1341C50.4259 25.919 51.4231 25.7308 52.3934 25.4619C53.0941 25.2737 53.7679 24.9779 54.4417 24.7091C54.5225 24.6822 54.5765 24.6553 54.6573 24.6284C54.6843 24.6553 54.6843 24.6822 54.7112 24.736C54.5225 24.8704 54.3339 25.0855 54.1183 25.1662C52.9055 25.6501 51.6927 26.1341 50.4798 26.5643C49.3748 26.9676 48.2159 27.0213 47.084 27.1558C46.8953 27.1827 46.7067 27.2633 46.518 27.344C46.3832 27.3978 46.2485 27.4246 46.1137 27.4784C46.0868 27.4246 46.0598 27.3978 46.0598 27.344Z" />
<path d="M41.7206 30.1938C42.071 32.8556 43.0952 35.2755 44.1463 37.7222C43.9846 37.9104 43.8228 37.9104 43.6342 37.5877C43.3108 37.0231 42.9604 36.4585 42.7717 35.8401C42.3405 34.4689 42.0171 33.0439 41.6667 31.6457C41.5589 31.1887 41.5859 30.7047 41.532 30.2207C41.6128 30.2207 41.6667 30.1938 41.7206 30.1938Z" />
<path d="M35.414 24.333C35.0636 26.5108 35.6566 28.6349 35.7913 30.759C35.7374 30.7858 35.6835 30.7858 35.6296 30.8127C35.5218 30.6514 35.3601 30.517 35.3332 30.3557C35.1445 29.5759 34.9019 28.7962 34.848 27.9896C34.7941 27.0486 34.875 26.0807 34.9289 25.1396C34.9558 24.8439 35.0367 24.4943 35.414 24.333Z" />
<path d="M49.8061 28.3121C50.1834 28.3121 50.3182 28.5541 50.2912 28.9036C50.2373 29.5489 50.2643 30.1942 50.2373 30.8395C50.2373 31.0546 50.1834 31.2697 50.1026 31.4848C49.9948 31.7536 49.7792 31.7805 49.6175 31.5385C49.5097 31.3772 49.4557 31.2159 49.4288 31.0277C49.321 30.4362 49.2132 29.8715 49.1323 29.28C49.0515 28.7692 49.294 28.2852 49.8061 28.3121Z" />
<path d="M48.0812 31.3771C48.0003 31.2427 47.8925 31.1351 47.8656 31.0007C47.6769 30.3285 47.4344 29.6833 47.2996 29.0111C47.2457 28.7153 47.3535 28.3927 47.4344 28.07C47.4613 27.9894 47.65 27.8818 47.7578 27.8818C47.8925 27.8818 48.0812 27.9894 48.1082 28.0969C48.2699 28.5809 48.4585 29.0917 48.5394 29.5757C48.6202 29.9521 48.5933 30.3823 48.5394 30.7587C48.5124 30.9738 48.3238 31.1889 48.216 31.3771C48.1621 31.3771 48.1351 31.3771 48.0812 31.3771Z" />
<path d="M38.6482 23.2036C38.5135 24.6823 38.4056 26.188 38.2709 27.6668C38.2709 27.7474 38.19 27.8281 38.1361 27.9356C38.0822 27.855 38.0283 27.7743 38.0014 27.6668C37.8666 26.9139 37.8127 26.188 37.9744 25.4352C38.0553 25.0319 37.9744 24.6286 38.0014 24.2253C38.0553 23.58 38.1631 22.9347 38.2709 22.2894C38.2978 22.1819 38.4056 22.1012 38.4595 21.9937C38.5135 22.1012 38.5943 22.2087 38.6213 22.3163C38.6482 22.612 38.6213 22.9078 38.6213 23.2036C38.6213 23.2036 38.6213 23.2036 38.6482 23.2036Z" />
<path d="M55.7084 25.1396C55.0347 25.4891 54.3878 25.8924 53.6871 26.1613C52.7168 26.5646 51.6927 26.9141 50.6685 27.2368C50.2104 27.3712 49.6983 27.3981 49.2132 27.4788C49.1054 27.5056 48.9706 27.4519 48.8628 27.3712C50.0487 27.0217 51.2615 26.7528 52.4204 26.3226C53.5793 25.8924 54.6843 25.3278 55.924 24.7632C55.8162 24.9514 55.7623 25.0321 55.7084 25.1396Z" />
<path d="M41.586 29.7368C41.4243 29.5755 41.2086 29.4679 41.1547 29.2797C40.993 28.8495 40.8313 28.3925 40.8044 27.9354C40.7505 27.2901 40.7774 26.6179 40.7774 25.9726C40.7774 25.8382 40.9391 25.7038 41.02 25.5693C41.1008 25.7038 41.2626 25.8382 41.2895 25.9995C41.3434 26.833 41.3165 27.6934 41.3973 28.5269C41.4243 28.9033 41.586 29.2797 41.6938 29.6561C41.6399 29.6561 41.6129 29.7099 41.586 29.7368Z" />
<path d="M34.2822 12.5835C34.4439 13.0137 34.0126 14.9226 33.7162 15.1377C33.3927 14.7344 33.824 12.8793 34.2822 12.5835Z" />
<path d="M44.874 23.472C45.6016 23.3913 46.3024 23.3107 47.0301 23.2031C46.7605 23.5795 45.1435 23.8215 44.9009 23.6064C44.874 23.5795 44.874 23.5258 44.874 23.472Z" />
<path d="M35.6027 23.1765C35.2793 22.9076 35.1714 21.9935 35.441 21.7784C35.4949 21.7246 35.7374 21.7784 35.7644 21.8053C35.7913 22.2623 35.7913 22.7194 35.6027 23.1765Z" />
<path d="M34.1473 18.6864C34.1743 18.6057 34.1473 18.4444 34.2282 18.3906C34.309 18.31 34.4977 18.2024 34.5786 18.2293C34.6594 18.2562 34.7403 18.4444 34.7672 18.5788C34.7672 18.7133 34.7133 18.8746 34.6594 19.009C34.6055 19.1166 34.5247 19.2241 34.4438 19.3317C34.3629 19.2241 34.2551 19.1435 34.2012 19.0359C34.1473 18.9284 34.1743 18.8208 34.1473 18.6864Z" />
<path d="M39.1873 26.7794C38.9716 26.5643 38.8638 25.8115 39.0256 25.5695C39.0795 25.5157 39.1603 25.4619 39.2412 25.4351C39.2681 25.4351 39.3759 25.5157 39.3759 25.5695C39.3759 25.9728 39.349 26.3761 39.349 26.7525C39.2681 26.7794 39.2142 26.7794 39.1873 26.7794Z" />
<path d="M33.6623 15.7288C33.5275 15.9977 33.4197 16.2128 33.3119 16.4279C33.231 16.2666 33.0963 16.1052 33.0693 15.917C33.0154 15.7019 33.0693 15.46 33.3388 15.46C33.4197 15.46 33.5275 15.6213 33.6623 15.7288Z" />
<path d="M51.0189 24.0906C50.7764 24.1713 50.5338 24.2788 50.3182 24.3326C50.2643 24.3595 50.1295 24.2519 50.1295 24.225C50.1295 24.1444 50.1834 24.01 50.2373 23.9831C50.4799 23.9293 50.7225 23.9024 50.992 23.8486C50.992 23.9293 51.0189 24.01 51.0189 24.0906Z" />
<path d="M37.4084 22.639C37.3006 22.8272 37.1928 22.9885 37.085 23.1498C37.0311 23.0423 36.8964 22.9347 36.9233 22.854C36.9772 22.6927 37.112 22.5583 37.1928 22.397C37.2737 22.4776 37.3276 22.5314 37.4084 22.639Z" />
<path d="M36.3843 18.9282C36.1417 18.7938 36.0878 18.3367 36.2765 18.2023C36.3304 18.1754 36.4112 18.1754 36.4382 18.2023C36.4921 18.2561 36.4921 18.3367 36.519 18.4174V18.4443C36.4921 18.6056 36.4382 18.7669 36.3843 18.9282Z" />
<path d="M52.3664 18.4981C52.4203 18.3905 52.5011 18.1754 52.6629 18.0679C52.9593 17.8528 53.3097 17.6377 53.6601 17.5033C53.9835 17.3688 54.4416 17.7452 54.5225 18.1754C54.5494 18.283 54.5764 18.4174 54.6572 18.4981C54.8998 18.7669 54.8998 18.9014 54.5764 19.0627C54.226 19.224 53.8757 19.3853 53.5253 19.4929C53.2019 19.6004 52.3664 18.9283 52.3664 18.4981ZM52.9324 18.5787C52.9593 18.6056 52.9863 18.6594 53.0402 18.6863C53.2288 18.6056 53.4983 18.6325 53.4175 18.1754C53.2288 18.3636 53.0671 18.4712 52.9324 18.5787Z" />
<path d="M50.4259 21.0793C50.5607 20.9987 50.6954 20.8642 50.8302 20.8105C52.043 20.434 53.2289 20.0576 54.4417 19.6812C54.5225 19.6543 54.6034 19.6543 54.6842 19.6274C54.7112 19.6543 54.7381 19.6812 54.7651 19.7081C54.6573 19.8156 54.5764 19.977 54.4417 20.0307C53.5792 20.3534 52.7168 20.6491 51.8543 20.9449C51.5579 21.0524 51.2344 21.1062 50.911 21.16C50.7493 21.1869 50.5876 21.16 50.4529 21.16C50.4529 21.16 50.4529 21.1062 50.4259 21.0793Z" />
<path d="M40.3462 16.1862C41.586 15.998 42.8257 15.8098 44.1463 15.6216C44.0116 16.0518 43.6612 16.0787 43.3917 16.1055C42.4484 16.24 41.4781 16.2937 40.5079 16.3744C40.454 16.3744 40.4001 16.3475 40.3462 16.3206C40.3731 16.2937 40.3462 16.24 40.3462 16.1862Z" />
<path d="M61.8803 17.4492C61.6916 18.0138 59.805 19.3851 59.266 19.3313C60.1284 18.6591 60.8022 17.8256 61.8803 17.4492Z" />
<path d="M57.0829 21.2133C57.7567 20.7562 58.4575 20.2723 59.2391 20.0303C59.266 20.0572 59.293 20.084 59.3199 20.1109C59.266 20.2185 59.266 20.3529 59.1852 20.4067C58.5383 20.7562 57.8915 21.1864 57.0829 21.2133Z" />
<path d="M57.8645 18.74C57.5142 18.9013 57.1638 19.0627 56.7595 19.224C56.8943 18.7669 57.4872 18.4443 57.8106 18.6056C57.8376 18.6594 57.8376 18.6863 57.8645 18.74Z" />
<path d="M45.2513 15.8095C45.1165 15.7288 45.0357 15.675 44.9279 15.6213C45.0087 15.5406 45.0896 15.4062 45.1704 15.4062C45.3591 15.3793 45.5477 15.4062 45.7364 15.433C45.7364 15.433 45.7634 15.5406 45.7634 15.5675C45.6286 15.6213 45.4399 15.7019 45.2513 15.8095Z" />
<path d="M46.8684 16.4009C46.7067 16.4547 46.6258 16.5353 46.545 16.5084C46.4641 16.4815 46.3833 16.4009 46.3024 16.3471C46.3833 16.2933 46.4641 16.1858 46.545 16.1858C46.6258 16.1589 46.7067 16.2665 46.8684 16.4009Z" />
<path d="M8.9209 21.1868C8.94785 21.1599 9.00175 21.0523 9.05566 20.9717C9.13651 21.0523 9.27127 21.1061 9.29822 21.1868C9.54078 21.9396 9.75639 22.6924 9.972 23.4453C10.0259 23.6066 10.0798 23.7679 10.0798 23.9023C10.0798 24.0637 9.972 24.1981 9.9181 24.3325C9.78334 24.2519 9.56773 24.1981 9.51383 24.0637C9.35212 23.6872 9.24432 23.2839 9.16346 22.9075C9.05566 22.3698 9.00175 21.8052 8.9209 21.1868Z" />
<path d="M9.05566 27.4784C8.94786 27.344 8.7592 27.2096 8.7053 27.0482C8.51664 26.3761 8.32798 25.7039 8.19322 25.0048C8.16627 24.8973 8.30103 24.7629 8.35493 24.6284C8.43578 24.7091 8.59749 24.7629 8.62444 24.8435C8.84005 25.677 9.00176 26.5374 9.19042 27.3978C9.13652 27.4246 9.08262 27.4515 9.05566 27.4784Z" />
<path d="M7.54633 28.2854C7.54633 28.0972 7.54633 27.909 7.54633 27.7208C7.54633 27.6939 7.65413 27.6939 7.73498 27.667C7.76194 27.8552 7.76194 28.0703 7.78889 28.2585C7.70803 28.2585 7.62718 28.2854 7.54633 28.2854Z" />
<path d="M19.2972 18.982C19.5936 18.5249 19.9979 18.498 20.3483 18.3636C20.9412 18.1216 21.5611 17.9334 22.154 17.7183C22.2349 17.6914 22.2888 17.6646 22.3696 17.6646C22.4774 17.6646 22.5583 17.7183 22.6661 17.7452C22.6122 17.8259 22.5852 17.9603 22.5044 18.0141C22.2349 18.1485 21.9384 18.2561 21.6419 18.3636C20.9951 18.5787 20.3483 18.7669 19.7015 18.9551C19.5936 18.982 19.4858 18.9551 19.2972 18.982Z" />
<path d="M20.8065 20.891C20.7256 20.9179 20.6448 20.9717 20.5639 20.9986C20.0788 21.133 19.6206 21.2674 19.1355 21.375C19.0546 21.4019 18.9199 21.2943 18.8121 21.2405C18.866 21.1599 18.9199 20.9986 19.0277 20.9717C19.5667 20.7835 20.1327 20.7028 20.6987 20.7566C20.7256 20.7835 20.7795 20.8372 20.8065 20.891Z" />
<path d="M28.9187 19.4662C28.6223 19.735 28.3258 19.8157 27.9755 19.7888C27.8946 19.7888 27.8137 19.7081 27.7868 19.6544C27.7598 19.6275 27.8407 19.5199 27.8677 19.4662C28.1102 19.2242 28.5684 19.2242 28.9187 19.4662Z" />
<path d="M25.9272 18.0412C25.5229 18.2294 25.1187 18.4445 24.6874 18.6058C24.6605 18.6058 24.5527 18.5521 24.5527 18.5252C24.5527 18.4445 24.5796 18.337 24.6335 18.3101C25.0108 18.0681 25.4151 17.9337 25.8463 17.8799C25.8733 17.9337 25.9002 17.9874 25.9272 18.0412Z" />
<path d="M23.7172 19.7081C23.4208 20.0307 22.9895 20.0576 22.6122 20.1921C22.5853 20.1921 22.5044 20.1114 22.4505 20.0845C22.5044 20.0307 22.5314 19.9232 22.5853 19.8963C22.9356 19.7888 23.3129 19.7081 23.6633 19.6274C23.6903 19.6274 23.6903 19.6812 23.7172 19.7081Z" />
<path d="M12.5863 18.0411C11.9125 17.9604 11.67 17.7722 11.5083 17.1807C11.3196 16.4279 11.4544 16.0246 12.1281 15.675C12.3168 15.5675 12.5055 15.4599 12.6672 15.7557C12.6941 15.7826 12.748 15.8364 12.775 15.8364C13.2062 15.8901 13.2871 16.2397 13.314 16.5623C13.341 16.8043 13.3679 16.9656 13.6105 17.1C13.853 17.2345 13.853 17.5033 13.6105 17.6378C13.314 17.7991 12.9367 17.9066 12.5863 18.0411ZM12.6133 16.0515C12.5594 16.0246 12.5055 16.0246 12.4516 15.9977C12.3438 16.2128 12.2629 16.4548 12.1551 16.6699C12.3168 16.6967 12.5055 16.7505 12.7211 16.8043C12.6941 16.5085 12.6402 16.2934 12.6133 16.0515Z" />
<path d="M16.9793 30.436C16.9254 30.5436 16.9254 30.6511 16.8715 30.678C16.8176 30.7049 16.7098 30.6511 16.6559 30.5974C16.5212 30.4091 16.3864 30.2209 16.2786 30.0327C16.2517 29.9521 16.3325 29.7907 16.4134 29.737C16.4673 29.7101 16.6559 29.7639 16.7098 29.8445C16.8176 30.0327 16.8715 30.2478 16.9793 30.436Z" />
<path d="M69.3728 18.9552C69.5076 18.6325 69.6693 18.3099 69.9657 18.0948C70.0196 18.0679 70.1544 18.0679 70.1814 18.1217C70.2353 18.1486 70.2353 18.3099 70.2083 18.3368C69.9657 18.5788 69.7232 18.8208 69.4806 19.0627C69.4537 19.0358 69.3998 19.009 69.3728 18.9552Z" />
<path d="M59.7511 29.3066C61.3412 28.3387 62.9044 27.3976 64.4945 26.4297C64.5215 26.4297 64.5485 26.4566 64.5485 26.4566C64.4676 26.5641 64.3867 26.6717 64.2789 26.7792C63.2009 27.7203 61.9611 28.3655 60.6944 29.0108C60.3979 29.1453 60.1015 29.3066 59.832 29.441C59.805 29.3872 59.7781 29.3604 59.7511 29.3066Z" />
<path d="M62.6349 24.8433C62.6888 24.8701 62.7427 24.897 62.7966 24.9508C62.8236 24.9777 62.7966 25.0852 62.7427 25.1121C62.581 25.2197 62.3924 25.3541 62.2037 25.4348C62.1498 25.4617 61.9611 25.4079 61.9611 25.3541C61.9342 25.2735 61.9881 25.1121 62.042 25.0852C62.2037 24.9777 62.4193 24.9239 62.6349 24.8433Z" />
<path d="M65.3031 25.5156C65.4379 25.3811 65.5726 25.2736 65.7343 25.1392C65.7882 25.1929 65.8152 25.2467 65.8691 25.3005C65.7343 25.4349 65.5996 25.5425 65.4648 25.6769C65.4109 25.65 65.357 25.5693 65.3031 25.5156Z" />
<path d="M57.5142 13.3898C57.6489 13.094 57.7567 12.7983 57.9184 12.5563C58.0532 12.3681 58.2419 12.395 58.5114 12.4218C59.1043 12.4487 59.2121 12.9865 59.5625 13.2016C59.6164 13.2284 59.6703 13.4167 59.6433 13.4704C59.4277 13.8737 58.4036 14.3308 58.0262 14.1157C57.6759 13.9006 57.5681 13.7931 57.5142 13.3898Z" />
<path d="M45.0627 2.95764C44.874 3.09208 44.7123 3.2534 44.5237 3.33406C43.8499 3.54915 43.1491 3.71047 42.4754 3.89868C42.3945 3.92557 42.2598 3.92557 42.1789 3.87179C42.0711 3.84491 42.0172 3.73736 41.9363 3.68359C42.0172 3.60293 42.0711 3.49538 42.1519 3.46849C42.2867 3.41472 42.4484 3.38783 42.5832 3.38783C43.3648 3.44161 44.1194 3.28029 44.7932 2.90387C44.8471 2.87698 44.874 2.87698 44.9279 2.8501C44.9549 2.8501 44.9818 2.8501 45.0088 2.87698C45.0088 2.90387 45.0357 2.93076 45.0627 2.95764Z" />
<path d="M45.413 3.57627C45.3591 3.63004 45.3322 3.7107 45.2513 3.73759C44.6853 3.95268 44.1194 4.19466 43.5534 4.40976C43.4725 4.43664 43.3647 4.43664 43.2839 4.43664C43.1222 4.40976 42.9874 4.3291 42.8257 4.27532C42.9604 4.19466 43.0952 4.06023 43.2569 4.03334C43.7151 3.89891 44.2002 3.76447 44.6853 3.65693C44.9009 3.60315 45.1166 3.54938 45.3322 3.49561C45.3591 3.52249 45.3861 3.54938 45.413 3.57627Z" />
<path d="M45.6286 4.62456C45.3052 4.7321 45.0088 4.86654 44.6853 4.97408C44.4967 5.02786 44.308 5.08163 44.1194 5.08163C44.0385 5.08163 43.9307 5.00097 43.8499 4.9472C43.9038 4.86654 43.9307 4.70522 44.0116 4.67833C44.6045 4.49012 45.1974 4.3288 45.8173 4.16748C45.8443 4.19437 45.8712 4.24814 45.8982 4.27503C45.7634 4.40946 45.6825 4.51701 45.6286 4.62456Z" />
<path d="M38.1901 7.52846C38.4596 7.07138 40.3731 6.74874 40.966 7.07138C40.0497 7.4478 39.1603 7.60912 38.1901 7.52846Z" />
<path d="M39.6723 6.47981C39.5106 6.45292 39.3489 6.45292 39.1872 6.42603C39.1603 6.42603 39.1872 6.2916 39.1872 6.21094C39.3489 6.21094 39.5376 6.21094 39.6993 6.21094C39.6993 6.31849 39.6723 6.39915 39.6723 6.47981Z" />
</g>
<defs>
<clipPath id="clip0">
<rect width="77" height="57" />
</clipPath>
</defs>
</svg>
