<svg width="58" height="45" viewBox="0 0 58 45"  xmlns="http://www.w3.org/2000/svg">
<g >
<path d="M28.987 45.0001C24.1859 45.0001 19.359 45.0001 14.558 45.0256C13.9901 45.0256 13.6287 44.745 13.2674 44.4644C12.1058 43.597 10.9185 42.7297 9.83435 41.7858C7.12407 39.4134 4.85259 36.6328 3.1748 33.4185C2.34881 31.8113 1.67769 30.1532 1.18726 28.444C0.825891 27.1175 0.464521 25.7909 0.361272 24.4389C0.206399 23.0358 0.128962 21.6583 -9.86445e-05 20.3062C-0.0259108 19.9746 0.10315 19.8726 0.438709 19.8726C3.69104 19.8726 6.91757 19.8726 10.1699 19.8726C23.0502 19.8726 35.9563 19.8726 48.8366 19.8726C51.7533 19.8726 54.6701 19.8726 57.5869 19.8726C57.9225 19.8726 58.0515 19.9746 58.0257 20.3062C57.9483 21.5307 57.9225 22.7807 57.7676 24.0052C57.5095 26.046 57.0448 28.0613 56.3479 30.0001C55.3412 32.8062 53.8958 35.3828 52.0373 37.7552C49.8174 40.5868 47.133 42.9083 44.1387 44.8981C44.0355 44.9746 43.8548 45.0001 43.6999 45.0001C39.2602 45.0001 34.8205 45.0001 30.4067 45.0001C29.9162 45.0001 29.4516 45.0001 28.987 45.0001ZM45.9714 33.5205C45.9972 33.5715 46.023 33.6226 46.0488 33.6481C46.4877 33.597 47.0039 33.6481 47.3653 33.444C48.2945 32.8828 49.0947 32.1685 49.7916 31.3266C51.392 29.4389 52.1922 27.296 52.2438 24.847C52.2438 24.5664 52.1663 24.4899 51.8824 24.4899C50.7209 24.5154 49.5335 24.4899 48.3719 24.4899C48.2945 24.4899 48.1913 24.5154 48.0622 24.5154C48.2945 27.7552 47.3911 30.6889 45.9714 33.5205Z" />
<path d="M12.2092 17.5764C12.4673 17.1427 12.6996 16.7601 12.9061 16.3774C13.1642 15.8162 13.0093 15.5611 12.3899 15.5611C11.6929 15.5611 11.0218 15.6887 10.4023 15.9948C9.80863 16.2754 9.65376 16.7346 9.91188 17.3213C10.0151 17.5764 9.93769 17.6274 9.70538 17.6274C8.0534 17.6274 6.40142 17.6274 4.74944 17.6019C4.62038 17.6019 4.41389 17.4489 4.38807 17.3213C3.97508 15.9693 3.74277 14.5662 3.84602 13.1631C4.07833 9.66824 5.498 6.70906 8.20828 4.41314C9.65376 3.18865 11.3316 2.34681 13.19 1.88763C14.7129 1.50498 16.2617 1.37743 17.8104 1.60702C20.8304 2.04069 23.3858 3.34171 25.4508 5.58661C26.7156 6.96416 27.5932 8.54579 28.1353 10.3315C28.6515 12.0152 28.7548 13.7244 28.5225 15.4591C28.445 16.0713 28.2644 16.6835 28.1095 17.3213C28.0579 17.5764 27.903 17.6784 27.6449 17.6784C22.6373 17.6784 17.6297 17.6784 12.6222 17.6784C12.4673 17.6274 12.3382 17.6019 12.2092 17.5764ZM20.2884 11.556C20.2884 11.5815 20.2884 11.5815 20.3142 11.607C20.8563 11.4795 21.4241 11.4029 21.9662 11.2244C22.405 11.0713 22.7922 10.8162 22.7664 10.255C22.7664 9.69375 22.3534 9.08151 21.8113 8.87743C21.3209 8.69885 20.9853 8.97947 20.6756 9.28559C20.2109 9.77028 19.798 10.3315 19.5915 10.9948C19.514 11.2754 19.5915 11.4284 19.8496 11.505C20.0044 11.5305 20.1593 11.5305 20.2884 11.556ZM23.5665 14.6427C23.5149 14.0305 23.1793 13.6223 22.6631 13.5968C21.8887 13.5458 21.166 13.6478 20.4433 13.954C20.0044 14.1325 19.9528 14.4131 20.2626 14.7448C20.753 15.255 21.3467 15.6376 22.0178 15.8927C22.5599 16.0713 23.0503 15.9438 23.2568 15.5356C23.4117 15.255 23.4633 14.9233 23.5665 14.6427ZM14.3 9.46416C14.1967 9.00498 14.1451 8.52028 13.9902 8.08661C13.6805 7.16824 13.0868 6.86212 12.235 7.3213C11.3832 7.806 11.2541 8.5713 12.0027 9.20906C12.3899 9.51518 12.8028 9.8213 13.2158 10.0509C13.887 10.408 14.3258 10.4591 14.3 9.46416ZM10.5314 13.5203C10.8927 13.4182 11.5122 13.2907 12.1317 13.1121C12.5963 12.9591 12.648 12.6529 12.3382 12.3213C11.8736 11.8366 11.3057 11.454 10.6862 11.2244C10.4539 11.1478 10.1442 11.0713 9.91188 11.1223C9.3182 11.2754 9.00846 11.9897 9.13752 12.755C9.18914 13.2397 9.65376 13.5458 10.5314 13.5203ZM17.5265 6.40294C16.8554 6.40294 16.4424 6.63253 16.3907 7.09171C16.2617 7.93355 16.3907 8.77539 16.7779 9.54069C16.9328 9.84681 17.1393 9.89783 17.4232 9.66824C18.0685 9.15804 18.4815 8.49477 18.7138 7.70396C18.8687 7.16824 18.6106 6.70906 18.0943 6.53049C17.8878 6.45396 17.6555 6.42845 17.5265 6.40294Z" />
<path d="M35.8015 9.0051C36.1371 8.39286 36.4468 7.80612 36.8082 7.27041C37.9697 5.35714 39.2603 3.52041 40.964 2.01531C41.9964 1.07143 43.1322 0.306122 44.5518 0.0765306C44.8874 0.0255102 45.2488 0.0255102 45.6101 0C45.5327 0.484694 45.3778 0.892857 45.3778 1.32653C45.352 2.27041 45.3778 3.21429 45.4036 4.15816C45.4553 5.33163 45.5843 6.5051 45.5585 7.67857C45.5327 8.97959 45.4811 10.3061 45.1455 11.5816C44.9907 12.1939 44.81 12.8316 44.6551 13.4694C45.0939 13.1888 45.5069 12.9082 45.9715 12.6276C47.2363 11.8878 48.5527 11.352 49.9982 10.9949C50.9791 10.7653 51.9599 10.6122 52.9666 10.5867C53.2247 10.5867 53.3022 10.6378 53.4054 10.9184C53.5861 11.5051 53.8701 12.0663 54.1024 12.6276C54.4637 13.4949 54.3863 14.3878 54.1798 15.2806C53.9991 15.9439 53.6894 16.5816 53.4829 17.2194C53.3796 17.5255 53.1989 17.602 52.915 17.602C50.7984 17.602 48.656 17.602 46.5394 17.602C41.0414 17.602 35.5434 17.602 30.0454 17.602C29.8647 17.602 29.684 17.5765 29.4259 17.5765C29.6324 17.2959 29.7615 17.0918 29.9163 16.8878C30.6133 15.9184 31.0779 14.8469 31.3876 13.7245C31.7232 12.5255 31.8522 11.301 31.7232 10.051C31.5941 8.90306 31.2328 7.80612 30.3551 6.96429C30.7423 6.45408 32.4459 5.94388 33.6075 6.45408C34.7174 6.96429 35.3111 7.90816 35.8015 9.0051Z" />
</g>
<defs>
<clipPath id="clip0">
<rect width="58" height="45" />
</clipPath>
</defs>
</svg>
