<svg width="65" height="45" viewBox="0 0 65 45" fill="none" xmlns="http://www.w3.org/2000/svg">
<g>
<path d="M12.1347 25.623C12.1875 25.3561 12.2402 25.1426 12.293 24.9024C12.6623 23.1675 13.1635 21.4593 13.8758 19.8312C15.142 17.0287 16.8831 14.6266 19.3892 12.865C20.7345 11.9308 22.2118 11.317 23.7946 10.9967C25.4565 10.6497 27.0921 10.7565 28.754 10.8899C28.8332 10.8899 28.9123 10.9433 29.097 10.9967C28.9123 11.1034 28.8068 11.1835 28.7013 11.2369C28.0418 11.5038 27.4087 11.744 26.7492 11.9842C26.5909 12.0376 26.4326 12.0643 26.2743 12.0643C24.8234 12.0376 23.4517 12.3312 22.1327 12.865C20.9456 13.3721 19.8376 14.0394 18.888 14.9202C17.3052 16.3614 16.0653 18.0696 15.2212 20.018C14.6672 21.2725 14.2715 22.607 13.8494 23.9415C13.6911 24.3953 13.6384 24.8757 13.5328 25.3561C13.3746 25.9433 13.4009 25.9967 14.0077 26.1568C14.1132 26.1835 14.2187 26.2102 14.3506 26.2636C14.4034 26.0767 14.4825 25.9166 14.5089 25.7298C14.7463 24.3953 15.0893 23.0874 15.5641 21.833C16.461 19.5376 17.6745 17.4291 19.5211 15.7476C20.7345 14.6533 22.1327 13.8525 23.7155 13.4255C23.7682 13.3988 23.821 13.3988 23.9001 13.3988C23.9529 13.3988 23.9793 13.4255 24.0584 13.4522C24.0056 13.5323 23.9793 13.6123 23.9265 13.639C22.9768 14.4931 22.0272 15.3472 21.0511 16.1479C19.864 17.1355 18.8616 18.2832 18.0702 19.6177C17.3315 20.8454 16.8303 22.1799 16.3819 23.5679C16.0917 24.4486 15.8015 25.3294 15.485 26.2102C15.4058 26.4237 15.4586 26.5038 15.6432 26.5305H15.6696C16.461 26.7707 16.3291 26.8508 16.6193 26.0234C17.3579 23.8081 18.334 21.6995 19.6266 19.7511C21.2094 17.349 23.1351 15.3205 25.5884 13.7992C26.7755 13.0518 28.0418 12.4913 29.3871 12.1177C31.3129 11.5839 33.2914 11.4237 35.2699 11.7173C37.4594 12.0376 39.4906 12.7849 41.39 13.9326C43.8697 15.4006 45.9009 17.3757 47.6684 19.6444C48.6444 20.8988 49.4886 22.2333 50.2272 23.6479C50.3855 23.9415 50.5174 24.1017 50.834 23.8348C50.8867 23.7814 51.0186 23.7547 51.0978 23.7547C51.8892 23.6746 52.6806 23.6212 53.4456 23.5145C53.8677 23.4611 54.2634 23.3276 54.6854 23.2209C54.7118 23.2209 54.7646 23.1942 54.791 23.1942C55.6351 23.1675 56.321 22.7138 57.1124 22.4735C57.2707 22.4202 57.4289 22.3935 57.6664 22.4469C57.5345 22.6604 57.4289 22.954 57.2443 23.1141C56.5584 23.6746 55.8725 24.2885 55.0811 24.6888C53.9468 25.3027 52.7597 25.8098 51.5462 26.2636C50.0953 26.7974 48.6181 27.2511 47.1408 27.6782C46.2703 27.9184 45.347 28.0785 44.45 28.2654C43.3949 28.4789 42.3397 28.6924 41.2845 28.8259C39.8336 29.0127 38.4091 29.1995 36.9582 29.3063C34.6367 29.4664 32.3417 29.6266 30.0203 29.6799C28.4638 29.7333 26.8811 29.5999 25.2983 29.5465C24.797 29.5198 24.2694 29.4931 23.7682 29.4664C22.713 29.3864 21.6842 29.333 20.629 29.2262C19.3628 29.0928 18.1229 28.8792 16.8567 28.6924C16.2236 28.6123 15.6169 28.5056 15.0101 28.3988C13.9285 28.1853 12.8733 27.9451 11.8181 27.7049C10.9476 27.4913 10.0771 27.2244 9.23292 26.9842C8.57343 26.7707 7.91393 26.5572 7.25443 26.2903C5.80354 25.7298 4.40541 25.0892 3.11279 24.2084C2.13674 23.5412 1.23982 22.7671 0.606705 21.7262C-0.158311 20.4451 -0.158311 19.1639 0.580325 17.8828C1.08154 17.0287 1.76742 16.3614 2.55882 15.7743C3.79867 14.8401 5.1968 14.1461 6.62132 13.559C7.09615 13.3721 7.54461 13.1853 8.01945 13.0251C8.15135 12.9718 8.28325 12.9718 8.49429 12.9451C8.41515 13.1319 8.38877 13.2387 8.33601 13.3454C7.80841 14.3597 7.28081 15.3739 6.72683 16.3881C6.59494 16.6283 6.3839 16.8419 6.17286 17.0287C5.40784 17.7227 4.82748 18.5501 4.74834 19.6177C4.6692 20.5785 5.11766 21.3792 5.80354 22.1533C5.90906 21.7529 5.9882 21.4326 6.1201 21.1123C6.54218 19.9113 6.91149 18.7102 7.41271 17.5358C7.96669 16.2547 8.5998 15.0002 9.31206 13.7992C10.4728 11.8241 11.9237 10.0892 13.6384 8.56785C15.0101 7.36678 16.4874 6.32586 18.1493 5.57853C19.1518 5.12479 20.1806 4.77782 21.2094 4.45753C23.5044 3.73689 25.8259 3.55006 28.2 3.81696C29.3344 3.95041 30.4951 4.08387 31.6031 4.32408C32.9484 4.61767 34.241 5.07141 35.4809 5.6586C37.8287 6.77959 39.9127 8.30095 41.9967 9.87568C43.4476 10.97 44.9249 12.0643 46.4285 13.0518C47.6684 13.8792 49.0401 14.3597 50.5438 14.3864C53.3401 14.4397 55.556 13.3187 57.1651 11.0234C57.4026 10.7031 57.6136 10.3294 57.7983 9.98244C57.9302 9.74223 58.0621 9.66216 58.3259 9.79561C59.1436 10.2227 59.17 10.2493 58.6952 11.0501C57.6664 12.8116 56.2418 14.1461 54.3953 14.9735C52.8916 15.6408 51.3088 15.8543 49.6996 15.6408C47.9586 15.4006 46.4022 14.6799 44.9776 13.6657C42.8673 12.1444 40.8096 10.5696 38.6992 9.02159C36.9054 7.71376 34.9533 6.67283 32.8429 6.00557C30.0466 5.12479 27.1712 4.80451 24.2431 5.15148C22.1854 5.39169 20.2069 5.97888 18.334 6.93974C15.4586 8.32764 13.1899 10.3828 11.3433 12.9451C10.1826 14.5198 9.2593 16.2547 8.46791 18.0696C7.83479 19.5643 7.35995 21.139 6.96425 22.7138C6.88511 23.034 6.96425 23.2209 7.22805 23.381C7.38633 23.4611 7.57099 23.5679 7.78203 23.7013C7.94031 23.0874 8.07221 22.5269 8.23049 21.9664C9.15378 18.6301 10.5783 15.5607 12.7151 12.8383C14.2715 10.8632 16.1181 9.23511 18.334 8.03404C19.6002 7.36678 20.8928 6.77959 22.291 6.51269C23.1615 6.35255 24.032 6.2191 24.9026 6.11233C25.5357 6.03226 26.1952 5.95219 26.8547 6.00557C28.1473 6.08564 29.4399 6.13903 30.6798 6.51269C31.6294 6.80629 32.6055 6.99312 33.5288 7.34009C35.3754 8.03404 37.0373 9.04828 38.6201 10.2493C39.8599 11.1835 41.0734 12.1177 42.2869 13.0518C42.4188 13.1319 42.5243 13.212 42.6562 13.292C42.6298 13.3454 42.5771 13.3721 42.5507 13.4255C42.4188 13.3454 42.2869 13.292 42.155 13.212C40.9415 12.438 39.6225 11.8775 38.2772 11.3703C37.7232 11.1568 37.1956 10.8632 36.6944 10.5162C35.1643 9.44863 33.5288 8.64792 31.7613 8.11411C30.9172 7.84721 30.0203 7.71376 29.1497 7.55362C27.6988 7.28671 26.2479 7.3134 24.797 7.42016C23.9529 7.50024 23.1087 7.66038 22.2646 7.8739C20.7082 8.27426 19.2573 8.91483 17.9383 9.79561C16.2763 10.8632 14.8518 12.2244 13.6384 13.7725C12.6095 15.107 11.7126 16.5483 11.0268 18.0963C10.4992 19.2974 10.1035 20.5251 9.655 21.7529C9.47034 22.2867 9.31206 22.8205 9.15378 23.3543C9.07464 23.5945 9.07464 23.8348 9.02188 24.075C8.96912 24.3686 9.15378 24.4753 9.36482 24.5554C9.5231 24.6355 9.70776 24.6888 9.94518 24.7689C10.0507 24.3419 10.1298 23.9148 10.209 23.4878C10.3145 23.0874 10.42 22.6871 10.5519 22.3134C10.9476 21.1657 11.3433 19.9913 11.7918 18.8436C12.1083 18.0696 12.5304 17.3223 12.9525 16.6017C13.7439 15.2404 14.6936 13.986 15.8015 12.865C16.8039 11.8508 17.9383 10.97 19.1781 10.2493C20.4444 9.52871 21.7897 8.9949 23.1879 8.7013C24.9817 8.30095 26.8019 8.22088 28.6485 8.48778C30.0466 8.7013 31.4184 8.96821 32.7374 9.5287C33.265 9.74223 33.7662 10.0091 34.2938 10.2493C34.3729 10.3027 34.4521 10.3561 34.6367 10.4896C34.4257 10.5429 34.3202 10.5696 34.2147 10.5696C33.5024 10.5696 32.7638 10.5963 32.0515 10.5696C31.6558 10.5429 31.2865 10.3828 30.9172 10.276C30.2841 10.1426 29.6773 9.98244 29.0442 9.90237C28.1473 9.79561 27.224 9.66216 26.3007 9.66216C23.6891 9.68885 21.2621 10.4095 19.0462 11.8508C17.78 12.7049 16.672 13.7458 15.696 14.9202C14.3506 16.575 13.3746 18.3899 12.5832 20.365C11.9764 21.833 11.6071 23.381 11.2906 24.9291C11.2378 25.1426 11.3169 25.276 11.5016 25.3561C11.6599 25.4629 11.8709 25.5429 12.1347 25.623ZM32.7901 12.9184C31.6822 12.8917 30.1785 13.212 28.7276 13.7191C27.013 14.333 25.4829 15.2671 24.0848 16.4682C22.4229 17.9095 21.0775 19.6177 19.9959 21.5394C19.0726 23.1141 18.334 24.7956 17.78 26.5572C17.6745 26.8775 17.7272 27.0109 18.0438 27.0643C18.1229 27.0643 18.2021 27.1177 18.2812 27.1177C18.5186 27.1977 18.6505 27.091 18.7561 26.8508C19.0462 26.0501 19.31 25.2493 19.653 24.4753C20.4971 22.607 21.4996 20.8454 22.8186 19.2707C24.2694 17.5358 25.9314 16.1212 27.989 15.1604C29.2816 14.5465 30.627 14.1461 32.0251 14.0127C34.3466 13.7992 36.5888 14.1728 38.7256 15.1604C40.5722 16.0145 42.2078 17.2155 43.685 18.6568C45.4261 20.365 46.8506 22.3401 48.0377 24.502C48.3279 25.0091 48.3279 25.0091 48.8555 24.8223C49.1193 24.7155 49.2248 24.6088 49.0665 24.2885C47.2463 20.8988 44.8985 17.9629 41.7593 15.7476C39.1741 13.9593 36.3778 12.9184 32.7901 12.9184ZM33.6871 16.2814C34.7423 16.228 36.114 16.575 37.4594 17.1355C39.3587 17.9362 40.9679 19.1372 42.4188 20.6052C43.7906 21.9931 44.9249 23.5679 45.8746 25.3027C46.1384 25.7565 46.323 25.8098 46.7979 25.5696C46.9825 25.4629 47.0617 25.3828 46.9298 25.1693C46.7451 24.8757 46.5868 24.5821 46.4285 24.2885C44.8985 21.7262 43.0255 19.4575 40.5986 17.7227C39.1213 16.6817 37.5121 15.881 35.7447 15.5074C34.03 15.1337 32.2889 15.1337 30.5479 15.5874C28.9914 15.9878 27.5933 16.6817 26.3007 17.6426C24.8762 18.7102 23.6891 20.0447 22.6867 21.5394C21.6315 23.1408 20.7609 24.8757 20.1542 26.7173C19.9431 27.3312 19.9431 27.3312 20.5763 27.4113C20.8401 27.438 20.972 27.3579 21.0511 27.091C21.2621 26.5038 21.4732 25.9166 21.7106 25.3561C22.7658 23.034 24.0848 20.9255 26.0105 19.1906C28.0945 17.3757 30.4423 16.2814 33.6871 16.2814ZM22.2118 27.5714C22.502 27.6248 22.7394 27.6248 22.9505 27.6782C23.1879 27.7582 23.267 27.6782 23.3462 27.438C23.9529 25.8098 24.7179 24.2351 25.7731 22.8472C27.2768 20.8721 29.0706 19.3508 31.5503 18.817C32.9484 18.4967 34.3202 18.5767 35.6919 18.9504C37.0373 19.3241 38.2244 20.018 39.306 20.8721C41.0207 22.2333 42.3924 23.9148 43.474 25.8098C43.7906 26.3703 43.7906 26.3703 44.3445 26.2636C44.7402 26.1835 44.793 26.0767 44.5819 25.7298C44.1335 25.0091 43.685 24.2618 43.1838 23.5679C41.5483 21.3259 39.5962 19.4575 37.0109 18.3632C35.1907 17.5892 33.2914 17.349 31.3393 17.776C29.8092 18.123 28.4638 18.817 27.2504 19.8045C25.5357 21.2191 24.2431 22.9807 23.2934 24.9824C22.9241 25.8365 22.6075 26.6906 22.2118 27.5714ZM24.5596 27.7049C25.1927 27.9985 25.6148 27.8917 25.7995 27.4113C26.4854 25.623 27.4878 24.0216 28.9123 22.7404C29.8356 21.8864 30.9172 21.2992 32.157 21.059C33.8453 20.7387 35.4018 21.0856 36.879 21.9664C38.6465 23.034 40.0182 24.5287 41.1262 26.2903C41.4955 26.9041 41.4955 26.9041 42.155 26.7707C42.4716 26.7173 42.5243 26.6106 42.3397 26.3436C41.1789 24.4486 39.8072 22.7671 37.987 21.486C36.7999 20.6586 35.5073 20.0981 34.0564 19.938C32.1043 19.7511 30.3632 20.3116 28.8068 21.5127C27.5406 22.5002 26.5645 23.7013 25.8259 25.1159C25.351 25.97 24.9817 26.8508 24.5596 27.7049ZM40.071 27.091C40.0182 27.0109 39.9918 26.9041 39.9391 26.8241C39.3324 25.8632 38.5937 24.9824 37.7496 24.2084C36.9318 23.4611 35.9821 22.8472 34.9269 22.5269C33.7398 22.1533 32.6055 22.3401 31.4448 22.7404C30.7325 22.9807 30.1522 23.381 29.5982 23.8614C28.5957 24.7422 27.9362 25.8899 27.3031 27.0376C27.1712 27.3045 27.0921 27.6248 26.9602 27.9451C27.0921 27.9718 27.1449 27.9718 27.224 27.9718C27.8835 28.0518 27.8835 28.0518 28.1737 27.4646C28.2792 27.2511 28.3847 27.0109 28.5166 26.7974C29.3871 25.3294 30.416 24.0483 32.1306 23.5145C32.7901 23.3009 33.4233 23.1141 34.1091 23.381C34.6104 23.5678 35.1643 23.7013 35.6392 23.9415C36.9318 24.6088 37.9078 25.6764 38.752 26.8508C39.1213 27.3312 39.4906 27.4113 40.071 27.091ZM37.644 27.4113C37.0109 26.5038 36.2723 25.7565 35.3754 25.2227C34.3466 24.6088 33.2914 24.6355 32.1834 24.9557C31.181 25.2493 30.5742 25.9967 30.0203 26.7974C29.7828 27.1444 29.5718 27.5447 29.308 27.9985C29.5982 27.9985 29.7828 27.9718 29.9675 27.9985C30.2577 28.0251 30.416 27.9184 30.5742 27.6515C30.7589 27.3312 30.9963 27.0109 31.2337 26.744C32.0515 25.8632 33.0012 25.4095 34.2147 25.7565C35.0588 25.9967 35.6919 26.5572 36.2723 27.1977C36.6944 27.6515 37.0373 27.7049 37.644 27.4113ZM31.946 27.8917C33.0012 27.8383 34.03 27.8116 35.0852 27.7582C34.0828 26.6639 32.6055 26.7974 31.946 27.8917Z" />
<path d="M0.764992 23.4878C0.896891 23.5946 1.05517 23.6746 1.16069 23.7814C2.47968 24.9558 4.00972 25.8099 5.59251 26.5305C7.25444 27.3045 8.99551 27.8917 10.7366 28.3721C12.082 28.7458 13.4273 29.0394 14.7727 29.333C15.7488 29.5465 16.7248 29.7067 17.7272 29.8935C18.334 30.0002 18.9407 30.0536 19.5475 30.1337C20.7873 30.2405 22.0008 30.3739 23.2406 30.4273C25.5884 30.5341 27.9099 30.6141 30.2577 30.6408C31.7613 30.6675 33.265 30.6141 34.7686 30.5341C35.903 30.4807 37.0373 30.3205 38.1716 30.2138C39.0686 30.107 39.9655 30.0269 40.8624 29.8935C41.5219 29.8134 42.155 29.68 42.8145 29.5465C44.0016 29.3063 45.1887 29.1195 46.3758 28.8259C47.9058 28.4255 49.4358 27.9718 50.9131 27.438C52.2585 26.9575 53.5511 26.3437 54.8437 25.7031C55.4768 25.3828 56.11 25.0091 56.6112 24.5287C56.9805 24.1817 57.4289 23.9949 57.7719 23.6746C57.8246 23.6212 57.9302 23.5946 58.0884 23.5145C58.0357 23.7013 58.0357 23.8081 57.9829 23.9148C57.3498 25.2227 56.7695 26.5305 56.11 27.8116C54.9229 30.0803 53.472 32.1889 51.9156 34.2173C50.7812 35.6853 49.6469 37.1533 48.2751 38.381C46.8506 39.6622 45.2942 40.7832 43.5531 41.6373C42.6035 42.1177 41.6538 42.5981 40.6514 42.9451C39.306 43.4255 37.9606 43.8259 36.5889 44.1461C35.4809 44.4131 34.3466 44.5732 33.2386 44.7333C31.3393 45.0002 29.4399 45.0536 27.5142 44.9202C26.6436 44.8668 25.7731 44.8134 24.9026 44.68C23.4517 44.4131 22.0272 44.1195 20.6027 43.7458C19.6794 43.5056 18.7824 43.2387 17.9119 42.865C16.6984 42.3312 15.485 41.744 14.3242 41.1034C13.2954 40.5163 12.3194 39.849 11.3961 39.155C9.60225 37.7938 8.17773 36.0857 6.88512 34.2707C5.64527 32.5358 4.45817 30.7743 3.32384 28.9593C2.29502 27.3579 1.47725 25.6497 0.764992 23.8615C0.738612 23.7547 0.712232 23.6746 0.685852 23.5679C0.685852 23.5412 0.712232 23.5145 0.764992 23.4878Z" />
<path d="M28.8331 2.58904C29.2288 2.37552 29.6245 2.10861 30.0466 1.92178C30.838 1.57481 31.603 1.20114 32.4208 0.934236C33.5287 0.56057 34.6367 0.213595 35.7974 0.160215C36.7207 0.106834 37.6176 -0.0266181 38.5409 7.22876e-05C39.9127 0.0267627 41.2317 0.293667 42.5243 0.747403C44.8193 1.52142 46.7978 2.80256 48.4861 4.56413C49.0665 5.17801 49.5677 5.89865 50.0953 6.53922C51.0714 7.7136 51.7045 9.0748 52.3112 10.436C52.6014 11.1033 52.8124 11.7972 53.0762 12.4912C53.1554 12.7314 53.1554 12.9182 52.8388 12.9983C52.7597 12.9983 52.7069 13.0517 52.6542 13.0784C52.1002 13.2919 51.9947 13.2118 51.7836 12.678C51.3352 11.5837 50.9395 10.4627 50.3855 9.42178C49.172 7.1531 47.5892 5.17801 45.4524 3.71004C44.1598 2.82925 42.7617 2.18868 41.258 1.76164C40.6777 1.6015 40.0973 1.52142 39.517 1.46804C38.8311 1.38797 38.1452 1.3079 37.4593 1.33459C36.6152 1.38797 35.7974 1.49473 34.9796 1.65488C34.1091 1.81502 33.2913 2.1353 32.4472 2.40221C31.9723 2.56235 31.5239 2.74918 31.049 2.88263C30.3104 3.12285 29.5981 2.82925 28.8595 2.72249C28.8595 2.6958 28.8595 2.64242 28.8331 2.58904Z" />
<path d="M37.8814 3.57665C36.9054 3.7101 35.9293 3.84355 34.9533 3.977C34.6631 4.00369 34.3465 4.00369 34.0564 3.95031C33.6607 3.87024 33.2913 3.7101 32.8956 3.57665C32.8165 3.54996 32.7637 3.44319 32.7374 3.36312C32.7374 3.33643 32.8429 3.25636 32.8956 3.22967C33.7926 2.80263 34.7686 2.64248 35.7447 2.50903C36.1931 2.45565 36.6416 2.40227 37.09 2.34889C38.5409 2.18875 39.9391 2.40227 41.3372 2.80263C43.131 3.33643 44.7402 4.24391 46.1383 5.49835C46.9561 6.24569 47.6684 7.07309 48.3015 7.98056C49.3831 9.5286 50.2008 11.1567 50.7812 12.945C50.8867 13.2386 50.7812 13.3186 50.5174 13.3186C50.2536 13.2919 49.9898 13.2919 49.726 13.2119C49.6205 13.1852 49.515 13.0517 49.4622 12.945C49.172 12.3311 48.961 11.6905 48.6444 11.0766C47.3782 8.46099 45.5844 6.29907 42.9991 4.91117C41.4427 4.05707 39.7017 3.65672 37.8814 3.57665Z" />
<path d="M44.1335 14.4129C44.5556 14.6531 44.9776 14.92 45.4261 15.1602C46.5604 15.8008 47.7475 16.2812 49.0401 16.5481C50.4647 16.8417 51.8628 16.7349 53.2873 16.3612C55.1339 15.8808 56.7694 15 58.0357 13.5588C58.6952 12.8114 59.2492 11.9306 59.8031 11.0766C59.9614 10.8363 60.0933 10.783 60.3307 10.9431C61.254 11.5036 61.1485 11.3435 60.7001 12.1442C59.935 13.4787 58.9854 14.6264 57.7983 15.5872C56.7431 16.4413 55.5824 17.0552 54.3161 17.4556C52.3376 18.0961 50.3328 18.2563 48.3015 17.7225C48.0905 17.6691 47.9058 17.6157 47.6948 17.5623C47.2991 17.4822 47.0089 17.2687 46.7187 16.9751C45.9273 16.1744 45.0832 15.4004 44.2654 14.6264C44.2126 14.573 44.1862 14.5196 44.1335 14.4662C44.0807 14.4662 44.1071 14.4395 44.1335 14.4129Z" />
<path d="M51.5726 22.7403C51.3088 22.6869 50.9922 22.7403 50.834 22.6068C50.5702 22.3399 50.4119 21.9662 50.2272 21.646C50.2008 21.6193 50.3064 21.4591 50.3855 21.4324C50.491 21.4057 50.6229 21.4057 50.7284 21.4057C52.5223 21.4057 54.2633 21.0588 55.9517 20.4449C58.3786 19.5908 60.3835 18.1228 61.9927 16.121C62.6785 15.2936 63.2061 14.3595 63.7865 13.452C63.9448 13.2118 64.0767 13.105 64.3141 13.3186C64.3932 13.3719 64.4724 13.3986 64.5515 13.452C65.1055 13.7723 65.1055 13.799 64.7889 14.3595C63.7865 16.121 62.573 17.7225 61.0166 18.9769C60.0933 19.7243 59.0909 20.3648 58.0357 20.952C56.6639 21.726 55.1603 22.2065 53.6038 22.4734C52.9443 22.5534 52.2585 22.6335 51.5726 22.7403Z" />
<path d="M48.4334 18.8434C48.6972 18.8701 48.9082 18.8967 49.0929 18.9234C50.2009 19.1103 51.2824 19.0836 52.3904 18.9234C54.0787 18.6832 55.6351 18.1494 57.1124 17.2953C58.7479 16.3345 60.0142 15.0266 61.0694 13.4786C61.3068 13.1316 61.5178 12.7313 61.7289 12.3576C61.9399 11.9839 62.0718 11.9572 62.4147 12.1708C63.1006 12.5711 63.1006 12.5978 62.7049 13.2918C61.4914 15.4003 59.8823 17.1619 57.7983 18.4163C56.6903 19.0836 55.5032 19.564 54.2634 19.8843C52.8916 20.258 51.4935 20.3647 50.0953 20.3647C49.5677 20.3647 49.172 20.1779 48.9082 19.7241C48.8291 19.564 48.6708 19.4306 48.5917 19.2704C48.5389 19.1636 48.5126 19.0569 48.4334 18.8434Z" />
<path d="M36.4305 4.77749C36.6416 4.72411 36.8526 4.67073 37.09 4.67073C41.2581 4.53728 44.4764 6.27215 46.7715 9.7419C47.3254 10.5693 47.7475 11.5035 48.196 12.3843C48.2487 12.4643 48.2487 12.5711 48.2751 12.7045C48.1696 12.7045 48.0641 12.7312 47.9849 12.7045C47.3254 12.3576 46.6132 12.0907 46.2175 11.3433C45.1095 9.28817 43.5267 7.66005 41.3372 6.75258C40.5194 6.4056 39.7016 6.16539 38.8311 6.08532C38.5145 6.05863 38.1716 5.92518 37.8814 5.76504C37.3802 5.52482 36.9054 5.23123 36.4305 4.96432C36.4305 4.88425 36.4305 4.83087 36.4305 4.77749Z" />
<path d="M41.3636 7.87354C42.4188 8.38065 43.3157 9.10129 44.0543 10.0088C44.0279 10.0355 44.0016 10.0888 43.9752 10.1155C43.0783 9.39489 42.155 8.70094 41.2581 7.9803C41.3108 7.95361 41.3372 7.90023 41.3636 7.87354Z" />
</g>
<defs>
<clipPath id="clip0">
<rect width="65" height="45" />
</clipPath>
</defs>
</svg>
