<svg viewBox="0 0 63 56" fill="none" xmlns="http://www.w3.org/2000/svg">
<g >
<path d="M18.0416 44.0237V55.8226H9.41113V48.3041C9.41113 45.9311 11.3513 44.0237 13.7152 44.0237H18.0416Z" fill="white" stroke="white" stroke-miterlimit="10"/>
<path d="M38.7814 40.9632H28.4784C26.8505 40.9632 25.2225 41.3402 23.7506 42.0499L19.7588 44.0016V55.8004L24.7988 53.5826H35.637C38.9822 53.5826 42.2604 52.5846 45.0257 50.7438L53.0986 45.5541C53.9684 44.9775 54.2137 43.8242 53.6561 42.9371C53.1209 42.0943 52.0282 41.806 51.1361 42.2717L43.2416 46.1751L32.0912 46.3303C31.9351 46.3303 31.8905 46.1085 32.0466 46.0642L39.2052 43.7133C39.9634 43.4693 40.3871 42.6709 40.1418 41.8947C39.9634 41.3624 39.4059 40.9632 38.7814 40.9632Z"  stroke-miterlimit="10"/>
<path d="M60.1452 37.2372H2.83188C1.31542 37.2372 0.0888672 36.0174 0.0888672 34.5093C0.0888672 33.0012 1.31542 31.7814 2.83188 31.7814H60.1452C61.6616 31.7814 62.8882 33.0012 62.8882 34.5093C62.8882 36.0174 61.6616 37.2372 60.1452 37.2372Z"  stroke-miterlimit="10"/>
<path d="M34.2315 6.60912C34.9005 5.92159 35.3242 4.96793 35.3242 3.92555C35.3242 1.81862 33.6071 0.110901 31.4885 0.110901C29.3699 0.110901 27.6527 1.81862 27.6527 3.92555C27.6527 4.96793 28.0765 5.92159 28.7455 6.60912C15.7664 7.80674 5.66406 17.4099 5.66406 29.0757H57.3352C57.3352 17.4099 47.2106 7.80674 34.2315 6.60912ZM15.4765 26.5252H10.0127C10.0127 26.5252 14.3614 13.2848 23.8393 9.53664C23.3487 11.2444 17.2828 14.305 15.4765 26.5252Z"  stroke-miterlimit="10"/>
</g>
<defs>
<clipPath id="clip0">
<rect width="63" height="56"/>
</clipPath>
</defs>
</svg>
