<svg viewBox="0 0 63 70" fill="none" xmlns="http://www.w3.org/2000/svg">
<path d="M18.0416 58.0237V69.8226H9.41113V62.3041C9.41113 59.9311 11.3513 58.0237 13.7152 58.0237H18.0416Z"/>
<path d="M38.7814 54.9632H28.4784C26.8505 54.9632 25.2225 55.3402 23.7506 56.0499L19.7588 58.0016V69.8004L24.7988 67.5826H35.637C38.9822 67.5826 42.2604 66.5846 45.0257 64.7438L53.0986 59.5541C53.9684 58.9775 54.2137 57.8242 53.6561 56.9371C53.1209 56.0943 52.0282 55.806 51.1361 56.2717L43.2416 60.1751L32.0912 60.3303C31.9351 60.3303 31.8905 60.1085 32.0466 60.0642L39.2052 57.7133C39.9634 57.4693 40.3871 56.6709 40.1418 55.8947C39.9634 55.3624 39.4059 54.9632 38.7814 54.9632Z"/>
<path d="M60.1456 51.2372H2.83236C1.3159 51.2372 0.0893555 50.0174 0.0893555 48.5093C0.0893555 47.0012 1.3159 45.7814 2.83236 45.7814H60.1456C61.6621 45.7814 62.8886 47.0012 62.8886 48.5093C62.8886 50.0174 61.6621 51.2372 60.1456 51.2372Z"/>
<path d="M30.1849 13.261C30.6113 12.4017 30.7226 11.3641 30.4034 10.3718C29.7582 8.36606 27.6006 7.26622 25.5838 7.91499C23.567 8.56376 22.4553 10.7153 23.1005 12.721C23.4197 13.7133 24.1151 14.4914 24.9625 14.941C12.9736 20.0557 6.29744 32.2911 9.86982 43.3964L59.0586 27.5732C55.4862 16.4679 42.9073 10.4266 30.1849 13.261ZM18.4298 37.9636L13.2285 39.6367C13.2285 39.6367 13.3137 25.7007 21.1885 19.2303C21.2444 21.0062 16.4072 25.7773 18.4298 37.9636Z"/>
</svg>
