<svg width="77" height="89" viewBox="0 0 77 89" fill="none" xmlns="http://www.w3.org/2000/svg">
<path d="M65.153 64.5232C64.5294 64.894 63.535 65.2479 59.9957 63.1074C56.4563 60.9501 54.9732 60.0569 54.9732 60.0569C54.9732 60.0569 58.8327 58.422 63.2653 59.5513C67.681 60.6805 65.7766 64.1524 65.153 64.5232ZM16.7147 43.1861C16.5294 43.4895 14.8945 42.4614 14.1192 41.0962C14.1024 41.0962 16.8833 42.8659 16.7147 43.1861ZM15.1136 45.1074C15.7204 45.4782 15.6529 45.7479 15.5687 45.7984C15.4844 45.8322 14.2204 45.7142 12.9732 44.2479C12.9732 44.2479 14.49 44.7366 15.1136 45.1074ZM67.4957 60.8153C67.0237 58.5906 64.2766 58.3041 62.7428 58.2366C61.2091 58.1524 56.4395 58.7254 53.5069 59.3659C53.5069 59.3659 40.0574 53.8209 34.226 52.4389C28.3945 51.0569 25.5294 50.585 22.8159 50.1468C20.1024 49.7086 14.5406 48.2928 9.07991 44.6524C6.28216 42.8153 1.78216 38.0962 1.74845 37.6748C1.71474 37.2535 4.68103 39.1074 6.07991 40.1861C7.47879 41.2647 11.0855 43.3209 11.0855 43.3209C11.0855 43.3209 15.4507 47.2142 16.1249 46.2535C16.7822 45.276 15.1136 44.467 14.2204 44.0793C13.3271 43.6917 11.2878 42.6468 11.2878 42.6468C11.2878 42.6468 9.11362 40.2535 7.7653 38.9726C6.40014 37.6917 3.55182 34.4726 3.51811 33.9838C3.48441 33.5119 5.33834 35.0625 5.33834 35.0625L11.4395 39.5119C11.4395 39.5119 16.3777 45.2423 17.6249 44.2984C18.6529 43.5906 14.7091 40.3715 12.5687 39.276C10.1923 36.4277 6.97317 32.8378 6.8889 32.0456C6.80463 31.2535 12.6192 37.3883 12.6192 37.3883C12.6192 37.3883 18.4676 42.4614 18.872 42.7816C19.2765 43.1018 21.2485 45.276 22.0406 46.1861C22.8327 47.0962 26.4226 49.1187 27.8383 49.5232C29.2372 49.9277 40.1586 51.9333 42.7372 52.5737C45.3327 53.2142 57.5855 56.467 58.7822 57.0063C55.8833 55.54 49.7148 52.422 40.3103 51.0906C36.0799 50.0456 29.0013 48.5288 26.7597 47.3827C24.5181 46.2366 23.4395 45.731 23.4395 45.731C23.4395 45.731 21.6529 43.7254 20.3552 42.6468C19.0574 41.585 15.1642 38.4501 14.1024 37.3883C13.0406 36.3265 6.06306 29.8209 5.30463 29.8546C4.5462 29.8883 5.72598 31.7591 6.2653 32.6524C6.80463 33.5456 10.2597 37.5906 10.2428 37.7423C10.2091 37.8939 8.3889 36.5625 7.19227 35.6187C5.99564 34.6748 2.70912 32.1468 2.03497 32.2142C1.36081 32.2647 3.28216 35.0456 4.49564 36.5288C5.70912 38.0119 9.60238 41.5681 9.46755 41.7535C9.33272 41.9389 6.85519 40.0513 5.79339 39.2254C4.7316 38.3996 0.770921 35.4333 0.197888 35.5007C-0.375146 35.5513 0.282157 37.7254 2.35519 40.1524C4.42823 42.5962 7.79901 45.5288 11.1698 47.4838C14.5406 49.4557 17.8777 50.3996 21.3496 51.1917C24.8215 51.9838 26.9114 51.731 30.299 52.4726C33.6867 53.2142 40.6473 55.2366 44.9114 56.9052C47.4732 57.9164 49.6473 58.776 51.8215 59.9389C51.0631 60.1411 49.9001 60.3434 48.299 60.2591C45.2653 60.1074 43.1923 58.0007 43.1923 58.0007C43.9676 59.8715 45.653 61.3041 48.7878 61.4895C50.9956 61.6243 52.5294 61.085 53.2372 60.7647C54.2147 61.3715 55.2091 62.0625 56.2372 62.8883C60.0294 65.922 62.8608 66.8659 64.681 66.3602C66.4676 65.8546 67.9676 63.04 67.4957 60.8153Z" />
<path d="M13.4788 58.8601C16.3608 58.2533 18.6192 57.9162 19.8664 57.7477C20.0855 57.714 20.1866 58.0174 19.9844 58.1353C19.1754 58.5736 17.8102 59.332 15.7709 60.4443C12.1473 62.4331 11.1529 62.0455 10.5462 61.641C9.93945 61.2365 9.01248 59.787 13.4788 58.8601ZM62.5743 40.405C61.7316 41.7365 60.063 42.6971 59.8945 42.3769C59.7091 42.0735 62.5743 40.405 62.5743 40.405ZM63.5687 43.6073C62.2709 45.023 60.99 45.0904 60.9057 45.0567C60.8215 45.0061 60.7709 44.7365 61.3945 44.3825C62.035 44.0455 63.5687 43.6073 63.5687 43.6073ZM11.0012 63.4949C12.8046 64.0848 15.6698 63.2589 19.5968 60.3938C20.6248 59.6353 21.8889 58.641 22.8833 58.0511C22.9338 58.0174 23.0012 58.0174 23.0687 58.0511C23.8271 58.405 25.4788 58.8938 27.5012 59.0792C30.6361 59.3825 32.0012 57.8994 32.8608 56.0623C32.8608 56.0623 30.1136 58.4556 24.8215 57.7309C24.6192 57.6971 24.5855 57.4275 24.7709 57.3432C26.7765 56.4162 28.8327 55.7084 31.1923 54.8825C35.5406 53.3825 42.5687 51.6803 45.99 51.0735C49.4114 50.4668 51.4844 50.8039 54.99 50.1803C58.4788 49.5398 61.8664 48.7309 65.3215 46.9106C68.7765 45.0904 72.2822 42.3095 74.4563 39.9668C76.6305 37.6241 77.3889 35.4837 76.8159 35.4162C76.2428 35.332 72.1642 38.1297 71.0687 38.905C69.9732 39.6803 67.4114 41.4668 67.2765 41.2814C67.1586 41.096 71.2035 37.7084 72.4675 36.2758C73.7484 34.8432 75.7878 32.1466 75.1136 32.0623C74.4395 31.978 71.0518 34.3544 69.8215 35.2477C68.5911 36.141 66.7035 37.3882 66.6866 37.2365C66.6698 37.0848 70.2934 33.1915 70.8664 32.3151C71.4395 31.4556 72.6866 29.6185 71.9451 29.5679C71.1866 29.5005 63.9395 35.7028 62.8271 36.714C61.7147 37.7421 57.6866 40.6915 56.3383 41.7028C55.0911 42.6466 53.3889 44.3825 53.1529 44.6185C53.1361 44.6353 53.1192 44.6522 53.0855 44.6522C52.8833 44.7365 51.7878 45.1915 49.7316 46.1353C48.2316 46.8264 44.0687 47.5174 40.563 48.3095C40.0069 48.4275 40.1248 49.2533 40.681 49.2365C43.1754 49.1185 46.1754 48.9162 48.5687 48.2252C49.9675 47.8207 53.6754 46.0342 54.5013 45.141C55.3271 44.2477 57.3833 42.1915 57.8046 41.8713C58.226 41.5679 64.1248 36.8657 64.2765 36.7477C64.4282 36.596 70.344 30.8657 70.226 31.6578C70.108 32.45 66.7541 35.8713 64.2597 38.6016C64.2428 38.6185 64.226 38.6353 64.1923 38.6522C62.0013 39.6803 57.9563 42.6971 58.9507 43.4387C60.1305 44.3994 65.035 39.2421 65.3215 38.9387C65.3383 38.9219 65.3383 38.9219 65.3552 38.905L71.6249 34.7421C71.6923 34.6915 73.5462 33.2758 73.4788 33.7308C73.4114 34.2028 70.4282 37.3039 69.0293 38.5342C67.6979 39.6803 65.6248 41.7702 65.372 42.023C65.3552 42.0398 65.3383 42.0567 65.3215 42.0567C65.0687 42.1747 63.2147 43.0342 62.3552 43.3544C61.4451 43.6915 59.726 44.4331 60.3496 45.4443C60.9563 46.4219 65.2372 42.95 65.49 42.7477C65.5069 42.7309 65.5069 42.7309 65.5237 42.7309C65.8102 42.5792 69.2484 40.8095 70.6305 39.832C72.0631 38.8039 75.1136 37.0848 75.063 37.5061C75.0125 37.9275 70.3271 42.4443 67.4451 44.1634C61.8327 47.5679 56.2204 48.7477 53.49 49.0679C50.7597 49.3882 47.8777 49.7421 41.9956 50.8713C36.3159 51.9668 23.4057 56.6016 22.4788 56.9387C22.4451 56.9556 22.4114 56.9556 22.3608 56.9387C19.4619 56.1803 15.7878 56.1466 14.1024 56.5511C12.6024 56.905 9.7372 57.6971 9.18102 59.905C8.62484 62.1297 9.19787 62.8882 11.0012 63.4949Z" />
<path d="M50.8608 27.967C50.962 26.7703 51.0125 25.5737 51.0294 24.3939C51.0462 23.2142 50.9957 22.0175 50.844 20.8715C50.7597 20.2984 50.6249 19.7254 50.4058 19.2366C50.2878 19.0007 50.153 18.7816 49.9844 18.6299C49.8159 18.4782 49.6305 18.4108 49.4114 18.3939C49.2934 18.3939 49.226 18.3939 49.0575 18.4276C48.9058 18.4613 48.8721 18.4782 48.7878 18.5288C48.653 18.613 48.6361 18.6804 48.6698 18.8827C48.7541 19.2872 49.108 19.7591 49.4957 20.1467C50.2878 20.922 51.299 21.5119 52.3608 21.849C53.4226 22.1861 54.5687 22.2366 55.5799 21.8827C55.8328 21.7984 56.0687 21.6804 56.3215 21.5456C56.5743 21.3939 56.8608 21.2591 57.0968 21.1074C57.5687 20.8209 58.0575 20.5007 58.4788 20.1299C59.3384 19.4052 59.962 18.5119 60.1811 17.467C60.299 16.9445 60.3159 16.3883 60.3159 15.7984V15.5793L60.299 15.3939L60.2653 15.2591L60.2148 15.0737C60.1305 14.8209 60.0294 14.5681 59.9114 14.3153C59.4226 13.304 58.7653 12.3434 57.9732 11.5512C57.1979 10.776 56.1867 10.1355 55.3608 10.3715C54.9563 10.4726 54.5687 10.7928 54.2653 11.231C54.1137 11.4333 53.962 11.7029 53.8608 11.8883L53.8103 11.9894C53.8271 11.9726 53.8271 11.9557 53.8271 11.9389C53.8271 11.922 53.8271 11.8883 53.8103 11.8715C53.7934 11.8209 53.7934 11.8546 53.8608 11.8883C54.1474 12.0231 54.6698 11.922 55.0238 11.6861C55.3777 11.4333 55.6474 11.0119 55.7485 10.5063C55.9844 9.49505 55.7485 8.26472 55.344 7.25348C54.9058 6.20854 54.0631 5.36584 53.0856 4.77595C52.108 4.20292 50.9451 3.84898 49.8328 3.78157H49.8833C48.9058 3.9164 47.8608 4.16921 47.035 4.64112C46.1755 5.11303 45.6867 5.78719 45.9564 6.59618C45.9901 6.95011 46.4283 7.59056 46.3271 7.45573C46.2597 7.47258 46.3946 7.43887 46.4957 7.3209C46.6137 7.20292 46.7148 7.01752 46.799 6.83213C47.1193 6.05685 46.9844 5.06247 46.462 4.30404C45.9395 3.54561 45.0631 2.87146 44.271 2.24786C43.4451 1.62427 42.535 1.11865 41.5743 0.798423C40.5799 0.461344 39.535 0.343367 38.5406 0.511906C37.5294 0.663591 36.5856 1.08494 35.7429 1.67483C35.5406 1.82651 35.3215 1.96134 35.1193 2.11303L34.5294 2.61865C34.1249 2.93887 33.8047 3.34337 33.4339 3.71415L33.299 3.84898L33.2316 3.9164C33.299 3.84898 33.2485 3.89955 33.2485 3.88269V3.89955L33.2316 3.9164L33.1979 3.95011L33.0799 4.11865L33.0462 4.23663C32.9788 4.38831 32.962 4.62427 32.962 4.82651C32.962 5.26472 33.0799 5.73663 33.2822 6.15797C33.3833 6.36022 33.5013 6.56247 33.6193 6.66359C33.6698 6.73101 33.7204 6.66359 33.5013 6.6973C33.4676 6.6973 33.4339 6.71415 33.4002 6.73101C33.3833 6.74786 33.3833 6.74786 33.3665 6.78157L33.4002 6.74786C33.4339 6.6973 33.4844 6.64674 33.5013 6.61303C33.7035 6.29281 33.8215 5.80404 33.7878 5.4164C33.7035 4.59056 32.9451 3.93325 32.035 3.56247C31.5799 3.37707 31.0743 3.22539 30.6024 3.12427C30.0631 3.02314 29.5912 2.97258 29.0856 2.97258C28.0743 2.97258 27.0631 3.22539 26.1698 3.73101C25.2766 4.21977 24.5181 4.94449 24.0125 5.82089C23.5069 6.6973 23.2372 7.67483 23.2035 8.65236V8.70292C23.1698 9.30966 23.6923 10.1692 24.2485 10.6411C24.3833 10.776 24.535 10.8434 24.6361 10.8939C24.653 10.8939 24.6698 10.8939 24.6867 10.9108C24.7035 10.9108 24.6698 10.8939 24.6698 10.9108C24.6361 10.9108 24.5687 10.9445 24.5519 10.9613V10.9782C24.4676 11.0793 24.5519 10.9782 24.535 10.9951L24.5856 10.9276L24.6361 10.8602V10.8434C24.6361 10.8434 24.653 10.7591 24.6867 10.7085C24.7035 10.5737 24.7204 10.4389 24.6698 10.3209C24.6193 10.0849 24.4339 9.93325 24.1474 9.81528C23.844 9.6973 23.4395 9.66359 23.0181 9.6973C22.8159 9.6973 22.5968 9.73101 22.3777 9.78157C22.1586 9.81528 21.9395 9.86584 21.7204 9.9164L21.3833 10.0007C21.3833 10.0007 21.3159 10.0175 21.3833 10.0007L21.3328 10.0175L21.2485 10.0512L21.0799 10.1186C20.8777 10.2029 20.5912 10.2703 20.4563 10.3883C20.2878 10.4894 20.1024 10.5737 19.9339 10.6917L19.4283 11.0962L18.9901 11.5681C18.8552 11.7366 18.7372 11.922 18.6024 12.0906C18.1305 12.8321 17.8103 13.6917 17.6586 14.5681C17.3215 16.3546 17.7597 18.276 18.7204 19.8265C19.2092 20.6018 19.917 21.2422 20.6923 21.6299C21.4844 22.0344 22.4114 22.1524 23.3047 22.0849C24.1979 22.0007 25.0912 21.7479 25.9002 21.3771C26.3047 21.1917 26.7092 20.9557 26.9957 20.7198C27.0799 20.6355 27.0462 20.6692 27.1137 20.5849C27.1979 20.467 27.2148 20.4333 27.2653 20.3321C27.3496 20.1636 27.417 19.9782 27.4507 19.8097C27.4844 19.6243 27.5181 19.4557 27.5013 19.2872C27.5013 19.2029 27.4844 19.1355 27.4676 19.0681L27.4507 19.0175C27.3665 18.8658 27.5687 19.2029 27.535 19.1524L27.5013 19.1186C27.5013 19.1018 27.4844 19.0849 27.4844 19.0849C27.5013 19.1186 27.535 19.1524 27.5687 19.1861C27.6361 19.2535 27.7878 19.2703 27.7878 19.2703C27.8721 19.2535 27.653 19.3209 27.5181 19.4389C27.3665 19.54 27.2316 19.6917 27.0799 19.8434C26.5406 20.467 26.1361 21.276 25.8833 22.1355C25.7653 22.5569 25.6642 23.0119 25.6137 23.4501C25.5968 23.6692 25.5462 23.9052 25.5462 24.1243L25.5125 24.8321C25.4788 25.7254 25.5294 26.6861 25.6137 27.613C25.7822 29.4838 26.1361 31.3546 26.5743 33.1917C27.0294 35.0119 27.6024 36.8658 28.3945 38.4838C30.0968 41.7029 33.3496 44.0793 36.8889 44.922C40.4114 45.6973 44.5575 45.158 46.8496 42.3097C48.0294 40.9613 48.7541 39.2085 49.1586 37.422C49.3608 36.5288 49.462 35.6018 49.462 34.6917C49.462 34.2366 49.4451 33.7647 49.3777 33.3602C49.344 33.1243 49.2934 32.8883 49.226 32.7029C49.1755 32.5007 49.108 32.3153 49.0238 32.0962C48.3665 30.4445 47.0519 29.0793 45.5519 28.0681C44.0182 27.0737 42.2653 26.4164 40.4283 26.1299C39.5181 25.9951 38.5743 25.9108 37.6811 25.9276C37.2092 25.9445 36.7035 25.9276 36.2822 26.0119L35.608 26.0962C35.3889 26.1299 35.153 26.1973 34.9339 26.2479C33.1474 26.6692 31.3946 27.3939 29.844 28.4557C28.3103 29.5175 26.9114 30.8321 25.7822 32.349C25.2429 33.1243 24.7372 33.9164 24.3496 34.776C24.2485 34.9782 24.1811 35.2142 24.0799 35.4164L23.9451 35.7366L23.8608 36.0569C23.7092 36.5456 23.7092 36.9501 23.726 37.3883C23.7934 38.2647 24.1811 39.1074 24.8215 39.7479C25.4451 40.3883 26.2541 40.8434 27.0968 41.1299C28.8159 41.7029 30.7204 41.5175 32.2878 40.7422C33.9563 39.8827 35.5406 38.8715 36.9226 37.658C37.5968 37.0512 38.2541 36.4108 38.7766 35.7198C39.0462 35.3827 39.2485 35.0119 39.3833 34.6917C39.4507 34.5063 39.4844 34.422 39.5013 34.2029C39.5181 34.0681 39.5181 34.0007 39.535 33.9333C39.5519 33.8658 39.535 33.7647 39.535 33.6804C39.4844 33.0063 39.1474 32.5512 38.5912 32.3995C38.5575 32.3827 38.5238 32.3827 38.4901 32.3658L38.4395 32.349C38.2878 32.3321 38.6249 32.3658 38.5575 32.3658H38.5069H38.3215C38.2878 32.3827 38.3721 32.3995 38.3889 32.3827C38.4901 32.349 38.4058 32.3827 38.3721 32.3995C38.3384 32.3995 38.2878 32.4838 38.2541 32.5007C38.0687 32.6861 37.917 32.9894 37.8496 33.3097C37.6811 33.967 37.8159 34.7254 38.1867 35.4333C38.5406 36.1411 39.0968 36.8321 39.771 37.4052C40.0743 37.7085 40.462 37.9782 40.8328 38.2816C41.2035 38.5512 41.5575 38.8209 41.9451 39.0737C42.7035 39.5962 43.5125 40.0681 44.3552 40.4726C46.0238 41.2816 47.8271 41.8546 49.6642 41.9052C50.1193 41.9052 50.5743 41.8883 50.9957 41.7703C51.4002 41.6524 51.8047 41.4838 52.1586 41.231C52.8665 40.7085 53.4058 39.9333 53.6586 39.0569C54.1642 37.2703 53.6755 35.2984 52.9676 33.5456C53.4058 34.4052 53.7934 35.2816 54.0294 36.2422C54.2485 37.1861 54.3159 38.1973 54.1137 39.1748C53.9114 40.1524 53.3721 41.0962 52.5631 41.7703C52.1754 42.1074 51.6867 42.3602 51.1811 42.5288C50.6923 42.6973 50.1698 42.7479 49.6642 42.7816C47.6417 42.8658 45.6698 42.3771 43.8159 41.6692C42.8889 41.2984 41.9957 40.8771 41.1361 40.3715C40.6979 40.1355 40.2766 39.849 39.8552 39.5793C39.4676 39.3097 39.0631 39.04 38.6586 38.6861C37.8496 38.0456 37.0912 37.2703 36.535 36.2928C35.9957 35.3153 35.6755 34.1018 35.962 32.8715C36.1137 32.2647 36.3665 31.658 36.8552 31.1524C36.9901 31.0344 37.108 30.8995 37.2766 30.7984C37.462 30.6973 37.5799 30.5962 37.9002 30.4951C38.035 30.4613 38.2204 30.4276 38.3047 30.4276H38.4901H38.5406C38.5238 30.4276 38.8777 30.4613 38.7597 30.4445L38.8777 30.4782C38.962 30.4951 39.0462 30.5119 39.1137 30.5456C39.7541 30.731 40.3608 31.1524 40.7653 31.7254C41.1698 32.2984 41.3552 32.9557 41.3889 33.5793C41.3889 33.731 41.3889 33.8827 41.3889 34.0512C41.3721 34.2198 41.3552 34.3883 41.3384 34.4894C41.3047 34.7591 41.1867 35.1299 41.0687 35.3827C40.8159 35.9389 40.5125 36.3939 40.1755 36.7984C39.5181 37.6243 38.7429 38.2984 37.9507 38.922C36.3665 40.1355 34.6137 41.113 32.8103 41.8883C30.8721 42.6973 28.6811 42.731 26.7766 41.9557C25.8328 41.5849 24.9395 41.0288 24.2485 40.2535C23.5575 39.4951 23.1024 38.4838 23.0519 37.4389C23.035 36.9164 23.1024 36.3602 23.2372 35.922L23.3384 35.5512L23.4732 35.2142C23.5743 34.9951 23.6417 34.7591 23.7597 34.54C24.1642 33.6467 24.6867 32.8209 25.226 31.9951C26.3552 30.4108 27.7204 28.9613 29.3047 27.7816C30.8721 26.6018 32.6755 25.6917 34.6137 25.2029C34.8496 25.1524 35.1024 25.0681 35.3384 25.0344L36.0968 24.9164C36.6193 24.8153 37.0743 24.8153 37.5631 24.7984C38.5912 24.7647 39.5519 24.849 40.5462 25.0007C42.5181 25.304 44.4226 26.0119 46.1249 27.1074C47.7934 28.2198 49.2766 29.7366 50.0519 31.6748C50.153 31.9108 50.2373 32.1636 50.3215 32.4333C50.4058 32.7029 50.4564 32.9389 50.4901 33.1748C50.5912 33.7142 50.5912 34.2029 50.5912 34.7085C50.5743 35.7198 50.4901 36.7142 50.271 37.6917C50.0519 38.6692 49.7653 39.6299 49.3271 40.54C49.1417 41.0119 48.8552 41.4333 48.6193 41.8715C48.3159 42.2928 48.0631 42.731 47.7092 43.1018C47.0687 43.8939 46.2429 44.5344 45.3833 45.0906C44.9114 45.3097 44.4901 45.5962 43.9844 45.7479L43.2429 46.0175C42.9901 46.1018 42.771 46.1355 42.535 46.1861C40.5631 46.6074 38.5069 46.5906 36.5519 46.1355C34.5968 45.6636 32.7429 44.804 31.1417 43.5737C29.5575 42.3602 28.1586 40.8602 27.2316 39.04C26.3384 37.2198 25.799 35.3658 25.3103 33.4613C24.8384 31.5737 24.5013 29.6524 24.3159 27.6973C24.2316 26.7198 24.1811 25.7422 24.2148 24.731L24.2485 24.0063C24.2653 23.7366 24.299 23.5007 24.3328 23.2479C24.4002 22.7422 24.5013 22.2535 24.653 21.7479C24.9395 20.7703 25.3946 19.7928 26.1024 18.9838C26.2878 18.7816 26.4901 18.5793 26.726 18.4108C26.9788 18.2422 27.1979 18.04 27.771 18.0231C27.8215 18.0231 28.0406 18.0569 28.1586 18.1411C28.226 18.1748 28.2934 18.2254 28.344 18.2759L28.3777 18.3097L28.4114 18.3434C28.3946 18.3097 28.6137 18.6636 28.5294 18.5456L28.5799 18.6636C28.6305 18.8321 28.6642 19.0007 28.6811 19.1524C28.7148 19.4726 28.6811 19.776 28.6137 20.0625C28.5462 20.349 28.4451 20.6186 28.2934 20.8715C28.2429 20.9894 28.1249 21.158 28.0575 21.2422C27.9901 21.3602 27.7878 21.5625 27.6867 21.613C27.1979 21.9501 26.7597 22.1692 26.271 22.3546C25.3271 22.7254 24.299 22.9276 23.2878 22.9276C22.2597 22.9445 21.2316 22.7085 20.3215 22.2366C19.3777 21.7479 18.6867 21.0063 18.0968 20.1804C16.9844 18.4951 16.5125 16.4389 16.7316 14.4164C16.9507 12.4276 17.9114 10.3377 19.9002 9.24224C20.153 9.0737 20.3552 9.02314 20.5743 8.92202L20.7429 8.8546L20.8271 8.82089L20.8608 8.80404L20.962 8.77033L21.3328 8.65236C21.5687 8.56809 21.8215 8.50067 22.0743 8.45011C22.3271 8.39955 22.5799 8.34898 22.8496 8.33213C23.3721 8.28157 23.962 8.28157 24.5687 8.48382C25.1586 8.66921 25.8159 9.22539 25.9676 9.93325C26.0687 10.2872 26.0519 10.6411 26.0013 10.9782C25.9507 11.1467 25.917 11.3153 25.8159 11.5175L25.7485 11.6524L25.6979 11.7366L25.6474 11.804L25.5799 11.9052L25.5125 11.9726C25.3271 12.1748 25.0238 12.3097 24.7541 12.3265C24.6361 12.3265 24.4844 12.3265 24.3833 12.3097C24.2822 12.276 24.1811 12.2591 24.0799 12.2254C23.7429 12.0737 23.4901 11.8883 23.271 11.6692C22.8496 11.2479 22.5462 10.7928 22.3271 10.2703C22.1249 9.74786 21.9732 9.17483 22.108 8.50067V8.55123C22.2934 7.42202 22.7822 6.37707 23.4226 5.48382C24.0631 4.59056 24.9058 3.83213 25.8665 3.30966C26.8271 2.78719 27.9058 2.48382 29.0013 2.39955C29.5575 2.36584 30.1305 2.39955 30.6361 2.46696C31.1923 2.55123 31.7148 2.66921 32.2541 2.8546C32.7766 3.04 33.3159 3.27595 33.771 3.6973C34.226 4.10179 34.5799 4.69168 34.6474 5.33213C34.7148 5.98943 34.5799 6.57932 34.2429 7.16921C34.1923 7.25348 34.1586 7.30404 34.1249 7.3546L34.1417 7.37146C34.0912 7.43887 34.0743 7.43887 34.0238 7.48943C33.9395 7.55685 33.8552 7.60741 33.771 7.64112C33.6698 7.65797 33.5519 7.67483 33.4507 7.65797C33.3496 7.64112 33.299 7.60741 33.2316 7.59056C33.0799 7.52314 33.0294 7.45573 32.9451 7.38831C32.6754 7.11865 32.5406 6.84898 32.4226 6.57932C32.1867 6.02314 32.0519 5.45011 32.0687 4.84337C32.0856 4.52314 32.1193 4.23663 32.2878 3.89955C32.3215 3.81528 32.3721 3.73101 32.4226 3.64674L32.5406 3.49505L32.6249 3.37707L32.6923 3.30966L32.844 3.17483C33.2485 2.82089 33.6193 2.4164 34.0575 2.11303L34.6979 1.62427C34.917 1.47258 35.1698 1.33775 35.3889 1.20292C36.3328 0.663591 37.344 0.208535 38.4395 0.0737036C39.5181 -0.0779818 40.6305 0.00628786 41.6754 0.309659C42.7204 0.629883 43.6979 1.11865 44.608 1.69168C45.0631 1.9782 45.5181 2.29842 45.9395 2.61865L46.2766 2.82089L46.5968 3.10741C46.8159 3.2928 47.0013 3.51191 47.1867 3.74786C47.9114 4.65797 48.2316 6.00629 47.7934 7.20292C47.7429 7.3546 47.6754 7.50629 47.5912 7.64112C47.5069 7.7928 47.4058 7.92764 47.2878 8.06247C47.1867 8.1973 47.0013 8.31528 46.8159 8.4164C46.7148 8.46696 46.5968 8.50067 46.4788 8.53438C46.344 8.55123 46.2092 8.55123 46.0743 8.53438C45.9395 8.51752 45.771 8.4164 45.653 8.33213C45.4844 8.21415 45.5013 8.1973 45.4507 8.12988L45.3833 8.06247L45.3665 8.04561V8.02876C45.417 8.09618 45.2822 7.91078 45.299 7.92764L45.2822 7.87707L45.1811 7.67483C45.0631 7.40516 44.9114 7.1355 44.8608 6.81528C44.6755 6.22539 44.7934 5.43325 45.1642 4.89393C45.535 4.32089 46.0743 3.98382 46.5968 3.74786C47.6586 3.2591 48.7373 3.10741 49.8328 3.02314H49.8665H49.8833C51.1474 3.20854 52.2934 3.62988 53.3721 4.27033C54.417 4.92764 55.3608 5.80404 55.9339 6.95011C56.0687 7.23663 56.2373 7.54 56.3047 7.82651L56.4395 8.24786C56.4563 8.33213 56.4901 8.36584 56.5069 8.48382L56.5575 8.71977C56.6923 9.32651 56.7597 9.98382 56.6586 10.658C56.5743 11.3153 56.2541 12.04 55.6474 12.5119C55.0406 12.967 54.2653 13.2029 53.4226 12.8995C53.2204 12.8153 52.9676 12.6636 52.799 12.3434C52.7316 12.1917 52.6979 12.0063 52.7148 11.8377C52.7316 11.7366 52.7485 11.6524 52.7822 11.5681L52.8328 11.467C53.0013 11.1299 53.153 10.8771 53.3552 10.5906C53.7429 10.0512 54.299 9.51191 55.0575 9.30966C55.8159 9.09056 56.5912 9.30966 57.1811 9.61303C57.7878 9.93325 58.2934 10.3377 58.7485 10.7928C59.6417 11.7029 60.3496 12.731 60.9058 13.8771C61.0406 14.1636 61.1586 14.467 61.2597 14.7872L61.3271 15.04L61.3777 15.3434L61.3946 15.613V15.8321C61.3946 16.4389 61.3777 17.0793 61.2429 17.7366C60.9901 19.0512 60.1305 20.2142 59.1361 20.9894C58.6474 21.3939 58.1249 21.731 57.5687 22.0512C57.299 22.2198 57.0294 22.3377 56.7766 22.4726C56.5069 22.6243 56.1867 22.7591 55.8665 22.8602C54.6024 23.2816 53.2373 23.1636 52.0406 22.7591C50.844 22.3546 49.7485 21.6804 48.8384 20.7703C48.4002 20.2984 47.962 19.8097 47.8103 19.0344C47.7766 18.849 47.7934 18.613 47.8608 18.3771C47.962 18.158 48.1305 17.9557 48.3328 17.8546C48.5013 17.7366 48.7541 17.6861 48.9058 17.6524L49.1586 17.6186L49.4451 17.6355C49.8328 17.6692 50.2035 17.8546 50.4732 18.1243C50.726 18.3939 50.8946 18.6973 51.0294 19.0007C51.2822 19.6074 51.3833 20.231 51.4507 20.8377C51.5856 22.0681 51.5013 23.2647 51.4002 24.4613C51.3159 25.6243 51.1305 26.804 50.8608 27.967Z" />
<path d="M6.66981 83.7366C6.61925 84.3097 6.6024 84.7479 6.06307 85.0512V85.1018H9.99004V74.7198H7.54622L6.66981 83.7366ZM6.28217 74.6355L5.50689 74.1636V73.6411H12.4676V74.1636L11.7934 74.6355V85.1018H12.9058L13.0237 88.0681H12.0968L11.5575 86.2141H5.23723L4.6979 88.0681H3.77094L3.87206 85.1018C4.71476 85.1861 5.20352 85.0175 5.30464 83.9389L6.28217 74.6355Z" />
<path d="M18.7709 76.9783C18.7709 76.2536 18.4339 75.8997 17.7934 75.8997H16.6473V79.8098H17.7934C18.4507 79.8098 18.7709 79.3042 18.7709 78.6132V76.9783ZM17.9114 85.203C18.6867 85.203 19.0743 84.8154 19.0912 83.8716V82.0008C19.0912 81.0907 18.7541 80.6356 17.7597 80.6356H16.6473V84.5626C16.6473 84.866 16.5799 85.0177 16.2934 85.1019V85.1862H17.9114V85.203ZM17.9451 86.2143H14.2541V85.7255L14.962 85.2199V75.8154L14.3721 75.3603V74.8716H17.8608C19.5125 74.8716 20.5406 75.2761 20.5406 76.9615V78.5963C20.5406 79.2199 20.2372 79.8266 19.6642 80.0794C20.4058 80.366 20.8777 80.9559 20.8777 82.0008V83.9053C20.8608 85.7424 19.5125 86.2143 17.9451 86.2143Z" />
<path d="M22.6979 86.2143V85.7255L23.4057 85.2199V75.7648L22.8159 75.3098V74.8716H28.5799V77.3997H27.7372L27.2653 75.866H25.1417V80.0457H26.608L27.063 79.1693H27.5687V81.8997H27.063L26.608 81.0738H25.1417V84.5794C25.1417 84.8491 25.0743 84.9839 24.7878 85.0851V85.1693H27.4675L28.0406 83.6693H28.799V86.1974H22.6979V86.2143Z" />
<path d="M38.5069 76.9783C38.5069 76.2536 38.1698 75.8997 37.5293 75.8997H36.3833V79.8098H37.5293C38.1866 79.8098 38.5069 79.3042 38.5069 78.6132V76.9783ZM37.6473 85.203C38.4226 85.203 38.8102 84.8154 38.8271 83.8716V82.0008C38.8271 81.0907 38.49 80.6356 37.4956 80.6356H36.3833V84.5626C36.3833 84.866 36.3158 85.0177 36.0293 85.1019V85.1862H37.6473V85.203ZM37.681 86.2143H33.9731V85.7255L34.681 85.2199V75.8154L34.0911 75.3603V74.8716H37.5799C39.2316 74.8716 40.2597 75.2761 40.2597 76.9615V78.5963C40.2597 79.2199 39.9563 79.8266 39.3833 80.0794C40.1248 80.366 40.5967 80.9559 40.5967 82.0008V83.9053C40.5799 85.7424 39.2316 86.2143 37.681 86.2143Z" />
<path d="M46.9001 74.905H49.7484V75.3769L49.1923 75.832V85.2365L49.8496 85.759V86.2309H46.7822V85.7421L47.4563 85.2196C47.4563 82.9444 47.4395 80.2983 47.4395 78.0399L46.8159 80.096L44.8608 85.2365L45.5013 85.7421V86.214H42.4338V85.7421L43.0911 85.2196V75.8152L42.535 75.3601V74.8882H45.3833V75.3601L44.8271 75.8152V83.214L45.4338 81.1916L47.4395 75.8657C47.2541 75.6972 47.0687 75.5455 46.8664 75.3769V74.905H46.9001Z" />
<path d="M56.2372 75.9163H54.299L53.4226 84.5961C53.3046 86.1972 52.3103 86.6185 50.8945 86.214L50.9788 85.3882C51.4844 85.4556 52.0237 85.5062 52.108 84.4612L53.0181 75.8994L52.3945 75.3769V74.8882H58.5294V75.3769L57.9563 75.832V85.3208L58.6305 85.7421V86.2309H55.5631V85.7421L56.2204 85.3208V75.9163H56.2372Z" />
<path d="M67.4451 75.5289C66.8889 75.5289 66.7372 75.8154 66.5518 76.3379C66.2484 77.1469 65.6586 79.7761 65.0181 79.9952V80.0289C65.8271 80.0963 66.2822 81.1244 66.4844 82.1525L66.99 84.512C67.0911 85.0177 67.4451 85.557 67.9001 85.439L67.8833 86.0963C67.5799 86.2817 67.0911 86.3154 66.8046 86.3154C65.7428 86.3323 65.372 85.675 65.1866 84.748L64.7147 82.4896C64.5125 81.4952 64.1754 80.703 63.181 80.703H62.6923V85.2199L63.4001 85.7255V86.2143H60.3159V85.7255L60.99 85.2199V75.8154L60.4001 75.3603V74.8716H63.2653V75.3603L62.6923 75.8154V79.7424C64.8327 79.7424 63.9395 75.3266 66.1305 74.9221C66.535 74.8547 67.0069 74.9053 67.4114 74.8884V75.5289H67.4451Z" />
<path d="M73.5631 74.905H76.4114V75.3769L75.8552 75.832V85.2365L76.5125 85.759V86.2309H73.4451V85.7421L74.1193 85.2196C74.1193 82.9444 74.1024 80.2983 74.1024 78.0399L73.4788 80.096L71.5238 85.2365L72.1642 85.7421V86.214H69.0968V85.7421L69.7541 85.2196V75.8152L69.1979 75.3601V74.8882H72.0631V75.3601L71.5069 75.8152V83.214L72.1137 81.1916L74.1193 75.8657C73.9339 75.6972 73.7485 75.5455 73.5462 75.3769V74.905H73.5631Z" />
</svg>
