<svg width="65" height="47" viewBox="0 0 65 47" fill="none" xmlns="http://www.w3.org/2000/svg">
<g clip-path="url(#clip0)">
<path d="M43.0564 0H21.9059C19.9797 0 18.3934 1.58629 18.3934 3.51249V42.6031C18.3934 44.5293 19.9797 46.1156 21.9059 46.1156H43.0564C44.9826 46.1156 46.5689 44.5293 46.5689 42.6031V3.51249C46.5689 1.58629 45.0203 0 43.0564 0ZM32.4811 45.1714C31.0837 45.1714 29.9884 44.0383 29.9884 42.6787C29.9884 41.2812 31.1214 40.1859 32.4811 40.1859C33.8786 40.1859 34.9739 41.319 34.9739 42.6787C35.0116 44.0383 33.8786 45.1714 32.4811 45.1714ZM43.0941 38.9018H21.9059V3.58803H43.1319V38.9018H43.0941Z" fill="white"/>
<path d="M12.4259 32.9722C12.0482 32.9722 11.7083 32.7834 11.4817 32.4435C9.74434 29.422 8.83789 25.985 8.83789 22.5103C8.83789 19.0355 9.74434 15.5986 11.4817 12.5771C11.7839 12.0483 12.4259 11.8973 12.9547 12.1994C13.4834 12.5016 13.6345 13.1436 13.3324 13.6724C11.7839 16.354 10.9529 19.4132 10.9529 22.5103C10.9529 25.6073 11.7839 28.6666 13.3324 31.3482C13.6345 31.8769 13.4457 32.519 12.9547 32.8211C12.8036 32.9344 12.6148 32.9722 12.4259 32.9722Z" fill="white"/>
<path d="M5.62754 38.4109C4.98547 38.4109 4.34341 38.0709 4.00349 37.4666C1.39744 32.9344 0 27.7601 0 22.5102C0 17.2604 1.39744 12.086 4.00349 7.55379C4.53225 6.64734 5.66531 6.34519 6.57176 6.87395C7.47821 7.40272 7.78036 8.53578 7.2516 9.44223C4.94771 13.4079 3.7391 17.9402 3.7391 22.548C3.7391 27.1558 4.94771 31.6503 7.2516 35.6537C7.78036 36.5602 7.47821 37.6932 6.57176 38.222C6.26961 38.3353 5.96746 38.4109 5.62754 38.4109Z" fill="white"/>
<path d="M52.5741 34.1053C52.3852 34.1053 52.1964 34.0676 52.0453 33.9543C51.5166 33.6521 51.3655 33.01 51.6676 32.4813C53.2162 29.7997 54.0471 26.7404 54.0471 23.6434C54.0471 20.5464 53.2162 17.4871 51.6676 14.8055C51.3655 14.2767 51.5543 13.6347 52.0453 13.3325C52.5741 13.0304 53.2162 13.2192 53.5183 13.7102C55.2557 16.7317 56.1621 20.1687 56.1621 23.6434C56.1621 27.1181 55.2557 30.5551 53.5183 33.5766C53.2917 33.9165 52.9518 34.1053 52.5741 34.1053Z" fill="white"/>
<path d="M59.3725 39.544C59.0703 39.544 58.7304 39.4685 58.4282 39.2796C57.5218 38.7509 57.2196 37.6178 57.7484 36.7114C60.0523 32.7456 61.2609 28.2134 61.2609 23.6056C61.2609 18.9978 60.0523 14.5033 57.7484 10.4998C57.2196 9.5934 57.5218 8.46033 58.4282 7.93157C59.3347 7.40281 60.4678 7.70496 60.9965 8.61141C63.6026 13.1437 65 18.318 65 23.5678C65 28.8177 63.6026 33.992 60.9965 38.5243C60.6566 39.2041 60.0145 39.544 59.3725 39.544Z" fill="white"/>
</g>
<defs>
<clipPath id="clip0">
<rect width="65" height="46.0779" fill="white"/>
</clipPath>
</defs>
</svg>
